{
.appVersion = "3234";
.formatVersion = 3;
DisplayStrings = (
"",
"",
pH
);
customParameters = (
{
name = vendorID;
value = BWRS;
},
{
name = panose;
value = (
2,
2,
6,
2,
6,
3,
0,
0,
0,
4
);
},
{
name = unicodeRanges;
value = (
0,
1,
2,
3,
4,
5,
7,
29,
31,
32,
33,
35,
36,
38,
60,
62
);
},
{
name = fsType;
value = (
);
},
{
name = blueScale;
value = 0.0166669990867;
},
{
name = blueShift;
value = 10;
},
{
name = glyphOrder;
value = (
.notdef,
A,
AE,
AEacute,
Aacute,
Abreve,
Acircumflex,
Adieresis,
Agrave,
Amacron,
Aogonek,
Aring,
Aringacute,
Atilde,
B,
C,
CR,
Cacute,
Ccaron,
Ccedilla,
Ccircumflex,
Cdotaccent,
D,
Dcaron,
Dcroat,
Ddotbelow,
E,
Eacute,
Ebreve,
Ecaron,
Ecircumflex,
Edieresis,
Edotaccent,
Edotbelow,
Egrave,
Emacron,
Eng,
Eogonek,
Eth,
Etilde,
Euro,
Euro.tnum,
F,
G,
Gbreve,
Gcircumflex,
Gcommaaccent,
Gdotaccent,
H,
Hbar,
Hcircumflex,
Hdotbelow,
I,
IJ,
Iacute,
Ibreve,
Icircumflex,
Idieresis,
Idotaccent,
Idotbelow,
Igrave,
Imacron,
Iogonek,
Itilde,
J,
Jcircumflex,
K,
Kcommaaccent,
L,
Lacute,
Lcaron,
Lcommaaccent,
Ldot,
Lslash,
M,
N,
NULL,
Nacute,
Ncaron,
Ncommaaccent,
Ndotaccent,
Ntilde,
O,
OE,
Oacute,
Obreve,
Ocircumflex,
Odieresis,
Odotbelow,
Ograve,
Ohungarumlaut,
Omacron,
Oogonek,
Oslash,
Oslashacute,
Otilde,
P,
Q,
R,
Racute,
Rcaron,
Rcommaaccent,
Rdotbelow,
S,
Sacute,
Scaron,
Schwa,
Scircumflex,
Sdotbelow,
T,
Tbar,
Tcaron,
Tdotbelow,
Thorn,
U,
Uacute,
Ubreve,
Ucircumflex,
Udieresis,
Udotbelow,
Ugrave,
Uhungarumlaut,
Umacron,
Uogonek,
Uring,
Utilde,
V,
W,
Wacute,
Wcircumflex,
Wdieresis,
Wgrave,
X,
Y,
Yacute,
Ycircumflex,
Ydieresis,
Ygrave,
Ytilde,
Z,
Zacute,
Zcaron,
Zdotaccent,
Zdotbelow,
a,
aacute,
abreve,
acircumflex,
acute,
acute.cap,
adieresis,
ae,
aeacute,
agrave,
amacron,
ampersand,
aogonek,
apostrophe,
aring,
aringacute,
asciicircum,
asciitilde,
asterisk,
at,
atilde,
b,
backslash,
bar,
bar.tnum,
braceleft,
braceright,
bracketleft,
bracketright,
breve,
breve.cap,
brokenbar,
bullet,
c,
c_t,
cacute,
caron,
caron.alt,
caron.cap,
ccaron,
ccedilla,

glyphs = (
{
glyphname = .notdef;
layers = (
{
hints = (
{
horizontal = 1;
place = (887,83);
type = Stem;
},
{
horizontal = 1;
place = (-260,82);
type = Stem;
},
{
place = (485,90);
type = Stem;
},
{
place = (50,90);
type = Stem;
}
);
layerId = m01;
shapes = (
{
closed = 1;
nodes = (
(50,-260,l),
(575,-260,l),
(575,970,l),
(50,970,l)
);
},
{
closed = 1;
nodes = (
(174,-178,l),
(485,779,l),
(485,-178,l)
);
},
{
closed = 1;
nodes = (
(140,887,l),
(450,887,l),
(140,-70,l)
);
}
);
width = 625;
}
);
note = .notdef;
},
{
glyphname = A;
kernLeft = A;
kernRight = A;
lastChange = "2024-01-06 19:14:23 +0000";
layers = (
{
hints = (
{
horizontal = 1;
place = (790,-20);
target = down;
type = TopGhost;
},
{
horizontal = 1;
place = (222,57);
type = Stem;
},
{
horizontal = 1;
place = (0,37);
type = Stem;
}
);
layerId = m01;
shapes = (
{
closed = 1;
nodes = (
(716,52,o),
(732,42,o),
(805,37,c),
(805,0,l),
(393,0,l),
(393,37,l),
(466,39,o),
(491,47,o),
(491,74,cs),
(491,84,o),
(488,98,o),
(482,114,c),
(697,98,l)
);
},
{
closed = 1;
nodes = (
(87,67,o),
(74,53,o),
(-20,37,c),
(-20,0,l),
(290,0,l),
(290,37,l),
(207,49,o),
(177,65,o),
(177,99,cs),
(177,112,o),
(181,127,o),
(188,146,c),
(119,148,l)
);
},
{
closed = 1;
nodes = (
(411,790,l),
(262,733,l),
(308,630,l),
(453,689,l)
);
}
);
width = 781;
}
);
note = A;
unicode = 65;
},
{
glyphname = AE;
kernLeft = AE;
kernRight = AE;
lastChange = "2024-01-06 19:15:13 +0000";
layers = (
{
hints = (
{
horizontal = 1;
place = (550,-20);
target = down;
type = TopGhost;
},
{
horizontal = 1;
place = (547,-20);
target = down;
type = TopGhost;
},
{
horizontal = 1;
place = (713,57);
type = Stem;
},
{
horizontal = 1;
place = (380,54);
type = Stem;
},
{
horizontal = 1;
place = (288,54);
type = Stem;
},
{
horizontal = 1;
place = (0,57);
type = Stem;
},
{
place = (489,172);
type = Stem;
}
);
layerId = m01;
shapes = (
{
closed = 1;
nodes = (
(102,72,o),
(75,52,o),
(-27,37,c),
(-27,0,l),
(272,0,l),
(272,37,l),
(218,45,o),
(195,60,o),
(195,88,cs),
(195,103,o),
(203,122,o),
(215,146,c),
(142,148,l)
);
},
{
closed = 1;
nodes = (
(384,770,l),
(384,743,l),
(446,725,l),
(446,770,l)
);
},
{
closed = 1;
nodes = (
(1016,770,l),
(1035,550,l),
(993,550,l),
(977,603,o),
(950,661,o),
(916,713,c),
(916,770,l)
);
},
{
closed = 1;
nodes = (
(809,471,o),
(823,507,o),
(830,547,c),
(872,547,l),
(872,267,l),
(830,267,l),
(823,307,o),
(809,343,o),
(787,380,c),
(787,434,l)
);
},
{
closed = 1;
nodes = (
(953,116,o),
(978,169,o),
(1001,234,c),
(1053,234,l),
(1011,0,l),
(910.001,0,l),
(910,57,l)
);
},
{
closed = 1;
nodes = (
(404,37,l),
(404,0,l),
(488,0,l),
(489,56,l)
);
}
);
width = 1093;
}
);
note = AE;
unicode = 198;
},
{
glyphname = AEacute;
kernLeft = AE;
kernRight = AE;
lastChange = "2024-01-06 19:15:19 +0000";
layers = (
{
hints = (
{
horizontal = 1;
place = (550,-20);
target = down;
type = TopGhost;
},
{
horizontal = 1;
place = (547,-20);
target = down;
type = TopGhost;
},
{
horizontal = 1;
place = (713,250);
type = Stem;
},
{
horizontal = 1;
place = (713,57);
type = Stem;
},
{
horizontal = 1;
place = (380,54);
type = Stem;
},
{
horizontal = 1;
place = (288,54);
type = Stem;
},
{
horizontal = 1;
place = (0,57);
type = Stem;
}
);
layerId = m01;
shapes = (
{
closed = 1;
nodes = (
(559,817,l),
(724,849,ls),
(766,857,o),
(783,884,o),
(783,909,cs),
(783,937,o),
(762,963,o),
(728,963,cs),
(711,963,o),
(690,956,o),
(667,939,cs),
(542,845,l)
);
},
{
ref = AE;
}
);
width = 1093;
}
);
note = AEacute;
unicode = 508;
},
{
glyphname = Aacute;
kernLeft = A;
kernRight = A;
lastChange = "2024-01-06 19:15:23 +0000";
layers = (
{
hints = (
{
horizontal = 1;
place = (963,-20);
target = down;
type = TopGhost;
},
{
horizontal = 1;
place = (222,57);
type = Stem;
},
{
horizontal = 1;
place = (0,37);
type = Stem;
}
);
layerId = m01;
shapes = (
{
closed = 1;
nodes = (
(249,817,l),
(414,849,ls),
(456,857,o),
(473,884,o),
(473,909,cs),
(473,937,o),
(452,963,o),
(418,963,cs),
(401,963,o),
(380,956,o),
(357,939,cs),
(232,845,l)
);
},
{
ref = A;
}
);
width = 781;
}
);
note = Aacute;
unicode = 193;
},
{
glyphname = Abreve;
kernLeft = A;
kernRight = A;
lastChange = "2024-01-06 19:15:27 +0000";
layers = (
{
hints = (
{
horizontal = 1;
place = (829,136);
type = Stem;
},
{
horizontal = 1;
place = (829,104);
type = Stem;
},
{
horizontal = 1;
place = (222,57);
type = Stem;
},
{
horizontal = 1;
place = (0,37);
type = Stem;
}
);
layerId = m01;
shapes = (
{
closed = 1;
nodes = (
(201,965,l),
(213,863,o),
(286,829,o),
(348,829,cs),
(394,829,o),
(471,843,o),
(505,965,c),
(456,965,l),
(434,942,o),
(394,933,o),
(352,933,cs),
(308,933,o),
(267,942,o),
(251,965,c)
);
},
{
ref = A;
}
);
width = 781;
}
);
note = Abreve;
unicode = 258;
},
{
glyphname = Acircumflex;
kernLeft = A;
kernRight = A;
lastChange = "2024-01-06 19:15:29 +0000";
layers = (
{
hints = (
{
horizontal = 1;
place = (960,-20);
target = down;
type = TopGhost;
},
{
horizontal = 1;
place = (222,57);
type = Stem;
},
{
horizontal = 1;
place = (0,37);
type = Stem;
}
);
layerId = m01;
shapes = (
{
closed = 1;
nodes = (
(326,960,o),
(307,949,o),
(280,927,cs),
(178,843,l),
(194,821,l),
(351,862,l),
(508,821,l),
(524,843,l),
(420,927,ls),
(393,949,o),
(374,960,o),
(352,960,cs)
);
},
{
ref = A;
}
);
width = 781;
}
);
note = Acircumflex;
unicode = 194;
},
{
glyphname = Adieresis;
kernLeft = A;
kernRight = A;
lastChange = "2024-01-06 19:15:32 +0000";
layers = (
{
hints = (
{
horizontal = 1;
place = (829,136);
type = Stem;
},
{
horizontal = 1;
place = (222,57);
type = Stem;
},
{
horizontal = 1;
place = (0,37);
type = Stem;
},
{
place = (393,144);
type = Stem;
},
{
place = (186,144);
type = Stem;
},
{
place = (177,216);
type = Stem;
}
);
layerId = m01;
shapes = (
{
closed = 1;
nodes = (
(186,864,o),
(210,829,o),
(257,829,cs),
(305,829,o),
(330,864,o),
(330,896,cs),
(330,932,o),
(302,965,o),
(257,965,cs),
(212,965,o),
(186,932,o),
(186,896,cs)
);
},
{
closed = 1;
nodes = (
(393,864,o),
(418,829,o),
(464,829,cs),
(513,829,o),
(537,864,o),
(537,896,cs),
(537,932,o),
(509,965,o),
(464,965,cs),
(419,965,o),
(393,932,o),
(393,896,cs)
);
},
{
ref = A;
}
);
width = 781;
}
);
note = Adieresis;
unicode = 196;
},
{
glyphname = Agrave;
kernLeft = A;
kernRight = A;
lastChange = "2024-01-06 19:15:34 +0000";
layers = (
{
hints = (
{
horizontal = 1;
place = (963,-20);
target = down;
type = TopGhost;
},
{
horizontal = 1;
place = (222,57);
type = Stem;
},
{
horizontal = 1;
place = (0,37);
type = Stem;
}
);
layerId = m01;
shapes = (
{
closed = 1;
nodes = (
(462,845,l),
(337,939,ls),
(314,956,o),
(293,963,o),
(276,963,cs),
(242,963,o),
(221,937,o),
(221,909,cs),
(221,884,o),
(238,857,o),
(280,849,cs),
(445,817,l)
);
},
{
ref = A;
}
);
width = 781;
}
);
note = Agrave;
unicode = 192;
},
{
glyphname = Amacron;
kernLeft = A;
kernRight = A;
lastChange = "2024-01-06 19:15:37 +0000";
layers = (
{
hints = (
{
horizontal = 1;
place = (864,96);
type = Stem;
},
{
horizontal = 1;
place = (222,57);
type = Stem;
},
{
horizontal = 1;
place = (0,37);
type = Stem;
}
);
layerId = m01;
shapes = (
{
closed = 1;
nodes = (
(512,864,l),
(512,960,l),
(205,960,l),
(205,864,l)
);
},
{
ref = A;
}
);
width = 781;
}
);
note = Amacron;
unicode = 256;
},
{
glyphname = Aogonek;
kernLeft = A;
kernRight = A;
lastChange = "2024-01-06 19:15:41 +0000";
layers = (
{
hints = (
{
horizontal = 1;
place = (790,-20);
target = down;
type = TopGhost;
},
{
horizontal = 1;
place = (222,57);
type = Stem;
},
{
horizontal = 1;
place = (0,37);
type = Stem;
},
{
horizontal = 1;
place = (-256,75);
type = Stem;
},
{
place = (508,113);
type = Stem;
}
);
layerId = m01;
shapes = (
{
closed = 1;
nodes = (
(725,-160,l),
(703,-175,o),
(688,-181,o),
(669,-181,cs),
(637,-181,o),
(621,-162,o),
(621,-124,cs),
(621,-88,o),
(641,-47,o),
(684,0,c),
(622,0,l),
(551,-54,o),
(508,-116,o),
(508,-168,cs),
(508,-222,o),
(548,-256,o),
(610,-256,cs),
(661,-256,o),
(702,-239,o),
(740,-202,c)
);
},
{
ref = A;
}
);
width = 781;
}
);
note = Aogonek;
unicode = 260;
},
{
glyphname = Aring;
kernLeft = A;
kernRight = A;
lastChange = "2024-01-06 19:15:45 +0000";
layers = (
{
hints = (
{
horizontal = 1;
place = (830,140);
type = Stem;
},
{
horizontal = 1;
place = (222,57);
type = Stem;
},
{
horizontal = 1;
place = (0,37);
type = Stem;
}
);
layerId = m01;
shapes = (
{
closed = 1;
nodes = (
(379,830,o),
(409,860,o),
(409,900,cs),
(409,940,o),
(379,970,o),
(339,970,cs),
(299,970,o),
(269,940,o),
(269,900,cs),
(269,860,o),
(297,830,o),
(339,830,cs)
);
},
{
closed = 1;
nodes = (
(319,912,o),
(327,920,o),
(339,920,cs),
(351,920,o),
(359,912,o),
(359,900,cs),
(359,888,o),
(351,880,o),
(339,880,cs),
(327,880,o),
(319,888,o),
(319,900,cs)
);
},
{
ref = A;
}
);
width = 781;
}
);
note = Aring;
unicode = 197;
},
{
glyphname = Aringacute;
kernLeft = A;
kernRight = A;
lastChange = "2024-01-06 19:15:47 +0000";
layers = (
{
hints = (
{
horizontal = 1;
place = (970,-20);
target = down;
type = TopGhost;
},
{
horizontal = 1;
place = (830,139);
type = Stem;
},
{
horizontal = 1;
place = (222,57);
type = Stem;
},
{
horizontal = 1;
place = (0,37);
type = Stem;
}
);
layerId = m01;
shapes = (
{
closed = 1;
nodes = (
(239,825,l),
(296,842,l),
(307,834,o),
(322,830,o),
(338,830,cs),
(372,830,o),
(398,851,o),
(406,882,c),
(451,895,o),
(460,914,o),
(460,934,cs),
(460,958,o),
(436,969,o),
(416,969,cs),
(402,969,o),
(391,965,o),
(379,958,c),
(367,966,o),
(353,970,o),
(338,970,cs),
(298,970,o),
(268,940,o),
(268,900,cs),
(268,892,o),
(269,885,o),
(271,878,c),
(228,846,l)
);
},
{
closed = 1;
nodes = (
(326,880,o),
(318,888,o),
(318,900,cs),
(318,912,o),
(326,920,o),
(338,920,cs),
(350,920,o),
(358,912,o),
(358,900,cs),
(358,888,o),
(350,880,o),
(338,880,cs)
);
},
{
ref = A;
}
);
width = 781;
}
);
note = Aringacute;
unicode = 506;
},
{
glyphname = Atilde;
kernLeft = A;
kernRight = A;
lastChange = "2024-01-06 19:15:50 +0000";
layers = (
{
hints = (
{
horizontal = 1;
place = (965,-20);
target = down;
type = TopGhost;
},
{
horizontal = 1;
place = (821,-20);
target = down;
type = TopGhost;
},
{
horizontal = 1;
place = (859,104);
type = Stem;
},
{
horizontal = 1;
place = (859,68);
type = Stem;
},
{
horizontal = 1;
place = (820,107);
type = Stem;
},
{
horizontal = 1;
place = (222,57);
type = Stem;
},
{
horizontal = 1;
place = (0,37);
type = Stem;
}
);
layerId = m01;
shapes = (
{
closed = 1;
nodes = (
(238,821,l),
(242,844,o),
(264,859,o),
(299,859,cs),
(349,859,o),
(368,820,o),
(424,820,cs),
(492,820,o),
(526,873,o),
(526,965,c),
(487,965,l),
(481,941,o),
(459,927,o),
(427,927,cs),
(381,927,o),
(358,963,o),
(306,963,cs),
(244,963,o),
(199,915,o),
(199,821,c)
);
},
{
ref = A;
}
);
width = 781;
}
);
note = Atilde;
unicode = 195;
},
{
glyphname = B;
kernLeft = B;
lastChange = "2024-01-06 19:16:08 +0000";
layers = (
{
hints = (
{
horizontal = 1;
place = (716,54);
type = Stem;
},
{
horizontal = 1;
place = (0,53);
type = Stem;
},
{
place = (521,188);
type = Stem;
},
{
place = (521,150);
type = Stem;
},
{
place = (488,183);
type = Stem;
},
{
place = (127,172);
type = Stem;
}
);
layerId = m01;
shapes = (
{
closed = 1;
nodes = (
(42,770,l),
(42,733,l),
(127,712,l),
(127,770,l)
);
},
{
closed = 1;
nodes = (
(42,0,l),
(42,37,l),
(127,59,l),
(127,0,l)
);
}
);
width = 751;
}
);
note = B;
unicode = 66;
},
{
glyphname = C;
kernLeft = C;
lastChange = "2024-01-06 19:16:19 +0000";
layers = (
{
hints = (
{
horizontal = 1;
place = (770,-20);
target = down;
type = TopGhost;
},
{
horizontal = 1;
place = (721,59);
type = Stem;
},
{
horizontal = 1;
place = (-10,60);
type = Stem;
},
{
horizontal = 1;
place = (0,21);
target = up;
type = BottomGhost;
},
{
place = (45,189);
type = Stem;
}
);
layerId = m01;
shapes = (
{
closed = 1;
nodes = (
(681,186,o),
(699,228,o),
(708,277,c),
(753,277,l),
(753,0,l),
(716,0,l),
(675,66,l),
(658,152,l)
);
},
{
closed = 1;
nodes = (
(679,719,l),
(723,770,l),
(753,770,l),
(753,525,l),
(705,525,l),
(692,560,o),
(678,591,o),
(661,616,c),
(675,719,l)
);
}
);
width = 813;
}
);
note = C;
unicode = 67;
},
{
glyphname = Cacute;
kernLeft = C;
lastChange = "2024-01-06 19:16:24 +0000";
layers = (
{
hints = (
{
horizontal = 1;
place = (770,-20);
target = down;
type = TopGhost;
},
{
horizontal = 1;
place = (721,242);
type = Stem;
},
{
horizontal = 1;
place = (721,59);
type = Stem;
},
{
horizontal = 1;
place = (-10,60);
type = Stem;
},
{
horizontal = 1;
place = (0,21);
target = up;
type = BottomGhost;
},
{
place = (45,189);
type = Stem;
}
);
layerId = m01;
shapes = (
{
closed = 1;
nodes = (
(339,817,l),
(504,849,ls),
(546,857,o),
(563,884,o),
(563,909,cs),
(563,937,o),
(542,963,o),
(508,963,cs),
(491,963,o),
(470,956,o),
(447,939,cs),
(322,845,l)
);
},
{
ref = C;
}
);
width = 813;
}
);
note = Cacute;
unicode = 262;
},
{
glyphname = Ccaron;
kernLeft = C;
lastChange = "2024-01-06 19:16:26 +0000";
layers = (
{
hints = (
{
horizontal = 1;
place = (970,-20);
target = down;
type = TopGhost;
},
{
horizontal = 1;
place = (770,-20);
target = down;
type = TopGhost;
},
{
horizontal = 1;
place = (780,51);
type = Stem;
},
{
horizontal = 1;
place = (721,59);
type = Stem;
},
{
horizontal = 1;
place = (-10,60);
type = Stem;
},
{
horizontal = 1;
place = (0,21);
target = up;
type = BottomGhost;
},
{
place = (45,189);
type = Stem;
}
);
layerId = m01;
shapes = (
{
closed = 1;
nodes = (
(480,831,o),
(499,842,o),
(526,864,cs),
(630,948,l),
(614,970,l),
(457,929,l),
(300,970,l),
(284,948,l),
(386,864,ls),
(413,842,o),
(432,831,o),
(458,831,cs)
);
},
{
ref = C;
}
);
width = 813;
}
);
note = Ccaron;
unicode = 268;
},
{
glyphname = Ccedilla;
kernLeft = C;
lastChange = "2024-01-06 19:16:31 +0000";
layers = (
{
hints = (
{
horizontal = 1;
place = (770,-20);
target = down;
type = TopGhost;
},
{
horizontal = 1;
place = (721,59);
type = Stem;
},
{
horizontal = 1;
place = (-9,59);
type = Stem;
},
{
horizontal = 1;
place = (-135,77);
type = Stem;
},
{
horizontal = 1;
place = (-257,55);
type = Stem;
},
{
horizontal = 1;
place = (0,21);
target = up;
type = BottomGhost;
},
{
place = (453,105);
type = Stem;
},
{
place = (45,189);
type = Stem;
}
);
layerId = m01;
shapes = (
{
closed = 1;
nodes = (
(328,-233,l),
(349,-248,o),
(387,-257,o),
(426,-257,cs),
(507,-257,o),
(558,-214,o),
(558,-156,cs),
(558,-100,o),
(514,-58,o),
(443,-58,c),
(461,-9,l),
(404,-9,l),
(355,-134,l),
(369,-143,l),
(382,-138,o),
(402,-135,o),
(415,-135,cs),
(438,-135,o),
(453,-147,o),
(453,-165,cs),
(453,-184,o),
(432,-202,o),
(401,-202,cs),
(384,-202,o),
(366,-198,o),
(347,-188,c)
);
},
{
ref = C;
}
);
width = 813;
}
);
note = Ccedilla;
unicode = 199;
},
{
glyphname = Ccircumflex;
kernLeft = C;
lastChange = "2024-01-06 19:16:33 +0000";
layers = (
{
hints = (
{
horizontal = 1;
place = (770,-20);
target = down;
type = TopGhost;
},
{
horizontal = 1;
place = (721,239);
type = Stem;
},
{
horizontal = 1;
place = (721,59);
type = Stem;
},
{
horizontal = 1;
place = (-10,60);
type = Stem;
},
{
horizontal = 1;
place = (0,21);
target = up;
type = BottomGhost;
},
{
place = (45,189);
type = Stem;
}
);
layerId = m01;
shapes = (
{
closed = 1;
nodes = (
(420,960,o),
(401,949,o),
(374,927,cs),
(272,843,l),
(288,821,l),
(445,862,l),
(602,821,l),
(618,843,l),
(514,927,ls),
(487,949,o),
(468,960,o),
(446,960,cs)
);
},
{
ref = C;
}
);
width = 813;
}
);
note = Ccircumflex;
unicode = 264;
},
{
glyphname = Cdotaccent;
kernLeft = C;
lastChange = "2024-01-06 19:16:35 +0000";
layers = (
{
hints = (
{
horizontal = 1;
place = (770,-20);
target = down;
type = TopGhost;
},
{
horizontal = 1;
place = (830,136);
type = Stem;
},
{
horizontal = 1;
place = (721,59);
type = Stem;
},
{
horizontal = 1;
place = (-10,60);
type = Stem;
},
{
horizontal = 1;
place = (0,21);
target = up;
type = BottomGhost;
},
{
place = (377,144);
type = Stem;
},
{
place = (45,189);
type = Stem;
}
);
layerId = m01;
shapes = (
{
closed = 1;
nodes = (
(377,863,o),
(402,830,o),
(448,830,cs),
(496,830,o),
(521,863,o),
(521,898,cs),
(521,933,o),
(493,966,o),
(448,966,cs),
(403,966,o),
(377,933,o),
(377,898,cs)
);
},
{
ref = C;
}
);
width = 813;
}
);
note = Cdotaccent;
unicode = 266;
},
{
glyphname = Dcaron;
kernLeft = B;
kernRight = D;
lastChange = "2024-01-06 19:16:43 +0000";
layers = (
{
hints = (
{
horizontal = 1;
place = (960,-20);
target = down;
type = TopGhost;
},
{
horizontal = 1;
place = (770,51);
type = Stem;
},
{
horizontal = 1;
place = (714,56);
type = Stem;
},
{
horizontal = 1;
place = (0,54);
type = Stem;
},
{
place = (640,192);
type = Stem;
},
{
place = (127,172);
type = Stem;
}
);
layerId = m01;
shapes = (
{
closed = 1;
nodes = (
(446,821,o),
(465,832,o),
(492,854,cs),
(596,938,l),
(580,960,l),
(423,919,l),
(266,960,l),
(250,938,l),
(352,854,ls),
(379,832,o),
(398,821,o),
(424,821,cs)
);
},
{
ref = D;
}
);
width = 878;
}
);
note = Dcaron;
unicode = 270;
},
{
glyphname = Dcroat;
kernLeft = B;
kernRight = D;
lastChange = "2024-01-06 19:16:51 +0000";
layers = (
{
hints = (
{
horizontal = 1;
place = (714,56);
type = Stem;
},
{
horizontal = 1;
place = (354,85);
type = Stem;
},
{
horizontal = 1;
place = (0,54);
type = Stem;
},
{
place = (640,192);
type = Stem;
},
{
place = (127,172);
type = Stem;
}
);
layerId = m01;
shapes = (
{
closed = 1;
nodes = (
(439,354,l),
(439,439,l),
(52,439,l),
(52,354,l)
);
},
{
ref = D;
}
);
width = 878;
}
);
note = Dcroat;
unicode = 272;
},
{
glyphname = Ddotbelow;
kernLeft = B;
kernRight = D;
lastChange = "2024-01-06 19:16:55 +0000";
layers = (
{
hints = (
{
horizontal = 1;
place = (714,56);
type = Stem;
},
{
horizontal = 1;
place = (0,54);
type = Stem;
},
{
horizontal = 1;
place = (-260,165);
type = Stem;
},
{
place = (640,192);
type = Stem;
},
{
place = (328,175);
type = Stem;
},
{
place = (127,172);
type = Stem;
}
);
layerId = m01;
shapes = (
{
closed = 1;
nodes = (
(328,-219,o),
(358,-260,o),
(414,-260,cs),
(473,-260,o),
(503,-219,o),
(503,-178,cs),
(503,-134,o),
(469,-95,o),
(414,-95,cs),
(360,-95,o),
(328,-134,o),
(328,-178,cs)
);
},
{
ref = D;
}
);
width = 878;
}
);
note = Ddotbelow;
unicode = 7692;
},
{
glyphname = E;
kernLeft = B;
kernRight = AE;
lastChange = "2024-01-06 19:17:45 +0000";
layers = (
{
hints = (
{
horizontal = 1;
place = (550,-20);
target = down;
type = TopGhost;
},
{
horizontal = 1;
place = (547,-20);
target = down;
type = TopGhost;
},
{
horizontal = 1;
place = (713,57);
type = Stem;
},
{
horizontal = 1;
place = (380,54);
type = Stem;
},
{
horizontal = 1;
place = (0,57);
type = Stem;
},
{
place = (127,172);
type = Stem;
}
);
layerId = m01;
shapes = (
{
closed = 1;
nodes = (
(42,37,l),
(42,0,l),
(127,0,l),
(127,56,l)
);
},
{
closed = 1;
nodes = (
(42,770,l),
(42,733,l),
(127,714,l),
(127,770,l)
);
},
{
closed = 1;
nodes = (
(446,343,o),
(460,304,o),
(468,267,c),
(510,267,l),
(510,547,l),
(468,547,l),
(460,510,o),
(447,471,o),
(425,434,c),
(425,380,l)
);
},
{
closed = 1;
nodes = (
(588,661,o),
(613,602,o),
(631,550,c),
(673,550,l),
(654,770,l),
(555,770,l),
(554,713,l)
);
},
{
closed = 1;
nodes = (
(591,116,o),
(615,175,o),
(639,234,c),
(691,234,l),
(649,0,l),
(548,0,l),
(548,57,l)
);
}
);
width = 731;
}
);
note = E;
unicode = 69;
},
{
glyphname = Eacute;
kernLeft = B;
kernRight = AE;
lastChange = "2024-01-06 19:17:49 +0000";
layers = (
{
hints = (
{
horizontal = 1;
place = (550,-20);
target = down;
type = TopGhost;
},
{
horizontal = 1;
place = (547,-20);
target = down;
type = TopGhost;
},
{
horizontal = 1;
place = (713,250);
type = Stem;
},
{
horizontal = 1;
place = (713,57);
type = Stem;
},
{
horizontal = 1;
place = (380,54);
type = Stem;
},
{
horizontal = 1;
place = (0,57);
type = Stem;
},
{
place = (127,172);
type = Stem;
}
);
layerId = m01;
shapes = (
{
closed = 1;
nodes = (
(284,817,l),
(449,849,ls),
(491,857,o),
(508,884,o),
(508,909,cs),
(508,937,o),
(487,963,o),
(453,963,cs),
(436,963,o),
(415,956,o),
(392,939,cs),
(267,845,l)
);
},
{
ref = E;
}
);
width = 731;
}
);
note = Eacute;
unicode = 201;
},
{
glyphname = Ebreve;
kernLeft = B;
kernRight = AE;
lastChange = "2024-01-06 19:17:52 +0000";
layers = (
{
hints = (
{
horizontal = 1;
place = (550,-20);
target = down;
type = TopGhost;
},
{
horizontal = 1;
place = (547,-20);
target = down;
type = TopGhost;
},
{
horizontal = 1;
place = (829,136);
type = Stem;
},
{
horizontal = 1;
place = (829,104);
type = Stem;
},
{
horizontal = 1;
place = (713,57);
type = Stem;
},
{
horizontal = 1;
place = (380,54);
type = Stem;
},
{
horizontal = 1;
place = (0,57);
type = Stem;
},
{
place = (127,172);
type = Stem;
}
);
layerId = m01;
shapes = (
{
closed = 1;
nodes = (
(225,965,l),
(237,863,o),
(310,829,o),
(372,829,cs),
(418,829,o),
(495,843,o),
(529,965,c),
(480,965,l),
(458,942,o),
(418,933,o),
(376,933,cs),
(332,933,o),
(291,942,o),
(275,965,c)
);
},
{
ref = E;
}
);
width = 731;
}
);
note = Ebreve;
unicode = 276;
},
{
glyphname = Ecaron;
kernLeft = B;
kernRight = AE;
lastChange = "2024-01-06 19:17:54 +0000";
layers = (
{
hints = (
{
horizontal = 1;
place = (960,-20);
target = down;
type = TopGhost;
},
{
horizontal = 1;
place = (550,-20);
target = down;
type = TopGhost;
},
{
horizontal = 1;
place = (547,-20);
target = down;
type = TopGhost;
},
{
horizontal = 1;
place = (770,51);
type = Stem;
},
{
horizontal = 1;
place = (713,57);
type = Stem;
},
{
horizontal = 1;
place = (380,54);
type = Stem;
},
{
horizontal = 1;
place = (0,57);
type = Stem;
},
{
place = (127,172);
type = Stem;
}
);
layerId = m01;
shapes = (
{
closed = 1;
nodes = (
(404,821,o),
(423,832,o),
(450,854,cs),
(554,938,l),
(538,960,l),
(381,919,l),
(224,960,l),
(208,938,l),
(310,854,ls),
(337,832,o),
(356,821,o),
(382,821,cs)
);
},
{
ref = E;
}
);
width = 731;
}
);
note = Ecaron;
unicode = 282;
},
{
glyphname = Ecircumflex;
kernLeft = B;
kernRight = AE;
lastChange = "2024-01-06 19:17:56 +0000";
layers = (
{
hints = (
{
horizontal = 1;
place = (550,-20);
target = down;
type = TopGhost;
},
{
horizontal = 1;
place = (547,-20);
target = down;
type = TopGhost;
},
{
horizontal = 1;
place = (713,247);
type = Stem;
},
{
horizontal = 1;
place = (713,57);
type = Stem;
},
{
horizontal = 1;
place = (380,54);
type = Stem;
},
{
horizontal = 1;
place = (0,57);
type = Stem;
},
{
place = (127,172);
type = Stem;
}
);
layerId = m01;
shapes = (
{
closed = 1;
nodes = (
(354,960,o),
(335,949,o),
(308,927,cs),
(206,843,l),
(222,821,l),
(379,862,l),
(536,821,l),
(552,843,l),
(448,927,ls),
(421,949,o),
(402,960,o),
(380,960,cs)
);
},
{
ref = E;
}
);
width = 731;
}
);
note = Ecircumflex;
unicode = 202;
},
{
glyphname = Edieresis;
kernLeft = B;
kernRight = AE;
lastChange = "2024-01-06 19:17:58 +0000";
layers = (
{
hints = (
{
horizontal = 1;
place = (550,-20);
target = down;
type = TopGhost;
},
{
horizontal = 1;
place = (547,-20);
target = down;
type = TopGhost;
},
{
horizontal = 1;
place = (830,136);
type = Stem;
},
{
horizontal = 1;
place = (713,57);
type = Stem;
},
{
horizontal = 1;
place = (380,54);
type = Stem;
},
{
horizontal = 1;
place = (0,57);
type = Stem;
},
{
place = (402,144);
type = Stem;
},
{
place = (195,144);
type = Stem;
},
{
place = (127,172);
type = Stem;
}
);
layerId = m01;
shapes = (
{
closed = 1;
nodes = (
(195,865,o),
(219,830,o),
(266,830,cs),
(314,830,o),
(339,865,o),
(339,897,cs),
(339,933,o),
(311,966,o),
(266,966,cs),
(221,966,o),
(195,933,o),
(195,897,cs)
);
},
{
closed = 1;
nodes = (
(402,865,o),
(427,830,o),
(473,830,cs),
(522,830,o),
(546,865,o),
(546,897,cs),
(546,933,o),
(518,966,o),
(473,966,cs),
(428,966,o),
(402,933,o),
(402,897,cs)
);
},
{
ref = E;
}
);
width = 731;
}
);
note = Edieresis;
unicode = 203;
},
{
glyphname = Edotaccent;
kernLeft = B;
kernRight = AE;
lastChange = "2024-01-06 19:18:01 +0000";
layers = (
{
hints = (
{
horizontal = 1;
place = (550,-20);
target = down;
type = TopGhost;
},
{
horizontal = 1;
place = (547,-20);
target = down;
type = TopGhost;
},
{
horizontal = 1;
place = (830,136);
type = Stem;
},
{
horizontal = 1;
place = (713,57);
type = Stem;
},
{
horizontal = 1;
place = (380,54);
type = Stem;
},
{
horizontal = 1;
place = (0,57);
type = Stem;
},
{
place = (310,144);
type = Stem;
},
{
place = (127,172);
type = Stem;
}
);
layerId = m01;
shapes = (
{
closed = 1;
nodes = (
(310,863,o),
(335,830,o),
(381,830,cs),
(429,830,o),
(454,863,o),
(454,898,cs),
(454,933,o),
(426,966,o),
(381,966,cs),
(336,966,o),
(310,933,o),
(310,898,cs)
);
},
{
ref = E;
}
);
width = 731;
}
);
note = Edotaccent;
unicode = 278;
},
{
glyphname = Edotbelow;
kernLeft = B;
kernRight = AE;
lastChange = "2024-01-06 19:18:02 +0000";
layers = (
{
hints = (
{
horizontal = 1;
place = (550,-20);
target = down;
type = TopGhost;
},
{
horizontal = 1;
place = (547,-20);
target = down;
type = TopGhost;
},
{
horizontal = 1;
place = (713,57);
type = Stem;
},
{
horizontal = 1;
place = (380,54);
type = Stem;
},
{
horizontal = 1;
place = (0,57);
type = Stem;
},
{
horizontal = 1;
place = (-260,165);
type = Stem;
},
{
place = (297,175);
type = Stem;
},
{
place = (127,172);
type = Stem;
}
);
layerId = m01;
shapes = (
{
closed = 1;
nodes = (
(297,-219,o),
(327,-260,o),
(383,-260,cs),
(442,-260,o),
(472,-219,o),
(472,-178,cs),
(472,-134,o),
(438,-95,o),
(383,-95,cs),
(329,-95,o),
(297,-134,o),
(297,-178,cs)
);
},
{
ref = E;
}
);
width = 731;
}
);
note = Edotbelow;
unicode = 7864;
},
{
glyphname = Egrave;
kernLeft = B;
kernRight = AE;
lastChange = "2024-01-06 19:18:05 +0000";
layers = (
{
hints = (
{
horizontal = 1;
place = (550,-20);
target = down;
type = TopGhost;
},
{
horizontal = 1;
place = (547,-20);
target = down;
type = TopGhost;
},
{
horizontal = 1;
place = (713,250);
type = Stem;
},
{
horizontal = 1;
place = (713,57);
type = Stem;
},
{
horizontal = 1;
place = (380,54);
type = Stem;
},
{
horizontal = 1;
place = (0,57);
type = Stem;
},
{
place = (127,172);
type = Stem;
}
);
layerId = m01;
shapes = (
{
closed = 1;
nodes = (
(477,845,l),
(352,939,ls),
(329,956,o),
(308,963,o),
(291,963,cs),
(257,963,o),
(236,937,o),
(236,909,cs),
(236,884,o),
(253,857,o),
(295,849,cs),
(460,817,l)
);
},
{
ref = E;
}
);
width = 731;
}
);
note = Egrave;
unicode = 200;
},
{
glyphname = Emacron;
kernLeft = B;
kernRight = AE;
lastChange = "2024-01-06 19:18:07 +0000";
layers = (
{
hints = (
{
horizontal = 1;
place = (550,-20);
target = down;
type = TopGhost;
},
{
horizontal = 1;
place = (547,-20);
target = down;
type = TopGhost;
},
{
horizontal = 1;
place = (864,96);
type = Stem;
},
{
horizontal = 1;
place = (713,57);
type = Stem;
},
{
horizontal = 1;
place = (380,54);
type = Stem;
},
{
horizontal = 1;
place = (0,57);
type = Stem;
},
{
place = (127,172);
type = Stem;
}
);
layerId = m01;
shapes = (
{
closed = 1;
nodes = (
(534,864,l),
(534,960,l),
(227,960,l),
(227,864,l)
);
},
{
ref = E;
}
);
width = 731;
}
);
note = Emacron;
unicode = 274;
},
{
glyphname = Eng;
kernLeft = Eng;
kernRight = Eng;
lastChange = "2024-01-06 19:18:33 +0000";
layers = (
{
hints = (
{
horizontal = 1;
place = (770,-20);
target = down;
type = TopGhost;
},
{
horizontal = 1;
place = (-260,183);
type = Stem;
},
{
horizontal = 1;
place = (-260,57);
type = Stem;
},
{
horizontal = 1;
place = (0,21);
target = up;
type = BottomGhost;
},
{
place = (689,69);
type = Stem;
},
{
place = (586,172);
type = Stem;
},
{
place = (128,69);
type = Stem;
}
);
layerId = m01;
shapes = (
{
closed = 1;
nodes = (
(489,-203,o),
(473,-184,o),
(458,-139,cs),
(445,-103,o),
(425,-77,o),
(385,-77,cs),
(345,-77,o),
(313,-103,o),
(313,-153,cs),
(313,-218,o),
(374,-260,o),
(482,-260,c),
(514,-203,l)
);
},
{
closed = 1;
nodes = (
(39,37,l),
(39,0,l),
(285,0,l),
(285,37,l),
(197,56,l),
(128,56,l)
);
},
{
closed = 1;
nodes = (
(847,733,l),
(847,770,l),
(601,770,l),
(601,733,l),
(689,714,l),
(758,714,l)
);
},
{
closed = 1;
nodes = (
(40,770,l),
(40,733,l),
(128,714,l),
(129,770,l)
);
}
);
width = 877;
}
);
note = Eng;
unicode = 330;
},
{
glyphname = Eogonek;
kernLeft = B;
kernRight = AE;
lastChange = "2024-01-06 19:19:09 +0000";
layers = (
{
hints = (
{
horizontal = 1;
place = (550,-20);
target = down;
type = TopGhost;
},
{
horizontal = 1;
place = (547,-20);
target = down;
type = TopGhost;
},
{
horizontal = 1;
place = (713,57);
type = Stem;
},
{
horizontal = 1;
place = (380,54);
type = Stem;
},
{
horizontal = 1;
place = (0,57);
type = Stem;
},
{
horizontal = 1;
place = (-256,75);
type = Stem;
},
{
place = (410,113);
type = Stem;
},
{
place = (127,172);
type = Stem;
},
{
horizontal = 1;
place = (550,-20);
target = down;
type = TopGhost;
},
{
horizontal = 1;
place = (547,-20);
target = down;
type = TopGhost;
},
{
horizontal = 1;
place = (713,57);
type = Stem;
},
{
horizontal = 1;
place = (380,54);
type = Stem;
},
{
horizontal = 1;
place = (0,57);
type = Stem;
},
{
place = (127,172);
type = Stem;
}
);
layerId = m01;
shapes = (
{
closed = 1;
nodes = (
(563,-256,o),
(604,-239,o),
(642,-202,c),
(627,-160,l),
(605,-175,o),
(590,-181,o),
(571,-181,cs),
(539,-181,o),
(523,-162,o),
(523,-124,cs),
(523,-88,o),
(543,-47,o),
(586,0,c),
(548,57,l),
(524,0,l),
(453,-54,o),
(410,-116,o),
(410,-168,cs),
(410,-222,o),
(450,-256,o),
(512,-256,cs)
);
},
{
closed = 1;
nodes = (
(127,0,l),
(127,56,l),
(42,37,l),
(42,0,l)
);
},
{
closed = 1;
nodes = (
(649,0,l),
(691,234,l),
(639,234,l),
(615,175,o),
(591,116,o),
(548,57,c),
(548,0,l)
);
},
{
closed = 1;
nodes = (
(127,770,l),
(42,770,l),
(42,733,l),
(127,714,l)
);
},
{
closed = 1;
nodes = (
(510,267,l),
(510,547,l),
(468,547,l),
(460,510,o),
(447,471,o),
(425,434,c),
(425,380,l),
(446,343,o),
(460,304,o),
(468,267,c)
);
},
{
closed = 1;
nodes = (
(673,550,l),
(654,770,l),
(555,770,l),
(554,713,l),
(588,661,o),
(613,602,o),
(631,550,c)
);
}
);
width = 731;
}
);
note = Eogonek;
unicode = 280;
},
{
glyphname = Etilde;
kernLeft = B;
kernRight = AE;
lastChange = "2024-01-06 19:19:38 +0000";
layers = (
{
hints = (
{
horizontal = 1;
place = (965,-20);
target = down;
type = TopGhost;
},
{
horizontal = 1;
place = (821,-20);
target = down;
type = TopGhost;
},
{
horizontal = 1;
place = (550,-20);
target = down;
type = TopGhost;
},
{
horizontal = 1;
place = (547,-20);
target = down;
type = TopGhost;
},
{
horizontal = 1;
place = (859,104);
type = Stem;
},
{
horizontal = 1;
place = (859,68);
type = Stem;
},
{
horizontal = 1;
place = (820,107);
type = Stem;
},
{
horizontal = 1;
place = (713,57);
type = Stem;
},
{
horizontal = 1;
place = (380,54);
type = Stem;
},
{
horizontal = 1;
place = (0,57);
type = Stem;
},
{
place = (127,172);
type = Stem;
}
);
layerId = m01;
shapes = (
{
closed = 1;
nodes = (
(253,821,l),
(257,844,o),
(279,859,o),
(314,859,cs),
(364,859,o),
(383,820,o),
(439,820,cs),
(507,820,o),
(541,873,o),
(541,965,c),
(502,965,l),
(496,941,o),
(474,927,o),
(442,927,cs),
(396,927,o),
(373,963,o),
(321,963,cs),
(259,963,o),
(214,915,o),
(214,821,c)
);
},
{
ref = Dcroat;
}
);
width = 731;
}
);
note = Etilde;
unicode = 7868;
},
{
glyphname = Euro;
lastChange = "2024-01-06 19:20:30 +0000";
layers = (
{
hints = (
{
horizontal = 1;
place = (720,60);
type = Stem;
},
{
horizontal = 1;
place = (572,208);
type = Stem;
},
{
horizontal = 1;
place = (411,64);
type = Stem;
},
{
horizontal = 1;
place = (290,64);
type = Stem;
},
{
horizontal = 1;
place = (-10,217);
type = Stem;
},
{
horizontal = 1;
place = (-10,59);
type = Stem;
}
);
layerId = m01;
shapes = (
{
closed = 1;
nodes = (
(436,49,o),
(452,97,o),
(463,139,cs),
(469,162,o),
(481,207,o),
(533,207,cs),
(568,207,o),
(588,186,o),
(588,145,cs),
(588,58,o),
(499,-10,o),
(391,-10,c),
(386,49,l)
);
},
{
closed = 1;
nodes = (
(500,780,o),
(588,714,o),
(588,633,cs),
(588,594,o),
(567,572,o),
(534,572,cs),
(490,572,o),
(475,609,o),
(468,640,cs),
(456,691,o),
(440,720,o),
(397,720,c),
(395,780,l)
);
},
{
closed = 1;
nodes = (
(44,354,l),
(34,290,l),
(465,290,l),
(475,354,l)
);
},
{
closed = 1;
nodes = (
(64,475,l),
(54,411,l),
(485,411,l),
(495,475,l)
);
}
);
width = 643;
}
);
note = Euro;
unicode = 8364;
},
{
glyphname = Euro.tnum;
lastChange = "2024-01-06 19:22:10 +0000";
layers = (
{
hints = (
{
horizontal = 1;
place = (720,60);
type = Stem;
},
{
horizontal = 1;
place = (572,208);
type = Stem;
},
{
horizontal = 1;
place = (411,64);
type = Stem;
},
{
horizontal = 1;
place = (290,64);
type = Stem;
},
{
horizontal = 1;
place = (-10,217);
type = Stem;
},
{
horizontal = 1;
place = (-10,59);
type = Stem;
}
);
layerId = m01;
shapes = (
{
closed = 1;
nodes = (
(465,-10,o),
(554,58,o),
(554,145,cs),
(554,186,o),
(534,207,o),
(499,207,cs),
(447,207,o),
(435,162,o),
(429,139,cs),
(418,97,o),
(402,49,o),
(352,49,c),
(357,-10,l)
);
},
{
closed = 1;
nodes = (
(431,290,l),
(441,354,l),
(10,354,l),
(0,290,l)
);
},
{
closed = 1;
nodes = (
(451,411,l),
(461,475,l),
(30,475,l),
(20,411,l)
);
},
{
closed = 1;
nodes = (
(466,780,o),
(554,714,o),
(554,633,cs),
(554,594,o),
(533,572,o),
(500,572,cs),
(456,572,o),
(441,609,o),
(434,640,cs),
(422,691,o),
(406,720,o),
(363,720,c),
(361,780,l)
);
}
);
width = 600;
}
);
note = Euro.tnum;
},
{
glyphname = F;
kernLeft = B;
lastChange = "2024-01-06 19:22:34 +0000";
layers = (
{
hints = (
{
horizontal = 1;
place = (550,-20);
target = down;
type = TopGhost;
},
{
horizontal = 1;
place = (547,-20);
target = down;
type = TopGhost;
},
{
horizontal = 1;
place = (713,57);
type = Stem;
},
{
horizontal = 1;
place = (381,53);
type = Stem;
},
{
horizontal = 1;
place = (0,21);
target = up;
type = BottomGhost;
},
{
place = (127,171);
type = Stem;
}
);
layerId = m01;
shapes = (
{
closed = 1;
nodes = (
(42,37,l),
(42,0,l),
(412,0,l),
(412,37,l),
(298,56,l),
(127,56,l)
);
},
{
closed = 1;
nodes = (
(42,770,l),
(42,733,l),
(127,714,l),
(127,770,l)
);
},
{
closed = 1;
nodes = (
(593,661,o),
(616,602,o),
(632,550,c),
(671,550,l),
(654,770,l),
(559,770,l),
(560,713,l)
);
},
{
closed = 1;
nodes = (
(451,343,o),
(463,305,o),
(470,267,c),
(509,267,l),
(509,547,l),
(470,547,l),
(463,509,o),
(452,472,o),
(433,434,c),
(433,381,l)
);
}
);
width = 684;
}
);
note = F;
unicode = 70;
},
{
glyphname = G;
kernLeft = G;
kernRight = G;
lastChange = "2024-01-06 19:22:59 +0000";
layers = (
{
hints = (
{
horizontal = 1;
place = (770,-20);
target = down;
type = TopGhost;
},
{
horizontal = 1;
place = (720,60);
type = Stem;
},
{
horizontal = 1;
place = (-10,58);
type = Stem;
},
{
place = (577,172);
type = Stem;
},
{
place = (45,192);
type = Stem;
}
);
layerId = m01;
shapes = (
{
closed = 1;
nodes = (
(838,349,l),
(838,386,l),
(487,386,l),
(487,349,l),
(577,330,l),
(749,330,l)
);
},
{
closed = 1;
nodes = (
(671,719,l),
(715,770,l),
(747,770,l),
(747,525,l),
(702,525,l),
(672,587,o),
(643,632,o),
(612,663,c),
(667,719,l)
);
}
);
width = 855;
}
);
note = G;
unicode = 71;
},
{
glyphname = Gbreve;
kernLeft = G;
kernRight = G;
lastChange = "2024-01-06 19:23:04 +0000";
layers = (
{
hints = (
{
horizontal = 1;
place = (770,-20);
target = down;
type = TopGhost;
},
{
horizontal = 1;
place = (829,136);
type = Stem;
},
{
horizontal = 1;
place = (829,104);
type = Stem;
},
{
horizontal = 1;
place = (720,60);
type = Stem;
},
{
horizontal = 1;
place = (-10,58);
type = Stem;
},
{
place = (577,172);
type = Stem;
},
{
place = (45,192);
type = Stem;
}
);
layerId = m01;
shapes = (
{
closed = 1;
nodes = (
(296,965,l),
(308,863,o),
(381,829,o),
(443,829,cs),
(489,829,o),
(566,843,o),
(600,965,c),
(551,965,l),
(529,942,o),
(489,933,o),
(447,933,cs),
(403,933,o),
(362,942,o),
(346,965,c)
);
},
{
ref = G;
}
);
width = 855;
}
);
note = Gbreve;
unicode = 286;
},
{
glyphname = Gcircumflex;
kernLeft = G;
kernRight = G;
lastChange = "2024-01-06 19:23:06 +0000";
layers = (
{
hints = (
{
horizontal = 1;
place = (770,-20);
target = down;
type = TopGhost;
},
{
horizontal = 1;
place = (720,240);
type = Stem;
},
{
horizontal = 1;
place = (720,60);
type = Stem;
},
{
horizontal = 1;
place = (-10,58);
type = Stem;
},
{
place = (577,172);
type = Stem;
},
{
place = (45,192);
type = Stem;
}
);
layerId = m01;
shapes = (
{
closed = 1;
nodes = (
(421,960,o),
(402,949,o),
(375,927,cs),
(273,843,l),
(289,821,l),
(446,862,l),
(603,821,l),
(619,843,l),
(515,927,ls),
(488,949,o),
(469,960,o),
(447,960,cs)
);
},
{
ref = G;
}
);
width = 855;
}
);
note = Gcircumflex;
unicode = 284;
},
{
glyphname = Gcommaaccent;
kernLeft = G;
kernRight = G;
lastChange = "2024-01-06 19:23:11 +0000";
layers = (
{
hints = (
{
horizontal = 1;
place = (770,-20);
target = down;
type = TopGhost;
},
{
horizontal = 1;
place = (720,60);
type = Stem;
},
{
horizontal = 1;
place = (-10,58);
type = Stem;
},
{
horizontal = 1;
place = (-52,42);
type = Stem;
},
{
horizontal = 1;
place = (-260,21);
target = up;
type = BottomGhost;
},
{
place = (577,172);
type = Stem;
},
{
place = (410,88);
type = Stem;
},
{
place = (363,135);
type = Stem;
},
{
place = (45,192);
type = Stem;
}
);
layerId = m01;
shapes = (
{
closed = 1;
nodes = (
(399,-260,l),
(462,-233,o),
(498,-186,o),
(498,-130,cs),
(498,-82,o),
(472,-52,o),
(430,-52,cs),
(391,-52,o),
(363,-75,o),
(363,-105,cs),
(363,-148,o),
(410,-149,o),
(410,-178,cs),
(410,-193,o),
(396,-217,o),
(376,-236,c)
);
},
{
ref = G;
}
);
width = 855;
}
);
note = Gcommaaccent;
unicode = 290;
},
{
glyphname = Gdotaccent;
kernLeft = G;
kernRight = G;
lastChange = "2024-01-06 19:23:14 +0000";
layers = (
{
hints = (
{
horizontal = 1;
place = (770,-20);
target = down;
type = TopGhost;
},
{
horizontal = 1;
place = (830,136);
type = Stem;
},
{
horizontal = 1;
place = (720,60);
type = Stem;
},
{
horizontal = 1;
place = (-10,58);
type = Stem;
},
{
place = (577,172);
type = Stem;
},
{
place = (379,144);
type = Stem;
},
{
place = (45,192);
type = Stem;
}
);
layerId = m01;
shapes = (
{
closed = 1;
nodes = (
(379,863,o),
(404,830,o),
(450,830,cs),
(498,830,o),
(523,863,o),
(523,898,cs),
(523,933,o),
(495,966,o),
(450,966,cs),
(405,966,o),
(379,933,o),
(379,898,cs)
);
},
{
ref = G;
}
);
width = 855;
}
);
note = Gdotaccent;
unicode = 288;
},
{
glyphname = H;
kernLeft = B;
kernRight = H;
lastChange = "2024-01-06 19:23:34 +0000";
layers = (
{
hints = (
{
horizontal = 1;
place = (770,-20);
target = down;
type = TopGhost;
},
{
horizontal = 1;
place = (378,57);
type = Stem;
},
{
horizontal = 1;
place = (0,21);
target = up;
type = BottomGhost;
},
{
place = (625,172);
type = Stem;
},
{
place = (127,172);
type = Stem;
}
);
layerId = m01;
shapes = (
{
closed = 1;
nodes = (
(881,37,l),
(881,0,l),
(540,0,l),
(540,37,l),
(625,58,l),
(797,58,l)
);
},
{
closed = 1;
nodes = (
(540,733,l),
(540,770,l),
(881,770,l),
(881,733,l),
(797,713,l),
(625,713,l)
);
},
{
closed = 1;
nodes = (
(42,733,l),
(42,770,l),
(383,770,l),
(383,733,l),
(299,713,l),
(127,713,l)
);
},
{
closed = 1;
nodes = (
(383,37,l),
(383,0,l),
(42,0,l),
(42,37,l),
(127,58,l),
(299,58,l)
);
}
);
width = 923;
}
);
note = H;
unicode = 72;
},
{
glyphname = Hbar;
kernLeft = B;
kernRight = H;
lastChange = "2024-01-06 19:23:39 +0000";
layers = (
{
hints = (
{
horizontal = 1;
place = (537,233);
type = Stem;
},
{
horizontal = 1;
place = (537,75);
type = Stem;
},
{
horizontal = 1;
place = (378,57);
type = Stem;
},
{
horizontal = 1;
place = (0,21);
target = up;
type = BottomGhost;
},
{
place = (626,172);
type = Stem;
},
{
place = (128,172);
type = Stem;
}
);
layerId = m01;
shapes = (
{
closed = 1;
nodes = (
(798,537,l),
(875,537,l),
(875,612,l),
(798,612,l),
(626,612,l),
(300,612,l),
(128,612,l),
(53,612,l),
(53,537,l),
(128,537,l)
);
},
{
closed = 1;
nodes = (
(300,537,l),
(626,537,l)
);
},
{
ref = H;
}
);
width = 925;
}
);
note = Hbar;
unicode = 294;
},
{
glyphname = Hcircumflex;
kernLeft = B;
kernRight = H;
lastChange = "2024-01-06 19:23:41 +0000";
layers = (
{
hints = (
{
horizontal = 1;
place = (960,-20);
target = down;
type = TopGhost;
},
{
horizontal = 1;
place = (770,-20);
target = down;
type = TopGhost;
},
{
horizontal = 1;
place = (378,57);
type = Stem;
},
{
horizontal = 1;
place = (0,21);
target = up;
type = BottomGhost;
},
{
place = (625,172);
type = Stem;
},
{
place = (127,172);
type = Stem;
}
);
layerId = m01;
shapes = (
{
closed = 1;
nodes = (
(435,960,o),
(416,949,o),
(389,927,cs),
(287,843,l),
(303,821,l),
(460,862,l),
(617,821,l),
(633,843,l),
(529,927,ls),
(502,949,o),
(483,960,o),
(461,960,cs)
);
},
{
ref = H;
}
);
width = 923;
}
);
note = Hcircumflex;
unicode = 292;
},
{
glyphname = Hdotbelow;
kernLeft = B;
kernRight = H;
lastChange = "2024-01-06 19:23:44 +0000";
layers = (
{
hints = (
{
horizontal = 1;
place = (770,-20);
target = down;
type = TopGhost;
},
{
horizontal = 1;
place = (378,57);
type = Stem;
},
{
horizontal = 1;
place = (-260,165);
type = Stem;
},
{
horizontal = 1;
place = (0,21);
target = up;
type = BottomGhost;
},
{
place = (625,172);
type = Stem;
},
{
place = (375,175);
type = Stem;
},
{
place = (127,172);
type = Stem;
}
);
layerId = m01;
shapes = (
{
closed = 1;
nodes = (
(375,-219,o),
(405,-260,o),
(461,-260,cs),
(520,-260,o),
(550,-219,o),
(550,-178,cs),
(550,-134,o),
(516,-95,o),
(461,-95,cs),
(407,-95,o),
(375,-134,o),
(375,-178,cs)
);
},
{
ref = H;
}
);
width = 923;
}
);
note = Hdotbelow;
unicode = 7716;
},
{
glyphname = I;
kernLeft = B;
kernRight = H;
lastChange = "2024-01-06 19:23:56 +0000";
layers = (
{
hints = (
{
horizontal = 1;
place = (770,-20);
target = down;
type = TopGhost;
},
{
horizontal = 1;
place = (0,21);
target = up;
type = BottomGhost;
},
{
place = (127,172);
type = Stem;
}
);
layerId = m01;
shapes = (
{
closed = 1;
nodes = (
(42,37,l),
(42,0,l),
(383,0,l),
(383,37,l),
(299,58,l),
(127,58,l)
);
},
{
closed = 1;
nodes = (
(383,733,l),
(383,770,l),
(42,770,l),
(42,733,l),
(127,713,l),
(299,713,l)
);
}
);
width = 425;
}
);
note = I;
unicode = 73;
},
{
glyphname = Iacute;
kernLeft = B;
kernRight = H;
lastChange = "2024-01-06 19:24:31 +0000";
layers = (
{
hints = (
{
horizontal = 1;
place = (965,-20);
target = down;
type = TopGhost;
},
{
horizontal = 1;
place = (770,-20);
target = down;
type = TopGhost;
},
{
horizontal = 1;
place = (0,21);
target = up;
type = BottomGhost;
},
{
place = (127,172);
type = Stem;
}
);
layerId = m01;
shapes = (
{
closed = 1;
nodes = (
(114,819,l),
(279,851,ls),
(321,859,o),
(338,886,o),
(338,911,cs),
(338,939,o),
(317,965,o),
(283,965,cs),
(266,965,o),
(245,958,o),
(222,941,cs),
(97,847,l)
);
},
{
ref = I;
}
);
width = 425;
}
);
note = Iacute;
unicode = 205;
},
{
glyphname = Ibreve;
kernLeft = B;
kernRight = H;
lastChange = "2024-01-06 19:24:33 +0000";
layers = (
{
hints = (
{
horizontal = 1;
place = (770,-20);
target = down;
type = TopGhost;
},
{
horizontal = 1;
place = (829,136);
type = Stem;
},
{
horizontal = 1;
place = (829,104);
type = Stem;
},
{
horizontal = 1;
place = (0,21);
target = up;
type = BottomGhost;
},
{
place = (127,172);
type = Stem;
}
);
layerId = m01;
shapes = (
{
closed = 1;
nodes = (
(66,965,l),
(78,863,o),
(151,829,o),
(213,829,cs),
(259,829,o),
(336,843,o),
(370,965,c),
(321,965,l),
(299,942,o),
(259,933,o),
(217,933,cs),
(173,933,o),
(132,942,o),
(116,965,c)
);
},
{
ref = I;
}
);
width = 425;
}
);
note = Ibreve;
unicode = 300;
},
{
glyphname = Icircumflex;
kernLeft = B;
kernRight = H;
lastChange = "2024-01-06 19:24:36 +0000";
layers = (
{
hints = (
{
horizontal = 1;
place = (961,-20);
target = down;
type = TopGhost;
},
{
horizontal = 1;
place = (770,-20);
target = down;
type = TopGhost;
},
{
horizontal = 1;
place = (0,21);
target = up;
type = BottomGhost;
},
{
place = (127,172);
type = Stem;
}
);
layerId = m01;
shapes = (
{
closed = 1;
nodes = (
(191,961,o),
(172,950,o),
(145,928,cs),
(43,844,l),
(59,822,l),
(216,863,l),
(373,822,l),
(389,844,l),
(285,928,ls),
(258,950,o),
(239,961,o),
(217,961,cs)
);
},
{
ref = I;
}
);
width = 425;
}
);
note = Icircumflex;
unicode = 206;
},
{
glyphname = Idieresis;
kernLeft = B;
kernRight = H;
lastChange = "2024-01-06 19:24:38 +0000";
layers = (
{
hints = (
{
horizontal = 1;
place = (770,-20);
target = down;
type = TopGhost;
},
{
horizontal = 1;
place = (829,136);
type = Stem;
},
{
horizontal = 1;
place = (0,21);
target = up;
type = BottomGhost;
},
{
place = (244,139);
type = Stem;
},
{
place = (127,172);
type = Stem;
},
{
place = (42,139);
type = Stem;
}
);
layerId = m01;
shapes = (
{
closed = 1;
nodes = (
(37,864,o),
(61,829,o),
(108,829,cs),
(156,829,o),
(181,864,o),
(181,896,cs),
(181,932,o),
(153,965,o),
(108,965,cs),
(63,965,o),
(37,932,o),
(37,896,cs)
);
},
{
closed = 1;
nodes = (
(244,864,o),
(269,829,o),
(315,829,cs),
(364,829,o),
(388,864,o),
(388,896,cs),
(388,932,o),
(360,965,o),
(315,965,cs),
(270,965,o),
(244,932,o),
(244,896,cs)
);
},
{
ref = I;
}
);
width = 425;
}
);
note = Idieresis;
unicode = 207;
},
{
glyphname = Idotaccent;
kernLeft = B;
kernRight = H;
lastChange = "2024-01-06 19:24:40 +0000";
layers = (
{
hints = (
{
horizontal = 1;
place = (770,-20);
target = down;
type = TopGhost;
},
{
horizontal = 1;
place = (830,136);
type = Stem;
},
{
horizontal = 1;
place = (0,21);
target = up;
type = BottomGhost;
},
{
place = (143,144);
type = Stem;
},
{
place = (127,172);
type = Stem;
}
);
layerId = m01;
shapes = (
{
closed = 1;
nodes = (
(143,863,o),
(168,830,o),
(214,830,cs),
(262,830,o),
(287,863,o),
(287,898,cs),
(287,933,o),
(259,966,o),
(214,966,cs),
(169,966,o),
(143,933,o),
(143,898,cs)
);
},
{
ref = I;
}
);
width = 425;
}
);
note = Idotaccent;
unicode = 304;
},
{
glyphname = Idotbelow;
kernLeft = B;
kernRight = H;
lastChange = "2024-01-06 19:24:44 +0000";
layers = (
{
hints = (
{
horizontal = 1;
place = (770,-20);
target = down;
type = TopGhost;
},
{
horizontal = 1;
place = (-260,165);
type = Stem;
},
{
horizontal = 1;
place = (0,21);
target = up;
type = BottomGhost;
},
{
place = (127,172);
type = Stem;
}
);
layerId = m01;
shapes = (
{
closed = 1;
nodes = (
(127,-219,o),
(157,-260,o),
(213,-260,cs),
(272,-260,o),
(302,-219,o),
(302,-178,cs),
(302,-134,o),
(268,-95,o),
(213,-95,cs),
(159,-95,o),
(127,-134,o),
(127,-178,cs)
);
},
{
ref = I;
}
);
width = 425;
}
);
note = Idotbelow;
unicode = 7882;
},
{
glyphname = Igrave;
kernLeft = B;
kernRight = H;
lastChange = "2024-01-06 19:24:47 +0000";
layers = (
{
hints = (
{
horizontal = 1;
place = (963,-20);
target = down;
type = TopGhost;
},
{
horizontal = 1;
place = (770,-20);
target = down;
type = TopGhost;
},
{
horizontal = 1;
place = (0,21);
target = up;
type = BottomGhost;
},
{
place = (127,172);
type = Stem;
}
);
layerId = m01;
shapes = (
{
closed = 1;
nodes = (
(337,845,l),
(212,939,ls),
(189,956,o),
(168,963,o),
(151,963,cs),
(117,963,o),
(96,937,o),
(96,909,cs),
(96,884,o),
(113,857,o),
(155,849,cs),
(320,817,l)
);
},
{
ref = I;
}
);
width = 425;
}
);
note = Igrave;
unicode = 204;
},
{
glyphname = Imacron;
kernLeft = B;
kernRight = H;
lastChange = "2024-01-06 19:24:49 +0000";
layers = (
{
hints = (
{
horizontal = 1;
place = (770,-20);
target = down;
type = TopGhost;
},
{
horizontal = 1;
place = (864,96);
type = Stem;
},
{
horizontal = 1;
place = (0,21);
target = up;
type = BottomGhost;
},
{
place = (127,172);
type = Stem;
}
);
layerId = m01;
shapes = (
{
closed = 1;
nodes = (
(367,864,l),
(367,960,l),
(60,960,l),
(60,864,l)
);
},
{
ref = I;
}
);
width = 425;
}
);
note = Imacron;
unicode = 298;
},
{
glyphname = Iogonek;
kernLeft = B;
kernRight = H;
lastChange = "2024-01-06 19:24:53 +0000";
layers = (
{
hints = (
{
horizontal = 1;
place = (770,-20);
target = down;
type = TopGhost;
},
{
horizontal = 1;
place = (-256,75);
type = Stem;
},
{
horizontal = 1;
place = (0,21);
target = up;
type = BottomGhost;
},
{
place = (127,172);
type = Stem;
},
{
place = (66,113);
type = Stem;
}
);
layerId = m01;
shapes = (
{
closed = 1;
nodes = (
(283,-160,l),
(261,-175,o),
(246,-181,o),
(227,-181,cs),
(195,-181,o),
(179,-162,o),
(179,-124,cs),
(179,-88,o),
(199,-47,o),
(242,0,c),
(180,0,l),
(109,-54,o),
(66,-116,o),
(66,-168,cs),
(66,-222,o),
(106,-256,o),
(168,-256,cs),
(219,-256,o),
(260,-239,o),
(298,-202,c)
);
},
{
ref = I;
}
);
width = 425;
}
);
note = Iogonek;
unicode = 302;
},
{
glyphname = Itilde;
kernLeft = B;
kernRight = H;
lastChange = "2024-01-06 19:25:01 +0000";
layers = (
{
hints = (
{
horizontal = 1;
place = (965,-20);
target = down;
type = TopGhost;
},
{
horizontal = 1;
place = (821,-20);
target = down;
type = TopGhost;
},
{
horizontal = 1;
place = (770,-20);
target = down;
type = TopGhost;
},
{
horizontal = 1;
place = (859,104);
type = Stem;
},
{
horizontal = 1;
place = (859,68);
type = Stem;
},
{
horizontal = 1;
place = (820,107);
type = Stem;
},
{
horizontal = 1;
place = (0,21);
target = up;
type = BottomGhost;
},
{
place = (127,172);
type = Stem;
}
);
layerId = m01;
shapes = (
{
closed = 1;
nodes = (
(91,821,l),
(95,844,o),
(117,859,o),
(152,859,cs),
(202,859,o),
(221,820,o),
(277,820,cs),
(345,820,o),
(379,873,o),
(379,965,c),
(340,965,l),
(334,941,o),
(312,927,o),
(280,927,cs),
(234,927,o),
(211,963,o),
(159,963,cs),
(97,963,o),
(52,915,o),
(52,821,c)
);
},
{
ref = I;
}
);
width = 425;
}
);
note = Itilde;
unicode = 296;
},
{
glyphname = J;
kernLeft = J;
kernRight = IJ;
lastChange = "2024-01-06 19:24:17 +0000";
layers = (
{
hints = (
{
horizontal = 1;
place = (770,-20);
target = down;
type = TopGhost;
},
{
horizontal = 1;
place = (-260,183);
type = Stem;
},
{
horizontal = 1;
place = (-260,57);
type = Stem;
},
{
place = (119,172);
type = Stem;
}
);
layerId = m01;
shapes = (
{
closed = 1;
nodes = (
(-61,-260,o),
(-154,-236,o),
(-154,-153,cs),
(-154,-103,o),
(-122,-77,o),
(-82,-77,cs),
(-41,-77,o),
(-22,-103,o),
(-9,-139,cs),
(6,-184,o),
(23,-203,o),
(47,-203,c),
(15,-260,l)
);
},
{
closed = 1;
nodes = (
(375,733,l),
(375,770,l),
(34,770,l),
(34,733,l),
(119,713,l),
(291,713,l)
);
}
);
width = 409;
}
);
note = J;
unicode = 74;
},
{
glyphname = Jcircumflex;
kernLeft = J;
kernRight = IJ;
lastChange = "2024-01-06 19:25:05 +0000";
layers = (
{
hints = (
{
horizontal = 1;
place = (960,-20);
target = down;
type = TopGhost;
},
{
horizontal = 1;
place = (770,-20);
target = down;
type = TopGhost;
},
{
horizontal = 1;
place = (-260,183);
type = Stem;
},
{
horizontal = 1;
place = (-260,57);
type = Stem;
},
{
place = (119,172);
type = Stem;
}
);
layerId = m01;
shapes = (
{
closed = 1;
nodes = (
(183,960,o),
(164,949,o),
(137,927,cs),
(35,843,l),
(51,821,l),
(208,862,l),
(365,821,l),
(381,843,l),
(277,927,ls),
(250,949,o),
(231,960,o),
(209,960,cs)
);
},
{
ref = J;
}
);
width = 409;
}
);
note = Jcircumflex;
unicode = 308;
},
{
glyphname = K;
kernLeft = B;
kernRight = K;
lastChange = "2024-01-06 19:25:32 +0000";
layers = (
{
hints = (
{
horizontal = 1;
place = (734,36);
type = Stem;
},
{
horizontal = 1;
place = (0,21);
target = up;
type = BottomGhost;
},
{
place = (383,170);
type = Stem;
},
{
place = (127,172);
type = Stem;
}
);
layerId = m01;
shapes = (
{
closed = 1;
nodes = (
(383,733,l),
(383,770,l),
(42,770,l),
(42,733,l),
(127,713,l),
(299,713,l)
);
},
{
closed = 1;
nodes = (
(42,37,l),
(42,0,l),
(383,0,l),
(383,37,l),
(299,58,l),
(127,58,l)
);
},
{
closed = 1;
nodes = (
(834,37,l),
(834,0,l),
(567,0,l),
(743,56,l)
);
},
{
closed = 1;
nodes = (
(648,707,o),
(669,718,o),
(763,733,c),
(763,770,l),
(476,770,l),
(476,734,l),
(527,732,o),
(553,724,o),
(553,705,cs),
(553,697,o),
(550,685,o),
(539,674,c),
(615,671,l)
);
}
);
width = 807;
}
);
note = K;
unicode = 75;
},
{
glyphname = Kcommaaccent;
kernLeft = B;
kernRight = K;
lastChange = "2024-01-06 19:25:37 +0000";
layers = (
{
hints = (
{
horizontal = 1;
place = (734,36);
type = Stem;
},
{
horizontal = 1;
place = (-52,52);
type = Stem;
},
{
horizontal = 1;
place = (-260,21);
target = up;
type = BottomGhost;
},
{
place = (419,88);
type = Stem;
},
{
place = (383,170);
type = Stem;
},
{
place = (372,135);
type = Stem;
},
{
place = (127,172);
type = Stem;
}
);
layerId = m01;
shapes = (
{
closed = 1;
nodes = (
(408,-260,l),
(471,-233,o),
(507,-186,o),
(507,-130,cs),
(507,-82,o),
(481,-52,o),
(439,-52,cs),
(400,-52,o),
(372,-75,o),
(372,-105,cs),
(372,-148,o),
(419,-149,o),
(419,-178,cs),
(419,-193,o),
(405,-217,o),
(385,-236,c)
);
},
{
ref = K;
}
);
width = 807;
}
);
note = Kcommaaccent;
unicode = 310;
},
{
glyphname = L;
kernLeft = B;
kernRight = L;
lastChange = "2024-01-06 19:25:59 +0000";
layers = (
{
hints = (
{
horizontal = 1;
place = (770,-20);
target = down;
type = TopGhost;
},
{
horizontal = 1;
place = (0,57);
type = Stem;
},
{
place = (127,172);
type = Stem;
}
);
layerId = m01;
shapes = (
{
closed = 1;
nodes = (
(591,116,o),
(615,175,o),
(639,234,c),
(691,234,l),
(649,0,l),
(549,0,l),
(548,57,l)
);
},
{
closed = 1;
nodes = (
(42,37,l),
(42,0,l),
(127,0,l),
(127,56,l)
);
},
{
closed = 1;
nodes = (
(393,733,l),
(393,770,l),
(42,770,l),
(42,733,l),
(127,714,l),
(299,713,l)
);
}
);
width = 699;
}
);
note = L;
unicode = 76;
},
{
glyphname = Lacute;
kernLeft = B;
kernRight = L;
lastChange = "2024-01-06 19:26:05 +0000";
layers = (
{
hints = (
{
horizontal = 1;
place = (963,-20);
target = down;
type = TopGhost;
},
{
horizontal = 1;
place = (770,-20);
target = down;
type = TopGhost;
},
{
horizontal = 1;
place = (0,57);
type = Stem;
}
);
layerId = m01;
shapes = (
{
closed = 1;
nodes = (
(118,817,l),
(283,849,ls),
(325,857,o),
(342,884,o),
(342,909,cs),
(342,937,o),
(321,963,o),
(287,963,cs),
(270,963,o),
(249,956,o),
(226,939,cs),
(101,845,l)
);
},
{
ref = L;
}
);
width = 699;
}
);
note = Lacute;
unicode = 313;
},
{
glyphname = Lcaron;
kernLeft = B;
kernRight = L;
lastChange = "2024-01-06 19:26:08 +0000";
layers = (
{
hints = (
{
horizontal = 1;
place = (970,-20);
target = down;
type = TopGhost;
},
{
horizontal = 1;
place = (770,61);
type = Stem;
},
{
horizontal = 1;
place = (0,57);
type = Stem;
},
{
place = (127,172);
type = Stem;
}
);
layerId = m01;
shapes = (
{
closed = 1;
nodes = (
(240,831,o),
(259,842,o),
(286,864,cs),
(390,948,l),
(374,970,l),
(217,929,l),
(60,970,l),
(44,948,l),
(146,864,ls),
(173,842,o),
(192,831,o),
(218,831,cs)
);
},
{
ref = L;
}
);
width = 699;
}
);
note = Lcaron;
unicode = 317;
},
{
glyphname = Lcommaaccent;
kernLeft = B;
kernRight = L;
lastChange = "2024-01-06 19:26:10 +0000";
layers = (
{
hints = (
{
horizontal = 1;
place = (770,-20);
target = down;
type = TopGhost;
},
{
horizontal = 1;
place = (0,57);
type = Stem;
},
{
horizontal = 1;
place = (-52,52);
type = Stem;
},
{
horizontal = 1;
place = (-260,21);
target = up;
type = BottomGhost;
},
{
place = (357,88);
type = Stem;
},
{
place = (127,172);
type = Stem;
}
);
layerId = m01;
shapes = (
{
closed = 1;
nodes = (
(346,-260,l),
(409,-233,o),
(445,-186,o),
(445,-130,cs),
(445,-82,o),
(419,-52,o),
(377,-52,cs),
(338,-52,o),
(310,-75,o),
(310,-105,cs),
(310,-148,o),
(357,-149,o),
(357,-178,cs),
(357,-193,o),
(343,-217,o),
(323,-236,c)
);
},
{
ref = L;
}
);
width = 699;
}
);
note = Lcommaaccent;
unicode = 315;
},
{
glyphname = Ldot;
kernRight = L;
lastChange = "2024-01-06 19:26:15 +0000";
layers = (
{
hints = (
{
horizontal = 1;
place = (770,-20);
target = down;
type = TopGhost;
},
{
horizontal = 1;
place = (231,174);
type = Stem;
},
{
horizontal = 1;
place = (0,57);
type = Stem;
},
{
place = (382,180);
type = Stem;
},
{
place = (127,172);
type = Stem;
}
);
layerId = m01;
shapes = (
{
closed = 1;
nodes = (
(382,266,o),
(418,231,o),
(471,231,cs),
(524,231,o),
(562,267,o),
(562,317,cs),
(562,368,o),
(523,405,o),
(470,405,cs),
(418,405,o),
(382,368,o),
(382,317,cs)
);
},
{
ref = L;
}
);
width = 699;
}
);
note = Ldot;
unicode = 319;
},
{
glyphname = Lslash;
kernLeft = B;
kernRight = L;
lastChange = "2024-01-06 19:26:20 +0000";
layers = (
{
hints = (
{
horizontal = 1;
place = (770,-20);
target = down;
type = TopGhost;
},
{
horizontal = 1;
place = (0,57);
type = Stem;
},
{
place = (128,245);
type = Stem;
},
{
place = (128,172);
type = Stem;
}
);
layerId = m01;
shapes = (
{
closed = 1;
nodes = (
(61,371,l),
(61,276,l),
(373,442,l),
(373,537,l)
);
},
{
ref = L;
}
);
width = 700;
}
);
note = Lslash;
unicode = 321;
},
{
glyphname = M;
kernLeft = Eng;
kernRight = H;
lastChange = "2024-01-06 19:26:46 +0000";
layers = (
{
hints = (
{
horizontal = 1;
place = (770,-20);
target = down;
type = TopGhost;
},
{
horizontal = 1;
place = (0,21);
target = up;
type = BottomGhost;
},
{
horizontal = 1;
place = (-10,21);
target = up;
type = BottomGhost;
},
{
place = (775,172);
type = Stem;
},
{
place = (128,69);
type = Stem;
}
);
layerId = m01;
shapes = (
{
closed = 1;
nodes = (
(690,37,l),
(690,0,l),
(1031,0,l),
(1031,37,l),
(947,58,l),
(775,58,l)
);
},
{
closed = 1;
nodes = (
(39,37,l),
(39,0,l),
(285,0,l),
(285,37,l),
(197,56,l),
(128,56,l)
);
},
{
closed = 1;
nodes = (
(40,770,l),
(40,733,l),
(128,714,l),
(128,770,l)
);
},
{
closed = 1;
nodes = (
(1031,770,l),
(1031,733,l),
(947,713,l),
(948,770,l)
);
}
);
width = 1073;
}
);
note = M;
unicode = 77;
},
{
glyphname = N;
kernLeft = Eng;
kernRight = Eng;
lastChange = "2024-01-06 19:27:04 +0000";
layers = (
{
hints = (
{
horizontal = 1;
place = (770,-20);
target = down;
type = TopGhost;
},
{
horizontal = 1;
place = (0,21);
target = up;
type = BottomGhost;
},
{
horizontal = 1;
place = (-10,21);
target = up;
type = BottomGhost;
},
{
place = (689,69);
type = Stem;
},
{
place = (128,69);
type = Stem;
}
);
layerId = m01;
shapes = (
{
closed = 1;
nodes = (
(39,37,l),
(39,0,l),
(285,0,l),
(285,37,l),
(197,56,l),
(128,56,l)
);
},
{
closed = 1;
nodes = (
(847,733,l),
(847,770,l),
(601,770,l),
(601,733,l),
(689,714,l),
(758,714,l)
);
},
{
closed = 1;
nodes = (
(40,770,l),
(40,733,l),
(128,714,l),
(128,770,l)
);
}
);
width = 878;
}
);
note = N;
unicode = 78;
},
{
glyphname = Nacute;
kernLeft = Eng;
kernRight = Eng;
lastChange = "2024-01-06 19:27:23 +0000";
layers = (
{
hints = (
{
horizontal = 1;
place = (963,-20);
target = down;
type = TopGhost;
},
{
horizontal = 1;
place = (770,-20);
target = down;
type = TopGhost;
},
{
horizontal = 1;
place = (0,21);
target = up;
type = BottomGhost;
},
{
horizontal = 1;
place = (-10,21);
target = up;
type = BottomGhost;
},
{
place = (689,69);
type = Stem;
},
{
place = (128,69);
type = Stem;
}
);
layerId = m01;
shapes = (
{
closed = 1;
nodes = (
(379,817,l),
(544,849,ls),
(586,857,o),
(603,884,o),
(603,909,cs),
(603,937,o),
(582,963,o),
(548,963,cs),
(531,963,o),
(510,956,o),
(487,939,cs),
(362,845,l)
);
},
{
ref = N;
}
);
width = 878;
}
);
note = Nacute;
unicode = 323;
},
{
glyphname = Ncaron;
kernLeft = Eng;
kernRight = Eng;
lastChange = "2024-01-06 19:27:25 +0000";
layers = (
{
hints = (
{
horizontal = 1;
place = (970,-20);
target = down;
type = TopGhost;
},
{
horizontal = 1;
place = (831,-20);
target = down;
type = TopGhost;
},
{
horizontal = 1;
place = (770,-20);
target = down;
type = TopGhost;
},
{
horizontal = 1;
place = (0,21);
target = up;
type = BottomGhost;
},
{
horizontal = 1;
place = (-10,21);
target = up;
type = BottomGhost;
},
{
place = (689,69);
type = Stem;
},
{
place = (128,69);
type = Stem;
}
);
layerId = m01;
shapes = (
{
closed = 1;
nodes = (
(510,831,o),
(529,842,o),
(556,864,cs),
(660,948,l),
(644,970,l),
(487,929,l),
(330,970,l),
(314,948,l),
(416,864,ls),
(443,842,o),
(462,831,o),
(488,831,cs)
);
},
{
ref = N;
}
);
width = 878;
}
);
note = Ncaron;
unicode = 327;
},
{
glyphname = Ncommaaccent;
kernLeft = Eng;
kernRight = Eng;
lastChange = "2024-01-06 19:27:28 +0000";
layers = (
{
hints = (
{
horizontal = 1;
place = (770,-20);
target = down;
type = TopGhost;
},
{
horizontal = 1;
place = (0,21);
target = up;
type = BottomGhost;
},
{
horizontal = 1;
place = (-10,21);
target = up;
type = BottomGhost;
},
{
horizontal = 1;
place = (-260,21);
target = up;
type = BottomGhost;
},
{
place = (689,69);
type = Stem;
},
{
place = (442,88);
type = Stem;
},
{
place = (395,135);
type = Stem;
},
{
place = (128,69);
type = Stem;
}
);
layerId = m01;
shapes = (
{
closed = 1;
nodes = (
(431,-260,l),
(494,-233,o),
(530,-186,o),
(530,-130,cs),
(530,-82,o),
(504,-52,o),
(462,-52,cs),
(423,-52,o),
(395,-75,o),
(395,-105,cs),
(395,-148,o),
(442,-149,o),
(442,-178,cs),
(442,-193,o),
(428,-217,o),
(408,-236,c)
);
},
{
ref = N;
}
);
width = 878;
}
);
note = Ncommaaccent;
unicode = 325;
},
{
glyphname = Ndotaccent;
kernLeft = Eng;
kernRight = Eng;
lastChange = "2024-01-06 19:27:30 +0000";
layers = (
{
hints = (
{
horizontal = 1;
place = (770,-20);
target = down;
type = TopGhost;
},
{
horizontal = 1;
place = (830,136);
type = Stem;
},
{
horizontal = 1;
place = (0,21);
target = up;
type = BottomGhost;
},
{
horizontal = 1;
place = (-10,21);
target = up;
type = BottomGhost;
},
{
place = (689,69);
type = Stem;
},
{
place = (410,144);
type = Stem;
},
{
place = (128,69);
type = Stem;
}
);
layerId = m01;
shapes = (
{
closed = 1;
nodes = (
(410,863,o),
(435,830,o),
(481,830,cs),
(529,830,o),
(554,863,o),
(554,898,cs),
(554,933,o),
(526,966,o),
(481,966,cs),
(436,966,o),
(410,933,o),
(410,898,cs)
);
},
{
ref = N;
}
);
width = 878;
}
);
note = Ndotaccent;
unicode = 7748;
},
{
glyphname = Ntilde;
kernLeft = Eng;
kernRight = Eng;
lastChange = "2024-01-06 19:27:33 +0000";
layers = (
{
hints = (
{
horizontal = 1;
place = (965,-20);
target = down;
type = TopGhost;
},
{
horizontal = 1;
place = (821,-20);
target = down;
type = TopGhost;
},
{
horizontal = 1;
place = (770,-20);
target = down;
type = TopGhost;
},
{
horizontal = 1;
place = (859,104);
type = Stem;
},
{
horizontal = 1;
place = (859,68);
type = Stem;
},
{
horizontal = 1;
place = (820,107);
type = Stem;
},
{
horizontal = 1;
place = (0,21);
target = up;
type = BottomGhost;
},
{
horizontal = 1;
place = (-10,21);
target = up;
type = BottomGhost;
},
{
place = (689,69);
type = Stem;
},
{
place = (128,69);
type = Stem;
}
);
layerId = m01;
shapes = (
{
closed = 1;
nodes = (
(352,821,l),
(356,844,o),
(378,859,o),
(413,859,cs),
(463,859,o),
(482,820,o),
(538,820,cs),
(606,820,o),
(640,873,o),
(640,965,c),
(601,965,l),
(595,941,o),
(573,927,o),
(541,927,cs),
(495,927,o),
(472,963,o),
(420,963,cs),
(358,963,o),
(313,915,o),
(313,821,c)
);
},
{
ref = N;
}
);
width = 878;
}
);
note = Ntilde;
unicode = 209;
},
{
glyphname = OE;
kernLeft = O;
kernRight = AE;
lastChange = "2024-01-06 19:27:47 +0000";
layers = (
{
hints = (
{
horizontal = 1;
place = (780,-20);
target = down;
type = TopGhost;
},
{
horizontal = 1;
place = (550,-20);
target = down;
type = TopGhost;
},
{
horizontal = 1;
place = (547,-20);
target = down;
type = TopGhost;
},
{
horizontal = 1;
place = (720,50);
type = Stem;
},
{
horizontal = 1;
place = (380,54);
type = Stem;
},
{
horizontal = 1;
place = (-10,67);
type = Stem;
},
{
horizontal = 1;
place = (0,21);
target = up;
type = BottomGhost;
},
{
place = (568,172);
type = Stem;
},
{
place = (45,197);
type = Stem;
},
{
horizontal = 1;
place = (550,-20);
target = down;
type = TopGhost;
},
{
horizontal = 1;
place = (547,-20);
target = down;
type = TopGhost;
},
{
horizontal = 1;
place = (713,57);
type = Stem;
},
{
horizontal = 1;
place = (380,54);
type = Stem;
},
{
horizontal = 1;
place = (0,57);
type = Stem;
},
{
place = (568,172);
type = Stem;
}
);
layerId = m01;
shapes = (
{
closed = 1;
nodes = (
(887,343,o),
(901,304,o),
(909,267,c),
(951,267,l),
(951,547,l),
(909,547,l),
(901,510,o),
(888,471,o),
(866,434,c),
(866,380,l)
);
},
{
closed = 1;
nodes = (
(1029,661,o),
(1054,602,o),
(1072,550,c),
(1114,550,l),
(1095,770,l),
(996,770,l),
(995,713,l)
);
},
{
closed = 1;
nodes = (
(1032,116,o),
(1056,175,o),
(1080,234,c),
(1132,234,l),
(1090,0,l),
(989,0,l),
(989,57,l)
);
}
);
width = 1172;
}
);
note = OE;
unicode = 338;
},
{
glyphname = Oacute;
kernLeft = O;
kernRight = O;
lastChange = "2024-01-06 19:27:52 +0000";
layers = (
{
hints = (
{
horizontal = 1;
place = (720,243);
type = Stem;
},
{
horizontal = 1;
place = (720,60);
type = Stem;
},
{
horizontal = 1;
place = (-10,58);
type = Stem;
},
{
place = (627,197);
type = Stem;
},
{
place = (45,197);
type = Stem;
}
);
layerId = m01;
shapes = (
{
closed = 1;
nodes = (
(348,817,l),
(513,849,ls),
(555,857,o),
(572,884,o),
(572,909,cs),
(572,937,o),
(551,963,o),
(517,963,cs),
(500,963,o),
(479,956,o),
(456,939,cs),
(331,845,l)
);
}
);
width = 869;
}
);
note = Oacute;
unicode = 211;
},
{
glyphname = Obreve;
kernLeft = O;
kernRight = O;
lastChange = "2024-01-06 19:27:55 +0000";
layers = (
{
hints = (
{
horizontal = 1;
place = (829,136);
type = Stem;
},
{
horizontal = 1;
place = (829,104);
type = Stem;
},
{
horizontal = 1;
place = (720,60);
type = Stem;
},
{
horizontal = 1;
place = (-10,58);
type = Stem;
},
{
place = (627,197);
type = Stem;
},
{
place = (45,197);
type = Stem;
}
);
layerId = m01;
shapes = (
{
closed = 1;
nodes = (
(293,965,l),
(305,863,o),
(378,829,o),
(440,829,cs),
(486,829,o),
(563,843,o),
(597,965,c),
(548,965,l),
(526,942,o),
(486,933,o),
(444,933,cs),
(400,933,o),
(359,942,o),
(343,965,c)
);
}
);
width = 869;
}
);
note = Obreve;
unicode = 334;
},
{
glyphname = Ocircumflex;
kernLeft = O;
kernRight = O;
lastChange = "2024-01-06 19:27:58 +0000";
layers = (
{
hints = (
{
horizontal = 1;
place = (720,240);
type = Stem;
},
{
horizontal = 1;
place = (720,60);
type = Stem;
},
{
horizontal = 1;
place = (-10,58);
type = Stem;
},
{
place = (627,197);
type = Stem;
},
{
place = (45,197);
type = Stem;
}
);
layerId = m01;
shapes = (
{
closed = 1;
nodes = (
(418,960,o),
(399,949,o),
(372,927,cs),
(270,843,l),
(286,821,l),
(443,862,l),
(600,821,l),
(616,843,l),
(512,927,ls),
(485,949,o),
(466,960,o),
(444,960,cs)
);
}
);
width = 869;
}
);
note = Ocircumflex;
unicode = 212;
},
{
glyphname = Odieresis;
kernLeft = O;
kernRight = O;
lastChange = "2024-01-06 19:28:00 +0000";
layers = (
{
hints = (
{
horizontal = 1;
place = (830,136);
type = Stem;
},
{
horizontal = 1;
place = (720,60);
type = Stem;
},
{
horizontal = 1;
place = (-10,58);
type = Stem;
},
{
place = (627,197);
type = Stem;
},
{
place = (476,144);
type = Stem;
},
{
place = (269,144);
type = Stem;
},
{
place = (45,197);
type = Stem;
}
);
layerId = m01;
shapes = (
{
closed = 1;
nodes = (
(269,865,o),
(293,830,o),
(340,830,cs),
(388,830,o),
(413,865,o),
(413,897,cs),
(413,933,o),
(385,966,o),
(340,966,cs),
(295,966,o),
(269,933,o),
(269,897,cs)
);
},
{
closed = 1;
nodes = (
(476,865,o),
(501,830,o),
(547,830,cs),
(596,830,o),
(620,865,o),
(620,897,cs),
(620,933,o),
(592,966,o),
(547,966,cs),
(502,966,o),
(476,933,o),
(476,897,cs)
);
}
);
width = 869;
}
);
note = Odieresis;
unicode = 214;
},
{
glyphname = Odotbelow;
kernLeft = O;
kernRight = O;
lastChange = "2024-01-06 19:28:01 +0000";
layers = (
{
hints = (
{
horizontal = 1;
place = (720,60);
type = Stem;
},
{
horizontal = 1;
place = (-10,58);
type = Stem;
},
{
horizontal = 1;
place = (-260,165);
type = Stem;
},
{
place = (627,197);
type = Stem;
},
{
place = (350,175);
type = Stem;
},
{
place = (45,197);
type = Stem;
}
);
layerId = m01;
shapes = (
{
closed = 1;
nodes = (
(350,-219,o),
(380,-260,o),
(436,-260,cs),
(495,-260,o),
(525,-219,o),
(525,-178,cs),
(525,-134,o),
(491,-95,o),
(436,-95,cs),
(382,-95,o),
(350,-134,o),
(350,-178,cs)
);
}
);
width = 869;
}
);
note = Odotbelow;
unicode = 7884;
},
{
glyphname = Ograve;
kernLeft = O;
kernRight = O;
lastChange = "2024-01-06 19:28:05 +0000";
layers = (
{
hints = (
{
horizontal = 1;
place = (720,243);
type = Stem;
},
{
horizontal = 1;
place = (720,60);
type = Stem;
},
{
horizontal = 1;
place = (-10,58);
type = Stem;
},
{
place = (627,197);
type = Stem;
},
{
place = (45,197);
type = Stem;
}
);
layerId = m01;
shapes = (
{
closed = 1;
nodes = (
(552,845,l),
(427,939,ls),
(404,956,o),
(383,963,o),
(366,963,cs),
(332,963,o),
(311,937,o),
(311,909,cs),
(311,884,o),
(328,857,o),
(370,849,cs),
(535,817,l)
);
}
);
width = 869;
}
);
note = Ograve;
unicode = 210;
},
{
glyphname = Ohungarumlaut;
kernLeft = O;
kernRight = O;
lastChange = "2024-01-06 19:28:07 +0000";
layers = (
{
hints = (
{
horizontal = 1;
place = (720,245);
type = Stem;
},
{
horizontal = 1;
place = (720,60);
type = Stem;
},
{
horizontal = 1;
place = (-10,58);
type = Stem;
},
{
place = (627,197);
type = Stem;
},
{
place = (45,197);
type = Stem;
}
);
layerId = m01;
shapes = (
{
closed = 1;
nodes = (
(275,816,l),
(411,851,ls),
(447,860,o),
(460,888,o),
(460,911,cs),
(460,939,o),
(438,965,o),
(405,965,cs),
(386,965,o),
(364,955,o),
(340,930,cs),
(254,841,l)
);
},
{
closed = 1;
nodes = (
(481,816,l),
(617,851,ls),
(653,860,o),
(666,888,o),
(666,911,cs),
(666,939,o),
(644,965,o),
(611,965,cs),
(592,965,o),
(570,955,o),
(546,930,cs),
(460,841,l)
);
}
);
width = 869;
}
);
note = Ohungarumlaut;
unicode = 336;
},
{
glyphname = Omacron;
kernLeft = O;
kernRight = O;
lastChange = "2024-01-06 19:28:09 +0000";
layers = (
{
hints = (
{
horizontal = 1;
place = (864,96);
type = Stem;
},
{
horizontal = 1;
place = (720,60);
type = Stem;
},
{
horizontal = 1;
place = (-10,58);
type = Stem;
},
{
place = (627,197);
type = Stem;
},
{
place = (45,197);
type = Stem;
}
);
layerId = m01;
shapes = (
{
closed = 1;
nodes = (
(594,864,l),
(594,960,l),
(287,960,l),
(287,864,l)
);
}
);
width = 869;
}
);
note = Omacron;
unicode = 332;
},
{
glyphname = Oogonek;
lastChange = "2024-01-06 19:28:12 +0000";
layers = (
{
hints = (
{
horizontal = 1;
place = (720,60);
type = Stem;
},
{
horizontal = 1;
place = (-9,57);
type = Stem;
},
{
horizontal = 1;
place = (-256,75);
type = Stem;
},
{
place = (627,197);
type = Stem;
},
{
place = (301,113);
type = Stem;
},
{
place = (45,197);
type = Stem;
}
);
layerId = m01;
shapes = (
{
closed = 1;
nodes = (
(518,-160,l),
(496,-175,o),
(481,-181,o),
(462,-181,cs),
(430,-181,o),
(414,-162,o),
(414,-124,cs),
(414,-90,o),
(432,-52,o),
(470,-8,c),
(403,-9,l),
(339,-60,o),
(301,-119,o),
(301,-168,cs),
(301,-222,o),
(341,-256,o),
(403,-256,cs),
(454,-256,o),
(495,-239,o),
(533,-202,c)
);
}
);
width = 869;
}
);
note = Oogonek;
unicode = 490;
},
{
glyphname = Oslash;
kernLeft = O;
kernRight = O;
lastChange = "2024-01-06 19:28:23 +0000";
layers = (
{
hints = (
{
horizontal = 1;
place = (770,-20);
target = down;
type = TopGhost;
},
{
horizontal = 1;
place = (720,60);
type = Stem;
},
{
horizontal = 1;
place = (-10,58);
type = Stem;
},
{
horizontal = 1;
place = (0,21);
target = up;
type = BottomGhost;
},
{
place = (626,197);
type = Stem;
},
{
place = (44,197);
type = Stem;
}
);
layerId = m01;
shapes = (
{
closed = 1;
nodes = (
(805,770,l),
(727,770,l),
(66,0,l),
(143,0,l)
);
}
);
width = 867;
}
);
note = Oslash;
unicode = 216;
},
{
glyphname = Oslashacute;
kernLeft = O;
kernRight = O;
lastChange = "2024-01-06 19:28:30 +0000";
layers = (
{
hints = (
{
horizontal = 1;
place = (770,-20);
target = down;
type = TopGhost;
},
{
horizontal = 1;
place = (720,243);
type = Stem;
},
{
horizontal = 1;
place = (720,60);
type = Stem;
},
{
horizontal = 1;
place = (-10,58);
type = Stem;
},
{
horizontal = 1;
place = (0,21);
target = up;
type = BottomGhost;
},
{
place = (626,197);
type = Stem;
},
{
place = (44,197);
type = Stem;
}
);
layerId = m01;
shapes = (
{
closed = 1;
nodes = (
(343,817,l),
(508,849,ls),
(550,857,o),
(567,884,o),
(567,909,cs),
(567,937,o),
(546,963,o),
(512,963,cs),
(495,963,o),
(474,956,o),
(451,939,cs),
(326,845,l)
);
},
{
ref = Oslash;
}
);
width = 867;
}
);
note = Oslashacute;
unicode = 510;
},
{
glyphname = Otilde;
kernLeft = O;
kernRight = O;
lastChange = "2024-01-06 19:28:35 +0000";
layers = (
{
hints = (
{
horizontal = 1;
place = (965,-20);
target = down;
type = TopGhost;
},
{
horizontal = 1;
place = (821,-20);
target = down;
type = TopGhost;
},
{
horizontal = 1;
place = (859,104);
type = Stem;
},
{
horizontal = 1;
place = (859,68);
type = Stem;
},
{
horizontal = 1;
place = (820,107);
type = Stem;
},
{
horizontal = 1;
place = (720,60);
type = Stem;
},
{
horizontal = 1;
place = (-10,58);
type = Stem;
},
{
place = (627,197);
type = Stem;
},
{
place = (45,197);
type = Stem;
}
);
layerId = m01;
shapes = (
{
closed = 1;
nodes = (
(318,821,l),
(322,844,o),
(344,859,o),
(379,859,cs),
(429,859,o),
(448,820,o),
(504,820,cs),
(572,820,o),
(606,873,o),
(606,965,c),
(567,965,l),
(561,941,o),
(539,927,o),
(507,927,cs),
(461,927,o),
(438,963,o),
(386,963,cs),
(324,963,o),
(279,915,o),
(279,821,c)
);
}
);
width = 869;
}
);
note = Otilde;
unicode = 213;
},
{
glyphname = P;
kernLeft = B;
lastChange = "2024-01-06 19:29:00 +0000";
layers = (
{
hints = (
{
horizontal = 1;
place = (716,54);
type = Stem;
},
{
horizontal = 1;
place = (320,54);
type = Stem;
},
{
horizontal = 1;
place = (0,21);
target = up;
type = BottomGhost;
},
{
place = (486,183);
type = Stem;
},
{
place = (127,172);
type = Stem;
}
);
layerId = m01;
shapes = (
{
closed = 1;
nodes = (
(424,37,l),
(424,0,l),
(42,0,l),
(42,37,l),
(127,59,l),
(299,59,l)
);
},
{
closed = 1;
nodes = (
(42,770,l),
(42,733,l),
(127,712,l),
(127,770,l)
);
}
);
width = 694;
}
);
note = P;
unicode = 80;
},
{
glyphname = Q;
kernLeft = O;
kernRight = O;
lastChange = "2024-01-06 19:29:20 +0000";
layers = (
{
hints = (
{
horizontal = 1;
place = (720,60);
type = Stem;
},
{
horizontal = 1;
place = (-22,60);
type = Stem;
},
{
horizontal = 1;
place = (-194,137);
type = Stem;
},
{
horizontal = 1;
place = (-195,21);
target = up;
type = BottomGhost;
},
{
place = (627,197);
type = Stem;
},
{
place = (187,142);
type = Stem;
},
{
place = (187,123);
type = Stem;
},
{
place = (45,197);
type = Stem;
}
);
layerId = m01;
shapes = (
{
closed = 1;
nodes = (
(230,-21,o),
(187,-64,o),
(187,-118,cs),
(187,-162,o),
(215,-195,o),
(257,-195,cs),
(298,-195,o),
(329,-165,o),
(329,-126,cs),
(329,-96,o),
(310,-87,o),
(310,-64,cs),
(310,-37,o),
(335,-22,o),
(369,-22,cs),
(496,-22,o),
(521,-194,o),
(652,-194,cs),
(725,-194,o),
(801,-140,o),
(845,-34,c),
(815,-14,l),
(783,-46,o),
(751,-57,o),
(710,-57,cs),
(636,-57,o),
(577,-27,o),
(517,-5,cs),
(444,21,o),
(372,36,o),
(300,7,cs)
);
}
);
width = 869;
}
);
note = Q;
unicode = 81;
},
{
glyphname = R;
kernLeft = B;
kernRight = R;
lastChange = "2024-01-06 19:29:55 +0000";
layers = (
{
hints = (
{
horizontal = 1;
place = (716,54);
type = Stem;
},
{
horizontal = 1;
place = (0,21);
target = up;
type = BottomGhost;
},
{
place = (495,175);
type = Stem;
},
{
place = (127,172);
type = Stem;
}
);
layerId = m01;
shapes = (
{
closed = 1;
nodes = (
(413,37,l),
(413,0,l),
(42,0,l),
(42,37,l),
(127,59,l),
(299,59,l)
);
},
{
closed = 1;
nodes = (
(814,37,l),
(814,0,l),
(541,0,l),
(723,56,l)
);
},
{
closed = 1;
nodes = (
(42,770,l),
(42,733,l),
(127,712,l),
(127,770,l)
);
}
);
width = 778;
}
);
note = R;
unicode = 82;
},
{
glyphname = Racute;
kernLeft = B;
kernRight = R;
lastChange = "2024-01-06 19:30:00 +0000";
layers = (
{
hints = (
{
horizontal = 1;
place = (963,-20);
target = down;
type = TopGhost;
},
{
horizontal = 1;
place = (716,54);
type = Stem;
},
{
horizontal = 1;
place = (0,21);
target = up;
type = BottomGhost;
},
{
place = (495,175);
type = Stem;
},
{
place = (127,172);
type = Stem;
}
);
layerId = m01;
shapes = (
{
closed = 1;
nodes = (
(271,817,l),
(436,849,ls),
(478,857,o),
(495,884,o),
(495,909,cs),
(495,937,o),
(474,963,o),
(440,963,cs),
(423,963,o),
(402,956,o),
(379,939,cs),
(254,845,l)
);
},
{
ref = R;
}
);
width = 778;
}
);
note = Racute;
unicode = 340;
},
{
glyphname = Rcaron;
kernLeft = B;
kernRight = R;
lastChange = "2024-01-06 19:32:28 +0000";
layers = (
{
hints = (
{
horizontal = 1;
place = (970,-20);
target = down;
type = TopGhost;
},
{
horizontal = 1;
place = (770,61);
type = Stem;
},
{
horizontal = 1;
place = (716,54);
type = Stem;
},
{
horizontal = 1;
place = (0,21);
target = up;
type = BottomGhost;
},
{
place = (495,175);
type = Stem;
},
{
place = (127,172);
type = Stem;
}
);
layerId = m01;
shapes = (
{
closed = 1;
nodes = (
(387,831,o),
(406,842,o),
(433,864,cs),
(537,948,l),
(521,970,l),
(364,929,l),
(207,970,l),
(191,948,l),
(293,864,ls),
(320,842,o),
(339,831,o),
(365,831,cs)
);
},
{
ref = R;
}
);
width = 778;
}
);
note = Rcaron;
unicode = 344;
},
{
glyphname = Rcommaaccent;
kernLeft = B;
kernRight = R;
lastChange = "2024-01-06 19:32:31 +0000";
layers = (
{
hints = (
{
horizontal = 1;
place = (716,54);
type = Stem;
},
{
horizontal = 1;
place = (-52,52);
type = Stem;
},
{
horizontal = 1;
place = (-260,21);
target = up;
type = BottomGhost;
},
{
place = (495,175);
type = Stem;
},
{
place = (423,88);
type = Stem;
},
{
place = (376,135);
type = Stem;
},
{
place = (127,172);
type = Stem;
}
);
layerId = m01;
shapes = (
{
closed = 1;
nodes = (
(412,-260,l),
(475,-233,o),
(511,-186,o),
(511,-130,cs),
(511,-82,o),
(485,-52,o),
(443,-52,cs),
(404,-52,o),
(376,-75,o),
(376,-105,cs),
(376,-148,o),
(423,-149,o),
(423,-178,cs),
(423,-193,o),
(409,-217,o),
(389,-236,c)
);
},
{
ref = R;
}
);
width = 778;
}
);
note = Rcommaaccent;
unicode = 342;
},
{
glyphname = Rdotbelow;
kernLeft = B;
kernRight = R;
lastChange = "2024-01-06 19:32:38 +0000";
layers = (
{
hints = (
{
horizontal = 1;
place = (716,54);
type = Stem;
},
{
horizontal = 1;
place = (-260,165);
type = Stem;
},
{
horizontal = 1;
place = (0,21);
target = up;
type = BottomGhost;
},
{
place = (495,175);
type = Stem;
},
{
place = (353,175);
type = Stem;
},
{
place = (127,172);
type = Stem;
}
);
layerId = m01;
shapes = (
{
closed = 1;
nodes = (
(353,-219,o),
(383,-260,o),
(439,-260,cs),
(498,-260,o),
(528,-219,o),
(528,-178,cs),
(528,-134,o),
(494,-95,o),
(439,-95,cs),
(385,-95,o),
(353,-134,o),
(353,-178,cs)
);
},
{
ref = R;
}
);
width = 778;
}
);
note = Rdotbelow;
unicode = 7770;
},
{
glyphname = S;
kernLeft = S;
kernRight = S;
lastChange = "2024-01-06 19:33:07 +0000";
layers = (
{
hints = (
{
horizontal = 1;
place = (771,-20);
target = down;
type = TopGhost;
},
{
horizontal = 1;
place = (550,-20);
target = down;
type = TopGhost;
},
{
horizontal = 1;
place = (721,59);
type = Stem;
},
{
horizontal = 1;
place = (-9,58);
type = Stem;
},
{
horizontal = 1;
place = (0,21);
target = up;
type = BottomGhost;
},
{
place = (461,135);
type = Stem;
},
{
place = (70,152);
type = Stem;
}
);
layerId = m01;
shapes = (
{
closed = 1;
nodes = (
(147,129,o),
(118,184,o),
(95,263,c),
(53,256,l),
(73,0,l),
(104,0,l),
(139,41,l),
(186,94,l)
);
},
{
closed = 1;
nodes = (
(526,771,l),
(559,771,l),
(569,550,l),
(525,550,l),
(509,603,o),
(487,644,o),
(458,673,c),
(502,718,l)
);
}
);
width = 647;
}
);
note = S;
unicode = 83;
},
{
glyphname = Sacute;
kernLeft = S;
kernRight = S;
lastChange = "2024-01-06 19:33:14 +0000";
layers = (
{
hints = (
{
horizontal = 1;
place = (771,-20);
target = down;
type = TopGhost;
},
{
horizontal = 1;
place = (550,-20);
target = down;
type = TopGhost;
},
{
horizontal = 1;
place = (721,242);
type = Stem;
},
{
horizontal = 1;
place = (721,59);
type = Stem;
},
{
horizontal = 1;
place = (-9,58);
type = Stem;
},
{
horizontal = 1;
place = (0,21);
target = up;
type = BottomGhost;
},
{
place = (461,135);
type = Stem;
},
{
place = (70,152);
type = Stem;
}
);
layerId = m01;
shapes = (
{
closed = 1;
nodes = (
(230,817,l),
(395,849,ls),
(437,857,o),
(454,884,o),
(454,909,cs),
(454,937,o),
(433,963,o),
(399,963,cs),
(382,963,o),
(361,956,o),
(338,939,cs),
(213,845,l)
);
},
{
ref = S;
}
);
width = 647;
}
);
note = Sacute;
unicode = 346;
},
{
glyphname = Scaron;
kernLeft = S;
kernRight = S;
lastChange = "2024-01-06 19:33:16 +0000";
layers = (
{
hints = (
{
horizontal = 1;
place = (970,-20);
target = down;
type = TopGhost;
},
{
horizontal = 1;
place = (771,-20);
target = down;
type = TopGhost;
},
{
horizontal = 1;
place = (550,-20);
target = down;
type = TopGhost;
},
{
horizontal = 1;
place = (780,51);
type = Stem;
},
{
horizontal = 1;
place = (721,59);
type = Stem;
},
{
horizontal = 1;
place = (-9,58);
type = Stem;
},
{
horizontal = 1;
place = (0,21);
target = up;
type = BottomGhost;
},
{
place = (461,135);
type = Stem;
},
{
place = (70,152);
type = Stem;
}
);
layerId = m01;
shapes = (
{
closed = 1;
nodes = (
(359,831,o),
(378,842,o),
(405,864,cs),
(509,948,l),
(493,970,l),
(336,929,l),
(179,970,l),
(163,948,l),
(265,864,ls),
(292,842,o),
(311,831,o),
(337,831,cs)
);
},
{
ref = S;
}
);
width = 647;
}
);
note = Scaron;
unicode = 352;
},
{
glyphname = Scircumflex;
kernLeft = S;
kernRight = S;
lastChange = "2024-01-06 19:33:20 +0000";
layers = (
{
hints = (
{
horizontal = 1;
place = (771,-20);
target = down;
type = TopGhost;
},
{
horizontal = 1;
place = (550,-20);
target = down;
type = TopGhost;
},
{
horizontal = 1;
place = (721,239);
type = Stem;
},
{
horizontal = 1;
place = (721,59);
type = Stem;
},
{
horizontal = 1;
place = (-9,58);
type = Stem;
},
{
horizontal = 1;
place = (0,21);
target = up;
type = BottomGhost;
},
{
place = (461,135);
type = Stem;
},
{
place = (70,152);
type = Stem;
}
);
layerId = m01;
shapes = (
{
closed = 1;
nodes = (
(311,960,o),
(292,949,o),
(265,927,cs),
(163,843,l),
(179,821,l),
(336,862,l),
(493,821,l),
(509,843,l),
(405,927,ls),
(378,949,o),
(359,960,o),
(337,960,cs)
);
},
{
ref = S;
}
);
width = 647;
}
);
note = Scircumflex;
unicode = 348;
},
{
glyphname = Sdotbelow;
kernLeft = S;
kernRight = S;
lastChange = "2024-01-06 19:33:22 +0000";
layers = (
{
hints = (
{
horizontal = 1;
place = (771,-20);
target = down;
type = TopGhost;
},
{
horizontal = 1;
place = (550,-20);
target = down;
type = TopGhost;
},
{
horizontal = 1;
place = (721,59);
type = Stem;
},
{
horizontal = 1;
place = (-9,58);
type = Stem;
},
{
horizontal = 1;
place = (-260,165);
type = Stem;
},
{
horizontal = 1;
place = (0,21);
target = up;
type = BottomGhost;
},
{
place = (461,135);
type = Stem;
},
{
place = (238,175);
type = Stem;
},
{
place = (70,152);
type = Stem;
}
);
layerId = m01;
shapes = (
{
closed = 1;
nodes = (
(238,-219,o),
(268,-260,o),
(324,-260,cs),
(383,-260,o),
(413,-219,o),
(413,-178,cs),
(413,-134,o),
(379,-95,o),
(324,-95,cs),
(270,-95,o),
(238,-134,o),
(238,-178,cs)
);
},
{
ref = S;
}
);
width = 647;
}
);
note = Sdotbelow;
unicode = 7778;
},
{
glyphname = T;
kernLeft = T;
kernRight = T;
lastChange = "2024-01-06 19:33:46 +0000";
layers = (
{
hints = (
{
horizontal = 1;
place = (540,-20);
target = down;
type = TopGhost;
},
{
horizontal = 1;
place = (715,55);
type = Stem;
},
{
horizontal = 1;
place = (0,21);
target = up;
type = BottomGhost;
},
{
place = (305,171);
type = Stem;
}
);
layerId = m01;
shapes = (
{
closed = 1;
nodes = (
(595,37,l),
(595,0,l),
(185,0,l),
(185,37,l),
(305,59,l),
(476,59,l)
);
},
{
closed = 1;
nodes = (
(730,770,l),
(767,540,l),
(728,540,l),
(708,595,o),
(682,660,o),
(639,715,c),
(638,770,l)
);
},
{
closed = 1;
nodes = (
(48,770,l),
(11,540,l),
(50,540,l),
(70,595,o),
(99,660,o),
(142,715,c),
(143,770,l)
);
}
);
width = 778;
}
);
note = T;
unicode = 84;
},
{
glyphname = Tbar;
kernLeft = T;
kernRight = T;
lastChange = "2024-01-06 19:33:59 +0000";
layers = (
{
hints = (
{
horizontal = 1;
place = (540,-20);
target = down;
type = TopGhost;
},
{
horizontal = 1;
place = (715,55);
type = Stem;
},
{
horizontal = 1;
place = (367,85);
type = Stem;
},
{
horizontal = 1;
place = (0,21);
target = up;
type = BottomGhost;
},
{
place = (306,171);
type = Stem;
}
);
layerId = m01;
shapes = (
{
closed = 1;
nodes = (
(477,367,l),
(637,367,l),
(637,452,l),
(477,452,l),
(306,452,l),
(147,452,l),
(147,367,l),
(306,367,l)
);
},
{
ref = T;
}
);
width = 780;
}
);
note = Tbar;
unicode = 358;
},
{
glyphname = Tcaron;
kernLeft = T;
kernRight = T;
lastChange = "2024-01-06 19:34:02 +0000";
layers = (
{
hints = (
{
horizontal = 1;
place = (960,-20);
target = down;
type = TopGhost;
},
{
horizontal = 1;
place = (540,-20);
target = down;
type = TopGhost;
},
{
horizontal = 1;
place = (770,51);
type = Stem;
},
{
horizontal = 1;
place = (0,21);
target = up;
type = BottomGhost;
},
{
place = (305,171);
type = Stem;
}
);
layerId = m01;
shapes = (
{
closed = 1;
nodes = (
(413,821,o),
(432,832,o),
(459,854,cs),
(563,938,l),
(547,960,l),
(390,919,l),
(233,960,l),
(217,938,l),
(319,854,ls),
(346,832,o),
(365,821,o),
(391,821,cs)
);
},
{
ref = T;
}
);
width = 778;
}
);
note = Tcaron;
unicode = 356;
},
{
glyphname = Tdotbelow;
kernLeft = T;
kernRight = T;
lastChange = "2024-01-06 19:34:05 +0000";
layers = (
{
hints = (
{
horizontal = 1;
place = (540,-20);
target = down;
type = TopGhost;
},
{
horizontal = 1;
place = (715,55);
type = Stem;
},
{
horizontal = 1;
place = (-260,165);
type = Stem;
},
{
horizontal = 1;
place = (0,21);
target = up;
type = BottomGhost;
},
{
place = (305,171);
type = Stem;
}
);
layerId = m01;
shapes = (
{
closed = 1;
nodes = (
(306,-219,o),
(336,-260,o),
(392,-260,cs),
(451,-260,o),
(481,-219,o),
(481,-178,cs),
(481,-134,o),
(447,-95,o),
(392,-95,cs),
(338,-95,o),
(306,-134,o),
(306,-178,cs)
);
},
{
ref = T;
}
);
width = 778;
}
);
note = Tdotbelow;
unicode = 7788;
},
{
glyphname = Thorn;
kernLeft = B;
lastChange = "2024-01-06 19:34:20 +0000";
layers = (
{
hints = (
{
horizontal = 1;
place = (559,211);
type = Stem;
},
{
horizontal = 1;
place = (559,54);
type = Stem;
},
{
horizontal = 1;
place = (163,54);
type = Stem;
},
{
horizontal = 1;
place = (0,217);
type = Stem;
},
{
place = (486,183);
type = Stem;
},
{
place = (127,172);
type = Stem;
}
);
layerId = m01;
shapes = (
{
closed = 1;
nodes = (
(424,37,l),
(424,0,l),
(42,0,l),
(42,37,l),
(127,59,l),
(299,59,l)
);
},
{
closed = 1;
nodes = (
(424,733,l),
(424,770,l),
(42,770,l),
(42,733,l),
(127,711,l),
(299,711,l)
);
}
);
width = 696;
}
);
note = Thorn;
unicode = 222;
},
{
glyphname = U;
kernLeft = U;
kernRight = U;
lastChange = "2024-01-06 19:34:32 +0000";
layers = (
{
hints = (
{
horizontal = 1;
place = (770,-20);
target = down;
type = TopGhost;
},
{
horizontal = 1;
place = (-10,62);
type = Stem;
},
{
place = (641,69);
type = Stem;
},
{
place = (111,174);
type = Stem;
}
);
layerId = m01;
shapes = (
{
closed = 1;
nodes = (
(553,733,l),
(553,770,l),
(799,770,l),
(799,733,l),
(710,714,l),
(641,714,l)
);
},
{
closed = 1;
nodes = (
(26,733,l),
(26,770,l),
(373,770,l),
(373,733,l),
(285,714,l),
(111,714,l)
);
}
);
width = 821;
}
);
note = U;
unicode = 85;
},
{
glyphname = Uacute;
kernLeft = U;
kernRight = U;
lastChange = "2024-01-06 19:34:35 +0000";
layers = (
{
hints = (
{
horizontal = 1;
place = (963,-20);
target = down;
type = TopGhost;
},
{
horizontal = 1;
place = (770,-20);
target = down;
type = TopGhost;
},
{
horizontal = 1;
place = (-10,62);
type = Stem;
},
{
place = (641,69);
type = Stem;
},
{
place = (111,174);
type = Stem;
}
);
layerId = m01;
shapes = (
{
closed = 1;
nodes = (
(365,817,l),
(530,849,ls),
(572,857,o),
(589,884,o),
(589,909,cs),
(589,937,o),
(568,963,o),
(534,963,cs),
(517,963,o),
(496,956,o),
(473,939,cs),
(348,845,l)
);
},
{
ref = U;
}
);
width = 821;
}
);
note = Uacute;
unicode = 218;
},
{
glyphname = Ubreve;
kernLeft = U;
kernRight = U;
lastChange = "2024-01-06 19:34:38 +0000";
layers = (
{
hints = (
{
horizontal = 1;
place = (770,-20);
target = down;
type = TopGhost;
},
{
horizontal = 1;
place = (829,136);
type = Stem;
},
{
horizontal = 1;
place = (829,104);
type = Stem;
},
{
horizontal = 1;
place = (-10,62);
type = Stem;
},
{
place = (641,69);
type = Stem;
},
{
place = (111,174);
type = Stem;
}
);
layerId = m01;
shapes = (
{
closed = 1;
nodes = (
(315,965,l),
(327,863,o),
(400,829,o),
(462,829,cs),
(508,829,o),
(585,843,o),
(619,965,c),
(570,965,l),
(548,942,o),
(508,933,o),
(466,933,cs),
(422,933,o),
(381,942,o),
(365,965,c)
);
},
{
ref = U;
}
);
width = 821;
}
);
note = Ubreve;
unicode = 364;
},
{
glyphname = Ucircumflex;
kernLeft = U;
kernRight = U;
lastChange = "2024-01-06 19:34:40 +0000";
layers = (
{
hints = (
{
horizontal = 1;
place = (960,-20);
target = down;
type = TopGhost;
},
{
horizontal = 1;
place = (770,-20);
target = down;
type = TopGhost;
},
{
horizontal = 1;
place = (-10,62);
type = Stem;
},
{
place = (641,69);
type = Stem;
},
{
place = (111,174);
type = Stem;
}
);
layerId = m01;
shapes = (
{
closed = 1;
nodes = (
(440,960,o),
(421,949,o),
(394,927,cs),
(292,843,l),
(308,821,l),
(465,862,l),
(622,821,l),
(638,843,l),
(534,927,ls),
(507,949,o),
(488,960,o),
(466,960,cs)
);
},
{
ref = U;
}
);
width = 821;
}
);
note = Ucircumflex;
unicode = 219;
},
{
glyphname = Udieresis;
kernLeft = U;
kernRight = U;
lastChange = "2024-01-06 19:34:42 +0000";
layers = (
{
hints = (
{
horizontal = 1;
place = (770,-20);
target = down;
type = TopGhost;
},
{
horizontal = 1;
place = (802,136);
type = Stem;
},
{
horizontal = 1;
place = (-10,62);
type = Stem;
},
{
place = (641,69);
type = Stem;
},
{
place = (502,144);
type = Stem;
},
{
place = (295,144);
type = Stem;
},
{
place = (111,174);
type = Stem;
}
);
layerId = m01;
shapes = (
{
closed = 1;
nodes = (
(295,837,o),
(319,802,o),
(366,802,cs),
(414,802,o),
(439,837,o),
(439,869,cs),
(439,905,o),
(411,938,o),
(366,938,cs),
(321,938,o),
(295,905,o),
(295,869,cs)
);
},
{
closed = 1;
nodes = (
(502,837,o),
(527,802,o),
(573,802,cs),
(622,802,o),
(646,837,o),
(646,869,cs),
(646,905,o),
(618,938,o),
(573,938,cs),
(528,938,o),
(502,905,o),
(502,869,cs)
);
},
{
ref = U;
}
);
width = 821;
}
);
note = Udieresis;
unicode = 220;
},
{
glyphname = Udotbelow;
kernLeft = U;
kernRight = U;
lastChange = "2024-01-06 19:34:44 +0000";
layers = (
{
hints = (
{
horizontal = 1;
place = (770,-20);
target = down;
type = TopGhost;
},
{
horizontal = 1;
place = (-10,62);
type = Stem;
},
{
horizontal = 1;
place = (-260,165);
type = Stem;
},
{
place = (641,69);
type = Stem;
},
{
place = (350,175);
type = Stem;
},
{
place = (111,174);
type = Stem;
}
);
layerId = m01;
shapes = (
{
closed = 1;
nodes = (
(350,-219,o),
(380,-260,o),
(436,-260,cs),
(495,-260,o),
(525,-219,o),
(525,-178,cs),
(525,-134,o),
(491,-95,o),
(436,-95,cs),
(382,-95,o),
(350,-134,o),
(350,-178,cs)
);
},
{
ref = U;
}
);
width = 821;
}
);
note = Udotbelow;
unicode = 7908;
},
{
glyphname = Ugrave;
kernLeft = U;
kernRight = U;
lastChange = "2024-01-06 19:34:46 +0000";
layers = (
{
hints = (
{
horizontal = 1;
place = (963,-20);
target = down;
type = TopGhost;
},
{
horizontal = 1;
place = (770,-20);
target = down;
type = TopGhost;
},
{
horizontal = 1;
place = (-10,62);
type = Stem;
},
{
place = (641,69);
type = Stem;
},
{
place = (111,174);
type = Stem;
}
);
layerId = m01;
shapes = (
{
closed = 1;
nodes = (
(579,845,l),
(454,939,ls),
(431,956,o),
(410,963,o),
(393,963,cs),
(359,963,o),
(338,937,o),
(338,909,cs),
(338,884,o),
(355,857,o),
(397,849,cs),
(562,817,l)
);
},
{
ref = U;
}
);
width = 821;
}
);
note = Ugrave;
unicode = 217;
},
{
glyphname = Uhungarumlaut;
kernLeft = U;
kernRight = U;
lastChange = "2024-01-06 19:34:48 +0000";
layers = (
{
hints = (
{
horizontal = 1;
place = (965,-20);
target = down;
type = TopGhost;
},
{
horizontal = 1;
place = (770,-20);
target = down;
type = TopGhost;
},
{
horizontal = 1;
place = (-10,62);
type = Stem;
},
{
place = (641,69);
type = Stem;
},
{
place = (111,174);
type = Stem;
}
);
layerId = m01;
shapes = (
{
closed = 1;
nodes = (
(319,816,l),
(455,851,ls),
(491,860,o),
(504,888,o),
(504,911,cs),
(504,939,o),
(482,965,o),
(449,965,cs),
(430,965,o),
(408,955,o),
(384,930,cs),
(298,841,l)
);
},
{
closed = 1;
nodes = (
(525,816,l),
(661,851,ls),
(697,860,o),
(710,888,o),
(710,911,cs),
(710,939,o),
(688,965,o),
(655,965,cs),
(636,965,o),
(614,955,o),
(590,930,cs),
(504,841,l)
);
},
{
ref = U;
}
);
width = 821;
}
);
note = Uhungarumlaut;
unicode = 368;
},
{
glyphname = Umacron;
kernLeft = U;
kernRight = U;
lastChange = "2024-01-06 19:34:51 +0000";
layers = (
{
hints = (
{
horizontal = 1;
place = (770,-20);
target = down;
type = TopGhost;
},
{
horizontal = 1;
place = (864,96);
type = Stem;
},
{
horizontal = 1;
place = (-10,62);
type = Stem;
},
{
place = (641,69);
type = Stem;
},
{
place = (111,174);
type = Stem;
}
);
layerId = m01;
shapes = (
{
closed = 1;
nodes = (
(613,864,l),
(613,960,l),
(306,960,l),
(306,864,l)
);
}
);
width = 821;
}
);
note = Umacron;
unicode = 362;
},
{
glyphname = Uogonek;
kernLeft = U;
kernRight = U;
lastChange = "2024-01-06 19:34:55 +0000";
layers = (
{
hints = (
{
horizontal = 1;
place = (770,-20);
target = down;
type = TopGhost;
},
{
horizontal = 1;
place = (-10,62);
type = Stem;
},
{
horizontal = 1;
place = (-256,75);
type = Stem;
},
{
place = (641,69);
type = Stem;
},
{
place = (311,113);
type = Stem;
},
{
place = (111,174);
type = Stem;
}
);
layerId = m01;
shapes = (
{
closed = 1;
nodes = (
(528,-160,l),
(506,-175,o),
(491,-181,o),
(472,-181,cs),
(440,-181,o),
(424,-162,o),
(424,-124,cs),
(424,-89,o),
(443,-51,o),
(481,-7,c),
(412,-10,l),
(348,-61,o),
(311,-119,o),
(311,-168,cs),
(311,-222,o),
(351,-256,o),
(413,-256,cs),
(464,-256,o),
(505,-239,o),
(543,-202,c)
);
},
{
ref = U;
}
);
width = 822;
}
);
note = Uogonek;
unicode = 370;
},
{
glyphname = Uring;
kernLeft = U;
kernRight = U;
lastChange = "2024-01-06 19:34:57 +0000";
layers = (
{
hints = (
{
horizontal = 1;
place = (770,-20);
target = down;
type = TopGhost;
},
{
horizontal = 1;
place = (830,140);
type = Stem;
},
{
horizontal = 1;
place = (-10,62);
type = Stem;
},
{
place = (641,69);
type = Stem;
},
{
place = (396,140);
type = Stem;
},
{
place = (111,174);
type = Stem;
}
);
layerId = m01;
shapes = (
{
closed = 1;
nodes = (
(506,830,o),
(536,860,o),
(536,900,cs),
(536,940,o),
(506,970,o),
(466,970,cs),
(426,970,o),
(396,940,o),
(396,900,cs),
(396,860,o),
(424,830,o),
(466,830,cs)
);
},
{
closed = 1;
nodes = (
(446,912,o),
(454,920,o),
(466,920,cs),
(478,920,o),
(486,912,o),
(486,900,cs),
(486,888,o),
(478,880,o),
(466,880,cs),
(454,880,o),
(446,888,o),
(446,900,cs)
);
},
{
ref = U;
}
);
width = 821;
}
);
note = Uring;
unicode = 366;
},
{
glyphname = Utilde;
kernLeft = U;
kernRight = U;
lastChange = "2024-01-06 19:34:59 +0000";
layers = (
{
hints = (
{
horizontal = 1;
place = (965,-20);
target = down;
type = TopGhost;
},
{
horizontal = 1;
place = (821,-20);
target = down;
type = TopGhost;
},
{
horizontal = 1;
place = (770,-20);
target = down;
type = TopGhost;
},
{
horizontal = 1;
place = (859,104);
type = Stem;
},
{
horizontal = 1;
place = (859,68);
type = Stem;
},
{
horizontal = 1;
place = (820,107);
type = Stem;
},
{
horizontal = 1;
place = (-10,62);
type = Stem;
},
{
place = (641,69);
type = Stem;
},
{
place = (111,174);
type = Stem;
}
);
layerId = m01;
shapes = (
{
closed = 1;
nodes = (
(342,821,l),
(346,844,o),
(368,859,o),
(403,859,cs),
(453,859,o),
(472,820,o),
(528,820,cs),
(596,820,o),
(630,873,o),
(630,965,c),
(591,965,l),
(585,941,o),
(563,927,o),
(531,927,cs),
(485,927,o),
(462,963,o),
(410,963,cs),
(348,963,o),
(303,915,o),
(303,821,c)
);
},
{
ref = U;
}
);
width = 821;
}
);
note = Utilde;
unicode = 360;
},
{
glyphname = V;
lastChange = "2024-01-06 19:35:12 +0000";
layers = (
{
hints = (
{
horizontal = 1;
place = (733,37);
type = Stem;
},
{
horizontal = 1;
place = (-10,21);
target = up;
type = BottomGhost;
}
);
layerId = m01;
shapes = (
{
closed = 1;
nodes = (
(604,642,o),
(607,657,o),
(607,669,cs),
(607,705,o),
(578,722,o),
(496,733,c),
(496,770,l),
(805,770,l),
(805,733,l),
(715,719,o),
(697,704,o),
(665,622,c),
(597,624,l)
);
},
{
closed = 1;
nodes = (
(69,717,o),
(51,728,o),
(-20,733,c),
(-20,770,l),
(392,770,l),
(392,733,l),
(318,728,o),
(294,719,o),
(294,694,cs),
(294,686,o),
(296,677,o),
(300,666,c),
(88,672,l)
);
}
);
width = 781;
}
);
note = V;
unicode = 86;
},
{
glyphname = W;
kernLeft = W;
kernRight = W;
lastChange = "2024-01-06 19:35:30 +0000";
layers = (
{
hints = (
{
horizontal = 1;
place = (733,37);
type = Stem;
},
{
horizontal = 1;
place = (-10,21);
target = up;
type = BottomGhost;
}
);
layerId = m01;
shapes = (
{
closed = 1;
nodes = (
(745,677,o),
(743,687,o),
(743,695,cs),
(743,721,o),
(768,729,o),
(841,733,c),
(841,770,l),
(429,770,l),
(429,733,l),
(500,728,o),
(519,717,o),
(537,672,c),
(749,666,l)
);
},
{
closed = 1;
nodes = (
(1130,703,o),
(1152,720,o),
(1239,733,c),
(1239,770,l),
(930,770,l),
(930,733,l),
(1013,723,o),
(1042,705,o),
(1042,671,cs),
(1042,658,o),
(1037,640,o),
(1031,624,c),
(1099,622,l)
);
},
{
closed = 1;
nodes = (
(74,717,o),
(55,728,o),
(-16,733,c),
(-16,770,l),
(396,770,l),
(396,733,l),
(311,728,o),
(298,719,o),
(298,695,cs),
(298,687,o),
(300,677,o),
(304,666,c),
(92,672,l)
);
}
);
width = 1212;
}
);
note = W;
unicode = 87;
},
{
glyphname = Wacute;
kernLeft = W;
kernRight = W;
lastChange = "2024-01-06 19:35:40 +0000";
layers = (
{
hints = (
{
horizontal = 1;
place = (733,230);
type = Stem;
},
{
horizontal = 1;
place = (733,37);
type = Stem;
},
{
horizontal = 1;
place = (-10,21);
target = up;
type = BottomGhost;
}
);
layerId = m01;
shapes = (
{
closed = 1;
nodes = (
(533,817,l),
(698,849,ls),
(740,857,o),
(757,884,o),
(757,909,cs),
(757,937,o),
(736,963,o),
(702,963,cs),
(685,963,o),
(664,956,o),
(641,939,cs),
(516,845,l)
);
},
{
ref = W;
}
);
width = 1212;
}
);
note = Wacute;
unicode = 7810;
},
{
glyphname = Wcircumflex;
kernLeft = W;
kernRight = W;
lastChange = "2024-01-06 19:35:43 +0000";
layers = (
{
hints = (
{
horizontal = 1;
place = (733,227);
type = Stem;
},
{
horizontal = 1;
place = (733,37);
type = Stem;
},
{
horizontal = 1;
place = (-10,21);
target = up;
type = BottomGhost;
}
);
layerId = m01;
shapes = (
{
closed = 1;
nodes = (
(610,960,o),
(591,949,o),
(564,927,cs),
(462,843,l),
(478,821,l),
(635,862,l),
(792,821,l),
(808,843,l),
(704,927,ls),
(677,949,o),
(658,960,o),
(636,960,cs)
);
},
{
ref = W;
}
);
width = 1212;
}
);
note = Wcircumflex;
unicode = 372;
},
{
glyphname = Wdieresis;
kernLeft = W;
kernRight = W;
lastChange = "2024-01-06 19:35:46 +0000";
layers = (
{
hints = (
{
horizontal = 1;
place = (830,136);
type = Stem;
},
{
horizontal = 1;
place = (733,37);
type = Stem;
},
{
horizontal = 1;
place = (-10,21);
target = up;
type = BottomGhost;
},
{
place = (605,63);
type = Stem;
}
);
layerId = m01;
shapes = (
{
closed = 1;
nodes = (
(461,865,o),
(485,830,o),
(532,830,cs),
(580,830,o),
(605,865,o),
(605,897,cs),
(605,933,o),
(577,966,o),
(532,966,cs),
(487,966,o),
(461,933,o),
(461,897,cs)
);
},
{
closed = 1;
nodes = (
(668,865,o),
(693,830,o),
(739,830,cs),
(788,830,o),
(812,865,o),
(812,897,cs),
(812,933,o),
(784,966,o),
(739,966,cs),
(694,966,o),
(668,933,o),
(668,897,cs)
);
},
{
ref = W;
}
);
width = 1212;
}
);
note = Wdieresis;
unicode = 7812;
},
{
glyphname = Wgrave;
kernLeft = W;
kernRight = W;
lastChange = "2024-01-06 19:35:48 +0000";
layers = (
{
hints = (
{
horizontal = 1;
place = (733,230);
type = Stem;
},
{
horizontal = 1;
place = (733,37);
type = Stem;
},
{
horizontal = 1;
place = (-10,21);
target = up;
type = BottomGhost;
}
);
layerId = m01;
shapes = (
{
closed = 1;
nodes = (
(740,845,l),
(615,939,ls),
(592,956,o),
(571,963,o),
(554,963,cs),
(520,963,o),
(499,937,o),
(499,909,cs),
(499,884,o),
(516,857,o),
(558,849,cs),
(723,817,l)
);
},
{
ref = W;
}
);
width = 1212;
}
);
note = Wgrave;
unicode = 7808;
},
{
glyphname = X;
lastChange = "2024-01-06 19:36:25 +0000";
layers = (
{
hints = (
{
horizontal = 1;
place = (733,37);
type = Stem;
},
{
horizontal = 1;
place = (0,37);
type = Stem;
}
);
layerId = m01;
shapes = (
{
closed = 1;
nodes = (
(538,73,o),
(542,63,o),
(542,57,cs),
(542,46,o),
(523,42,o),
(444,37,c),
(444,0,l),
(859,0,l),
(859,37,l),
(797,42,o),
(771,50,o),
(751,80,c),
(526,91,l)
);
},
{
closed = 1;
nodes = (
(113,66,o),
(79,48,o),
(-7,37,c),
(-7,0,l),
(287,0,l),
(287,37,l),
(229,43,o),
(203,53,o),
(203,70,cs),
(203,79,o),
(208,93,o),
(220,109,c),
(144,108,l)
);
},
{
closed = 1;
nodes = (
(107,716,o),
(92,723,o),
(10,733,c),
(10,770,l),
(427,770,l),
(427,733,l),
(355,730,o),
(338,725,o),
(338,712,cs),
(338,703,o),
(341,695,o),
(351,679,c),
(125,690,l)
);
},
{
closed = 1;
nodes = (
(705,705,o),
(725,718,o),
(811,733,c),
(811,770,l),
(530,770,l),
(530,733,l),
(589,727,o),
(614,715,o),
(614,697,cs),
(614,686,o),
(608,675,o),
(598,661,c),
(674,664,l)
);
}
);
width = 840;
}
);
note = X;
unicode = 88;
},
{
glyphname = Y;
kernLeft = Y;
kernRight = Y;
lastChange = "2024-01-06 19:36:43 +0000";
layers = (
{
hints = (
{
horizontal = 1;
place = (733,37);
type = Stem;
},
{
horizontal = 1;
place = (0,21);
target = up;
type = BottomGhost;
},
{
place = (288,172);
type = Stem;
}
);
layerId = m01;
shapes = (
{
closed = 1;
nodes = (
(203,37,l),
(203,0,l),
(544,0,l),
(544,37,l),
(460,58,l),
(288,58,l)
);
},
{
closed = 1;
nodes = (
(297,667,o),
(294,676,o),
(294,685,cs),
(294,709,o),
(314,727,o),
(395,733,c),
(395,770,l),
(-18,770,l),
(-18,733,l),
(52,728,o),
(69,722,o),
(97,672,c),
(303,656,l)
);
},
{
closed = 1;
nodes = (
(667,718,o),
(677,726,o),
(760,733,c),
(760,770,l),
(458,770,l),
(458,733,l),
(540,731,o),
(569,716,o),
(569,684,cs),
(569,670,o),
(563,649,o),
(550,624,c),
(615,622,l)
);
}
);
width = 745;
}
);
note = Y;
unicode = 89;
},
{
glyphname = Yacute;
kernLeft = Y;
kernRight = Y;
lastChange = "2024-01-06 19:36:47 +0000";
layers = (
{
hints = (
{
horizontal = 1;
place = (733,230);
type = Stem;
},
{
horizontal = 1;
place = (733,37);
type = Stem;
},
{
horizontal = 1;
place = (0,21);
target = up;
type = BottomGhost;
},
{
place = (288,172);
type = Stem;
}
);
layerId = m01;
shapes = (
{
closed = 1;
nodes = (
(330,817,l),
(495,849,ls),
(537,857,o),
(554,884,o),
(554,909,cs),
(554,937,o),
(533,963,o),
(499,963,cs),
(482,963,o),
(461,956,o),
(438,939,cs),
(313,845,l)
);
},
{
ref = Y;
}
);
width = 745;
}
);
note = Yacute;
unicode = 221;
},
{
glyphname = Ycircumflex;
kernLeft = Y;
kernRight = Y;
lastChange = "2024-01-06 19:36:49 +0000";
layers = (
{
hints = (
{
horizontal = 1;
place = (733,227);
type = Stem;
},
{
horizontal = 1;
place = (733,37);
type = Stem;
},
{
horizontal = 1;
place = (0,21);
target = up;
type = BottomGhost;
},
{
place = (288,172);
type = Stem;
}
);
layerId = m01;
shapes = (
{
closed = 1;
nodes = (
(407,960,o),
(388,949,o),
(361,927,cs),
(259,843,l),
(275,821,l),
(432,862,l),
(589,821,l),
(605,843,l),
(501,927,ls),
(474,949,o),
(455,960,o),
(433,960,cs)
);
},
{
ref = Y;
}
);
width = 745;
}
);
note = Ycircumflex;
unicode = 374;
},
{
glyphname = Ydieresis;
kernLeft = Y;
kernRight = Y;
lastChange = "2024-01-06 19:36:52 +0000";
layers = (
{
hints = (
{
horizontal = 1;
place = (802,136);
type = Stem;
},
{
horizontal = 1;
place = (733,37);
type = Stem;
},
{
horizontal = 1;
place = (0,21);
target = up;
type = BottomGhost;
},
{
place = (468,144);
type = Stem;
},
{
place = (288,172);
type = Stem;
},
{
place = (261,144);
type = Stem;
}
);
layerId = m01;
shapes = (
{
closed = 1;
nodes = (
(261,837,o),
(285,802,o),
(332,802,cs),
(380,802,o),
(405,837,o),
(405,869,cs),
(405,905,o),
(377,938,o),
(332,938,cs),
(287,938,o),
(261,905,o),
(261,869,cs)
);
},
{
closed = 1;
nodes = (
(468,837,o),
(493,802,o),
(539,802,cs),
(588,802,o),
(612,837,o),
(612,869,cs),
(612,905,o),
(584,938,o),
(539,938,cs),
(494,938,o),
(468,905,o),
(468,869,cs)
);
},
{
ref = Y;
}
);
width = 745;
}
);
note = Ydieresis;
unicode = 376;
},
{
glyphname = Ygrave;
kernLeft = Y;
kernRight = Y;
lastChange = "2024-01-06 19:36:54 +0000";
layers = (
{
hints = (
{
horizontal = 1;
place = (733,230);
type = Stem;
},
{
horizontal = 1;
place = (733,37);
type = Stem;
},
{
horizontal = 1;
place = (0,21);
target = up;
type = BottomGhost;
},
{
place = (288,172);
type = Stem;
}
);
layerId = m01;
shapes = (
{
closed = 1;
nodes = (
(538,845,l),
(413,939,ls),
(390,956,o),
(369,963,o),
(352,963,cs),
(318,963,o),
(297,937,o),
(297,909,cs),
(297,884,o),
(314,857,o),
(356,849,cs),
(521,817,l)
);
},
{
ref = Y;
}
);
width = 745;
}
);
note = Ygrave;
unicode = 7922;
},
{
glyphname = Ytilde;
kernLeft = Y;
kernRight = Y;
lastChange = "2024-01-06 19:36:56 +0000";
layers = (
{
hints = (
{
horizontal = 1;
place = (965,-20);
target = down;
type = TopGhost;
},
{
horizontal = 1;
place = (821,-20);
target = down;
type = TopGhost;
},
{
horizontal = 1;
place = (859,104);
type = Stem;
},
{
horizontal = 1;
place = (859,68);
type = Stem;
},
{
horizontal = 1;
place = (820,107);
type = Stem;
},
{
horizontal = 1;
place = (733,37);
type = Stem;
},
{
horizontal = 1;
place = (0,21);
target = up;
type = BottomGhost;
},
{
place = (288,172);
type = Stem;
}
);
layerId = m01;
shapes = (
{
closed = 1;
nodes = (
(312,821,l),
(316,844,o),
(338,859,o),
(373,859,cs),
(423,859,o),
(442,820,o),
(498,820,cs),
(566,820,o),
(600,873,o),
(600,965,c),
(561,965,l),
(555,941,o),
(533,927,o),
(501,927,cs),
(455,927,o),
(432,963,o),
(380,963,cs),
(318,963,o),
(273,915,o),
(273,821,c)
);
},
{
ref = Y;
}
);
width = 745;
}
);
note = Ytilde;
unicode = 7928;
},
{
glyphname = Z;
kernLeft = Z;
kernRight = Z;
lastChange = "2024-01-06 19:37:17 +0000";
layers = (
{
hints = (
{
horizontal = 1;
place = (541,-20);
target = down;
type = TopGhost;
},
{
horizontal = 1;
place = (715,55);
type = Stem;
},
{
horizontal = 1;
place = (0,55);
type = Stem;
}
);
layerId = m01;
shapes = (
{
closed = 1;
nodes = (
(560,73,ls),
(607,144,o),
(639,217,o),
(657,262,c),
(699,262,l),
(636,0,l),
(546,0,l),
(548,55,l)
);
},
{
closed = 1;
nodes = (
(99,770,l),
(48,541,l),
(89,541,l),
(99,571,o),
(121,622,o),
(160,693,cs),
(172,715,l),
(173,770,l)
);
}
);
width = 730;
}
);
note = Z;
unicode = 90;
},
{
glyphname = Zacute;
kernLeft = Z;
kernRight = Z;
lastChange = "2024-01-06 19:37:20 +0000";
layers = (
{
hints = (
{
horizontal = 1;
place = (541,-20);
target = down;
type = TopGhost;
},
{
horizontal = 1;
place = (715,248);
type = Stem;
},
{
horizontal = 1;
place = (715,55);
type = Stem;
},
{
horizontal = 1;
place = (0,55);
type = Stem;
}
);
layerId = m01;
shapes = (
{
closed = 1;
nodes = (
(296,817,l),
(461,849,ls),
(503,857,o),
(520,884,o),
(520,909,cs),
(520,937,o),
(499,963,o),
(465,963,cs),
(448,963,o),
(427,956,o),
(404,939,cs),
(279,845,l)
);
},
{
ref = Z;
}
);
width = 730;
}
);
note = Zacute;
unicode = 377;
},
{
glyphname = Zcaron;
kernLeft = Z;
kernRight = Z;
lastChange = "2024-01-06 19:37:22 +0000";
layers = (
{
hints = (
{
horizontal = 1;
place = (970,-20);
target = down;
type = TopGhost;
},
{
horizontal = 1;
place = (541,-20);
target = down;
type = TopGhost;
},
{
horizontal = 1;
place = (770,61);
type = Stem;
},
{
horizontal = 1;
place = (715,55);
type = Stem;
},
{
horizontal = 1;
place = (0,55);
type = Stem;
}
);
layerId = m01;
shapes = (
{
closed = 1;
nodes = (
(413,831,o),
(432,842,o),
(459,864,cs),
(563,948,l),
(547,970,l),
(390,929,l),
(233,970,l),
(217,948,l),
(319,864,ls),
(346,842,o),
(365,831,o),
(391,831,cs)
);
},
{
ref = Z;
}
);
width = 730;
}
);
note = Zcaron;
unicode = 381;
},
{
glyphname = Zdotaccent;
kernLeft = Z;
kernRight = Z;
lastChange = "2024-01-06 19:37:24 +0000";
layers = (
{
hints = (
{
horizontal = 1;
place = (541,-20);
target = down;
type = TopGhost;
},
{
horizontal = 1;
place = (830,136);
type = Stem;
},
{
horizontal = 1;
place = (715,55);
type = Stem;
},
{
horizontal = 1;
place = (0,55);
type = Stem;
},
{
place = (316,144);
type = Stem;
}
);
layerId = m01;
shapes = (
{
closed = 1;
nodes = (
(316,863,o),
(341,830,o),
(387,830,cs),
(435,830,o),
(460,863,o),
(460,898,cs),
(460,933,o),
(432,966,o),
(387,966,cs),
(342,966,o),
(316,933,o),
(316,898,cs)
);
},
{
ref = Z;
}
);
width = 730;
}
);
note = Zdotaccent;
unicode = 379;
},
{
glyphname = Zdotbelow;
kernLeft = Z;
kernRight = Z;
lastChange = "2024-01-06 19:37:27 +0000";
layers = (
{
hints = (
{
horizontal = 1;
place = (541,-20);
target = down;
type = TopGhost;
},
{
horizontal = 1;
place = (715,55);
type = Stem;
},
{
horizontal = 1;
place = (0,55);
type = Stem;
},
{
horizontal = 1;
place = (-260,165);
type = Stem;
},
{
place = (260,175);
type = Stem;
}
);
layerId = m01;
shapes = (
{
closed = 1;
nodes = (
(260,-219,o),
(290,-260,o),
(346,-260,cs),
(405,-260,o),
(435,-219,o),
(435,-178,cs),
(435,-134,o),
(401,-95,o),
(346,-95,cs),
(292,-95,o),
(260,-134,o),
(260,-178,cs)
);
},
{
ref = Z;
}
);
width = 730;
}
);
note = Zdotbelow;
unicode = 7826;
},
{
glyphname = a;
kernLeft = a;
kernRight = a;
lastChange = "2024-01-06 19:37:47 +0000";
layers = (
{
hints = (
{
horizontal = 1;
place = (482,58);
type = Stem;
},
{
horizontal = 1;
place = (303,237);
type = Stem;
},
{
horizontal = 1;
place = (-10,94);
type = Stem;
},
{
horizontal = 1;
place = (-10,76);
type = Stem;
},
{
place = (331,155);
type = Stem;
},
{
place = (58,135);
type = Stem;
},
{
place = (38,167);
type = Stem;
}
);
layerId = m01;
shapes = (
{
closed = 1;
nodes = (
(495,77,o),
(506,66,o),
(524,66,cs),
(539,66,o),
(554,74,o),
(568,90,c),
(591,57,l),
(548,11,o),
(502,-10,o),
(445,-10,cs),
(380,-10,o),
(348,16,o),
(338,69,c),
(490,102,l)
);
},
{
closed = 1;
nodes = (
(254,540,o),
(188,523,o),
(137,490,cs),
(87,457,o),
(58,413,o),
(58,371,cs),
(58,331,o),
(85,303,o),
(124,303,cs),
(163,303,o),
(193,332,o),
(193,370,cs),
(193,384,o),
(189,399,o),
(189,414,cs),
(189,456,o),
(220,482,o),
(270,482,c),
(326,540,l)
);
}
);
width = 585;
}
);
note = a;
unicode = 97;
},
{
glyphname = aacute;
kernLeft = a;
kernRight = a;
lastChange = "2024-01-06 19:37:52 +0000";
layers = (
{
hints = (
{
horizontal = 1;
place = (859,-20);
target = down;
type = TopGhost;
},
{
horizontal = 1;
place = (482,58);
type = Stem;
},
{
horizontal = 1;
place = (303,237);
type = Stem;
},
{
horizontal = 1;
place = (-10,94);
type = Stem;
},
{
horizontal = 1;
place = (-10,76);
type = Stem;
},
{
place = (331,155);
type = Stem;
},
{
place = (58,135);
type = Stem;
},
{
place = (38,155);
type = Stem;
}
);
layerId = m01;
shapes = (
{
closed = 1;
nodes = (
(264,631,l),
(361,742,ls),
(384,768,o),
(394,794,o),
(394,814,cs),
(394,841,o),
(376,859,o),
(349,859,cs),
(310,859,o),
(286,836,o),
(274,793,cs),
(233,642,l)
);
},
{
ref = a;
}
);
width = 585;
}
);
note = aacute;
unicode = 225;
},
{
glyphname = abreve;
kernLeft = a;
kernRight = a;
lastChange = "2024-01-06 19:37:55 +0000";
layers = (
{
hints = (
{
horizontal = 1;
place = (641,149);
type = Stem;
},
{
horizontal = 1;
place = (641,104);
type = Stem;
},
{
horizontal = 1;
place = (482,58);
type = Stem;
},
{
horizontal = 1;
place = (303,237);
type = Stem;
},
{
horizontal = 1;
place = (-10,94);
type = Stem;
},
{
horizontal = 1;
place = (-10,76);
type = Stem;
},
{
place = (331,155);
type = Stem;
},
{
place = (58,135);
type = Stem;
},
{
place = (38,167);
type = Stem;
},
{
place = (38,155);
type = Stem;
}
);
layerId = m01;
shapes = (
{
closed = 1;
nodes = (
(161,790,l),
(173,679,o),
(246,641,o),
(308,641,cs),
(354,641,o),
(431,657,o),
(465,790,c),
(416,790,l),
(394,758,o),
(354,745,o),
(312,745,cs),
(268,745,o),
(227,758,o),
(211,790,c)
);
},
{
ref = a;
}
);
width = 585;
}
);
note = abreve;
unicode = 259;
},
{
glyphname = acircumflex;
kernLeft = a;
kernRight = a;
lastChange = "2024-01-06 19:37:57 +0000";
layers = (
{
hints = (
{
horizontal = 1;
place = (859,-20);
target = down;
type = TopGhost;
},
{
horizontal = 1;
place = (482,58);
type = Stem;
},
{
horizontal = 1;
place = (303,237);
type = Stem;
},
{
horizontal = 1;
place = (-10,94);
type = Stem;
},
{
horizontal = 1;
place = (-10,76);
type = Stem;
},
{
place = (331,155);
type = Stem;
},
{
place = (58,135);
type = Stem;
},
{
place = (38,167);
type = Stem;
}
);
layerId = m01;
shapes = (
{
closed = 1;
nodes = (
(278,859,o),
(257,845,o),
(240,811,cs),
(156,642,l),
(187,630,l),
(309,746,l),
(431,630,l),
(462,642,l),
(376,811,ls),
(358,846,o),
(341,859,o),
(310,859,cs)
);
},
{
ref = a;
}
);
width = 585;
}
);
note = acircumflex;
unicode = 226;
},
{
glyphname = acute;
layers = (
{
hints = (
{
horizontal = 1;
place = (859,-20);
target = down;
type = TopGhost;
},
{
horizontal = 1;
place = (631,21);
target = up;
type = BottomGhost;
}
);
layerId = m01;
shapes = (
{
closed = 1;
nodes = (
(41,631,l),
(138,742,ls),
(161,768,o),
(171,794,o),
(171,814,cs),
(171,841,o),
(153,859,o),
(126,859,cs),
(87,859,o),
(63,836,o),
(51,793,cs),
(10,642,l)
);
}
);
width = 181;
}
);
note = acute;
unicode = 180;
},
{
glyphname = acute.cap;
layers = (
{
hints = (
{
horizontal = 1;
place = (963,-20);
target = down;
type = TopGhost;
},
{
horizontal = 1;
place = (817,21);
target = up;
type = BottomGhost;
}
);
layerId = m01;
shapes = (
{
closed = 1;
nodes = (
(27,817,l),
(192,849,ls),
(234,857,o),
(251,884,o),
(251,909,cs),
(251,937,o),
(230,963,o),
(196,963,cs),
(179,963,o),
(158,956,o),
(135,939,cs),
(10,845,l)
);
}
);
width = 261;
}
);
note = acute.cap;
},
{
glyphname = adieresis;
kernLeft = a;
kernRight = a;
lastChange = "2024-01-06 19:38:01 +0000";
layers = (
{
hints = (
{
horizontal = 1;
place = (637,143);
type = Stem;
},
{
horizontal = 1;
place = (482,58);
type = Stem;
},
{
horizontal = 1;
place = (303,237);
type = Stem;
},
{
horizontal = 1;
place = (-10,94);
type = Stem;
},
{
horizontal = 1;
place = (-10,76);
type = Stem;
},
{
place = (331,155);
type = Stem;
},
{
place = (119,152);
type = Stem;
},
{
place = (58,135);
type = Stem;
},
{
place = (38,167);
type = Stem;
}
);
layerId = m01;
shapes = (
{
closed = 1;
nodes = (
(119,673,o),
(145,637,o),
(194,637,cs),
(245,637,o),
(271,673,o),
(271,708,cs),
(271,746,o),
(241,780,o),
(194,780,cs),
(147,780,o),
(119,746,o),
(119,708,cs)
);
},
{
closed = 1;
nodes = (
(337,673,o),
(363,637,o),
(412,637,cs),
(463,637,o),
(489,673,o),
(489,708,cs),
(489,746,o),
(459,780,o),
(412,780,cs),
(365,780,o),
(337,746,o),
(337,708,cs)
);
},
{
ref = a;
}
);
width = 585;
}
);
note = adieresis;
unicode = 228;
},
{
glyphname = ae;
kernLeft = a;
kernRight = ae;
lastChange = "2024-01-06 19:38:08 +0000";
layers = (
{
hints = (
{
horizontal = 1;
place = (482,58);
type = Stem;
},
{
horizontal = 1;
place = (303,237);
type = Stem;
},
{
horizontal = 1;
place = (290,51);
type = Stem;
},
{
horizontal = 1;
place = (-10,103);
type = Stem;
},
{
place = (706,162);
type = Stem;
},
{
place = (331,165);
type = Stem;
},
{
place = (58,135);
type = Stem;
},
{
place = (38,167);
type = Stem;
},
{
place = (38,155);
type = Stem;
}
);
layerId = m01;
shapes = (
{
closed = 1;
nodes = (
(327,540,l),
(252,540,o),
(186,522,o),
(137,490,cs),
(88,457,o),
(58,411,o),
(58,370,cs),
(58,331,o),
(85,303,o),
(124,303,cs),
(163,303,o),
(193,332,o),
(193,370,cs),
(193,384,o),
(189,399,o),
(189,414,cs),
(189,456,o),
(220,482,o),
(270,482,c)
);
}
);
width = 898;
}
);
note = ae;
unicode = 230;
},
{
glyphname = aeacute;
kernLeft = a;
kernRight = ae;
lastChange = "2024-01-06 19:38:12 +0000";
layers = (
{
hints = (
{
horizontal = 1;
place = (859,-20);
target = down;
type = TopGhost;
},
{
horizontal = 1;
place = (482,58);
type = Stem;
},
{
horizontal = 1;
place = (303,237);
type = Stem;
},
{
horizontal = 1;
place = (290,51);
type = Stem;
},
{
horizontal = 1;
place = (-10,103);
type = Stem;
},
{
place = (706,162);
type = Stem;
},
{
place = (331,165);
type = Stem;
},
{
place = (58,135);
type = Stem;
},
{
place = (38,155);
type = Stem;
}
);
layerId = m01;
shapes = (
{
closed = 1;
nodes = (
(397,631,l),
(494,742,ls),
(517,768,o),
(527,794,o),
(527,814,cs),
(527,841,o),
(509,859,o),
(482,859,cs),
(443,859,o),
(419,836,o),
(407,793,cs),
(366,642,l)
);
},
{
ref = ae;
}
);
width = 898;
}
);
note = aeacute;
unicode = 509;
},
{
glyphname = agrave;
kernLeft = a;
kernRight = a;
lastChange = "2024-01-06 19:38:18 +0000";
layers = (
{
hints = (
{
horizontal = 1;
place = (859,-20);
target = down;
type = TopGhost;
},
{
horizontal = 1;
place = (482,58);
type = Stem;
},
{
horizontal = 1;
place = (303,237);
type = Stem;
},
{
horizontal = 1;
place = (-10,94);
type = Stem;
},
{
horizontal = 1;
place = (-10,76);
type = Stem;
},
{
place = (331,155);
type = Stem;
},
{
place = (58,135);
type = Stem;
},
{
place = (38,167);
type = Stem;
}
);
layerId = m01;
shapes = (
{
closed = 1;
nodes = (
(387,642,l),
(346,793,ls),
(334,836,o),
(310,859,o),
(271,859,cs),
(244,859,o),
(226,841,o),
(226,814,cs),
(226,794,o),
(236,768,o),
(259,742,cs),
(356,631,l)
);
},
{
ref = a;
}
);
width = 585;
}
);
note = agrave;
unicode = 224;
},
{
glyphname = amacron;
kernLeft = a;
kernRight = a;
lastChange = "2024-01-06 19:38:25 +0000";
layers = (
{
hints = (
{
horizontal = 1;
place = (694,96);
type = Stem;
},
{
horizontal = 1;
place = (482,58);
type = Stem;
},
{
horizontal = 1;
place = (303,237);
type = Stem;
},
{
horizontal = 1;
place = (-10,94);
type = Stem;
},
{
horizontal = 1;
place = (-10,76);
type = Stem;
},
{
place = (331,155);
type = Stem;
},
{
place = (58,135);
type = Stem;
},
{
place = (38,167);
type = Stem;
}
);
layerId = m01;
shapes = (
{
closed = 1;
nodes = (
(454,694,l),
(454,790,l),
(147,790,l),
(147,694,l)
);
},
{
ref = a;
}
);
width = 585;
}
);
note = amacron;
unicode = 257;
},
{
glyphname = ampersand;
lastChange = "2024-01-06 19:38:38 +0000";
layers = (
{
hints = (
{
horizontal = 1;
place = (736,44);
type = Stem;
},
{
horizontal = 1;
place = (-10,74);
type = Stem;
},
{
horizontal = 1;
place = (0,21);
target = up;
type = BottomGhost;
},
{
place = (424,105);
type = Stem;
},
{
place = (305,119);
type = Stem;
},
{
place = (172,133);
type = Stem;
},
{
place = (57,145);
type = Stem;
}
);
layerId = m01;
shapes = (
{
closed = 1;
nodes = (
(833,0,l),
(833,36,l),
(737,64,l),
(604,0,l)
);
},
{
closed = 1;
nodes = (
(707,418,o),
(714,432,o),
(793,441,c),
(793,483,l),
(538,483,l),
(538,441,l),
(615,431,o),
(623,427,o),
(623,388,c),
(696,377,l)
);
}
);
width = 825;
}
);
note = ampersand;
unicode = 38;
},
{
glyphname = aogonek;
kernLeft = a;
kernRight = a;
lastChange = "2024-01-06 19:38:58 +0000";
layers = (
{
hints = (
{
horizontal = 1;
place = (482,58);
type = Stem;
},
{
horizontal = 1;
place = (303,237);
type = Stem;
},
{
horizontal = 1;
place = (-10,94);
type = Stem;
},
{
horizontal = 1;
place = (-256,75);
type = Stem;
},
{
place = (346,113);
type = Stem;
},
{
place = (331,155);
type = Stem;
},
{
place = (58,135);
type = Stem;
},
{
place = (38,167);
type = Stem;
},
{
place = (38,155);
type = Stem;
},
{
horizontal = 1;
place = (482,58);
type = Stem;
},
{
horizontal = 1;
place = (303,237);
type = Stem;
},
{
horizontal = 1;
place = (-10,94);
type = Stem;
},
{
horizontal = 1;
place = (-10,76);
type = Stem;
},
{
place = (331,155);
type = Stem;
},
{
place = (58,135);
type = Stem;
},
{
place = (38,167);
type = Stem;
}
);
layerId = m01;
shapes = (
{
closed = 1;
nodes = (
(499,-256,o),
(540,-239,o),
(578,-202,c),
(563,-160,l),
(541,-175,o),
(526,-181,o),
(507,-181,cs),
(475,-181,o),
(459,-162,o),
(459,-124,cs),
(459,-85,o),
(477,-34,o),
(533,11,cs),
(591,57,l),
(568,90,l),
(554,74,o),
(539,66,o),
(524,66,c),
(445,-10,l),
(383,-61,o),
(346,-119,o),
(346,-168,cs),
(346,-222,o),
(386,-256,o),
(448,-256,cs)
);
},
{
closed = 1;
nodes = (
(502,-10,o),
(548,11,o),
(591,57,c),
(568,90,l),
(554,74,o),
(539,66,o),
(524,66,cs),
(506,66,o),
(495,77,o),
(490,102,c),
(338,69,l),
(348,16,o),
(380,-10,o),
(445,-10,cs)
);
},
{
closed = 1;
nodes = (
(163,303,o),
(193,332,o),
(193,370,cs),
(193,384,o),
(189,399,o),
(189,414,cs),
(189,456,o),
(220,482,o),
(270,482,c),
(326,540,l),
(254,540,o),
(188,523,o),
(137,490,cs),
(87,457,o),
(58,413,o),
(58,371,cs),
(58,331,o),
(85,303,o),
(124,303,cs)
);
}
);
width = 585;
}
);
note = aogonek;
unicode = 261;
},
{
glyphname = apostrophe;
layers = (
{
hints = (
{
horizontal = 1;
place = (857,-20);
target = down;
type = TopGhost;
},
{
horizontal = 1;
place = (620,21);
target = up;
type = BottomGhost;
},
{
place = (77,76);
type = Stem;
},
{
place = (10,143);
type = Stem;
}
);
layerId = m01;
shapes = (
{
closed = 1;
nodes = (
(45,620,l),
(114,652,o),
(153,704,o),
(153,768,cs),
(153,823,o),
(124,857,o),
(79,857,cs),
(39,857,o),
(10,831,o),
(10,797,cs),
(10,744,o),
(77,746,o),
(77,712,cs),
(77,694,o),
(58,670,o),
(25,647,c)
);
}
);
width = 163;
}
);
note = apostrophe;
unicode = 700;
},
{
glyphname = aring;
kernLeft = a;
kernRight = a;
lastChange = "2024-01-06 19:39:06 +0000";
layers = (
{
hints = (
{
horizontal = 1;
place = (767,50);
type = Stem;
},
{
horizontal = 1;
place = (651,50);
type = Stem;
},
{
horizontal = 1;
place = (482,58);
type = Stem;
},
{
horizontal = 1;
place = (303,237);
type = Stem;
},
{
horizontal = 1;
place = (-10,94);
type = Stem;
},
{
horizontal = 1;
place = (-10,76);
type = Stem;
},
{
place = (331,155);
type = Stem;
},
{
place = (331,59);
type = Stem;
},
{
place = (224,50);
type = Stem;
},
{
place = (58,135);
type = Stem;
},
{
place = (38,167);
type = Stem;
}
);
layerId = m01;
shapes = (
{
closed = 1;
nodes = (
(354,651,o),
(390,687,o),
(390,734,cs),
(390,781,o),
(354,817,o),
(307,817,cs),
(260,817,o),
(224,781,o),
(224,734,cs),
(224,687,o),
(257,651,o),
(307,651,cs)
);
},
{
closed = 1;
nodes = (
(274,754,o),
(287,767,o),
(307,767,cs),
(327,767,o),
(340,754,o),
(340,734,cs),
(340,714,o),
(327,701,o),
(307,701,cs),
(287,701,o),
(274,714,o),
(274,734,cs)
);
},
{
ref = a;
}
);
width = 585;
}
);
note = aring;
unicode = 229;
},
{
glyphname = aringacute;
kernLeft = a;
kernRight = a;
lastChange = "2024-01-06 19:39:08 +0000";
layers = (
{
hints = (
{
horizontal = 1;
place = (732,211);
type = Stem;
},
{
horizontal = 1;
place = (616,50);
type = Stem;
},
{
horizontal = 1;
place = (482,58);
type = Stem;
},
{
horizontal = 1;
place = (303,237);
type = Stem;
},
{
horizontal = 1;
place = (-10,94);
type = Stem;
},
{
horizontal = 1;
place = (-10,76);
type = Stem;
},
{
place = (331,155);
type = Stem;
},
{
place = (291,50);
type = Stem;
},
{
place = (175,50);
type = Stem;
},
{
place = (58,135);
type = Stem;
},
{
place = (38,167);
type = Stem;
}
);
layerId = m01;
shapes = (
{
closed = 1;
nodes = (
(179,726,ls),
(176,717,o),
(175,708,o),
(175,699,cs),
(175,652,o),
(208,616,o),
(258,616,cs),
(305,616,o),
(341,652,o),
(341,699,cs),
(341,742,o),
(310,777,o),
(268,781,c),
(307,826,ls),
(330,852,o),
(340,878,o),
(340,898,cs),
(340,925,o),
(322,943,o),
(295,943,cs),
(256,943,o),
(232,920,o),
(220,877,cs)
);
},
{
closed = 1;
nodes = (
(225,719,o),
(238,732,o),
(258,732,cs),
(278,732,o),
(291,719,o),
(291,699,cs),
(291,679,o),
(278,666,o),
(258,666,cs),
(238,666,o),
(225,679,o),
(225,699,cs)
);
},
{
ref = a;
}
);
width = 585;
}
);
note = aringacute;
unicode = 507;
},
{
glyphname = asciicircum;
layers = (
{
hints = (
{
horizontal = 1;
place = (711,-20);
target = down;
type = TopGhost;
},
{
horizontal = 1;
place = (332,21);
target = up;
type = BottomGhost;
}
);
layerId = m01;
shapes = (
{
closed = 1;
nodes = (
(103,332,l),
(240,609,l),
(244,609,l),
(383,332,l),
(445,332,l),
(261,711,l),
(225,711,l),
(40,332,l)
);
}
);
width = 485;
}
);
note = asciicircum;
unicode = 94;
},
{
glyphname = asciitilde;
layers = (
{
hints = (
{
horizontal = 1;
place = (276,83);
type = Stem;
},
{
horizontal = 1;
place = (223,84);
type = Stem;
}
);
layerId = m01;
shapes = (
{
closed = 1;
nodes = (
(100,223,l),
(109,254,o),
(123,276,o),
(168,276,cs),
(241,276,o),
(311,223,o),
(382,223,cs),
(474,223,o),
(500,307,o),
(500,359,c),
(470,359,l),
(461,328,o),
(447,307,o),
(402,307,cs),
(328,307,o),
(260,359,o),
(188,359,cs),
(96,359,o),
(70,275,o),
(70,223,c)
);
}
);
width = 568;
}
);
note = asciitilde;
unicode = 126;
},
{
glyphname = at;
lastChange = "2024-01-06 19:39:22 +0000";
layers = (
{
hints = (
{
horizontal = 1;
place = (589,61);
type = Stem;
},
{
horizontal = 1;
place = (407,54);
type = Stem;
},
{
horizontal = 1;
place = (45,56);
type = Stem;
},
{
horizontal = 1;
place = (29,72);
type = Stem;
},
{
horizontal = 1;
place = (-159,53);
type = Stem;
},
{
place = (789,77);
type = Stem;
},
{
place = (222,133);
type = Stem;
},
{
place = (45,71);
type = Stem;
}
);
layerId = m01;
shapes = (
{
closed = 1;
nodes = (
(610,113,o),
(622,101,o),
(646,101,cs),
(714,101,o),
(789,195,o),
(789,331,cs),
(789,498,o),
(676,589,o),
(508,589,cs),
(284,589,o),
(116,426,o),
(116,206,cs),
(116,17,o),
(237,-106,o),
(468,-106,cs),
(548,-106,o),
(609,-89,o),
(665,-56,c),
(683,-99,l),
(626,-137,o),
(543,-159,o),
(447,-159,cs),
(210,-159,o),
(45,-25,o),
(45,201,cs),
(45,468,o),
(277,650,o),
(519,650,cs),
(740,650,o),
(866,499,o),
(866,336,cs),
(866,182,o),
(753,29,o),
(606,29,cs),
(577,29,o),
(549,35,o),
(530,52,cs),
(511,69,o),
(504,94,o),
(500,120,c),
(610,141,l)
);
}
);
width = 920;
}
);
note = at;
unicode = 64;
},
{
glyphname = atilde;
kernLeft = a;
kernRight = a;
lastChange = "2024-01-06 19:39:25 +0000";
layers = (
{
hints = (
{
horizontal = 1;
place = (810,-20);
target = down;
type = TopGhost;
},
{
horizontal = 1;
place = (701,107);
type = Stem;
},
{
horizontal = 1;
place = (701,71);
type = Stem;
},
{
horizontal = 1;
place = (662,110);
type = Stem;
},
{
horizontal = 1;
place = (482,58);
type = Stem;
},
{
horizontal = 1;
place = (303,237);
type = Stem;
},
{
horizontal = 1;
place = (-10,94);
type = Stem;
},
{
horizontal = 1;
place = (-10,76);
type = Stem;
},
{
place = (331,155);
type = Stem;
},
{
place = (58,135);
type = Stem;
},
{
place = (38,167);
type = Stem;
},
{
place = (38,155);
type = Stem;
}
);
layerId = m01;
shapes = (
{
closed = 1;
nodes = (
(181,663,l),
(185,686,o),
(207,701,o),
(242,701,cs),
(292,701,o),
(311,662,o),
(367,662,cs),
(435,662,o),
(469,718,o),
(469,810,c),
(430,810,l),
(424,786,o),
(402,772,o),
(370,772,cs),
(324,772,o),
(301,808,o),
(249,808,cs),
(187,808,o),
(142,757,o),
(142,663,c)
);
},
{
ref = a;
}
);
width = 585;
}
);
note = atilde;
unicode = 227;
},
{
glyphname = b;
kernLeft = b;
kernRight = b;
lastChange = "2024-01-06 19:39:47 +0000";
layers = (
{
hints = (
{
horizontal = 1;
place = (830,-20);
target = down;
type = TopGhost;
},
{
horizontal = 1;
place = (462,78);
type = Stem;
},
{
horizontal = 1;
place = (-10,54);
type = Stem;
},
{
horizontal = 1;
place = (0,21);
target = up;
type = BottomGhost;
},
{
place = (452,169);
type = Stem;
},
{
place = (79,155);
type = Stem;
}
);
layerId = m01;
shapes = (
{
closed = 1;
nodes = (
(79,0,l),
(108,0,l),
(194,36,l),
(79,36,l)
);
},
{
closed = 1;
nodes = (
(212,830,l),
(-5,781,l),
(-5,758,l),
(79,731,l),
(234,830,l)
);
}
);
width = 658;
}
);
note = b;
unicode = 98;
},
{
glyphname = breve;
layers = (
{
hints = (
{
horizontal = 1;
place = (641,149);
type = Stem;
},
{
horizontal = 1;
place = (641,104);
type = Stem;
}
);
layerId = m01;
shapes = (
{
closed = 1;
nodes = (
(10,790,l),
(22,679,o),
(95,641,o),
(157,641,cs),
(203,641,o),
(280,657,o),
(314,790,c),
(265,790,l),
(243,758,o),
(203,745,o),
(161,745,cs),
(117,745,o),
(76,758,o),
(60,790,c)
);
}
);
width = 324;
}
);
note = breve;
unicode = 728;
},
{
glyphname = breve.cap;
layers = (
{
hints = (
{
horizontal = 1;
place = (829,136);
type = Stem;
},
{
horizontal = 1;
place = (829,104);
type = Stem;
}
);
layerId = m01;
shapes = (
{
closed = 1;
nodes = (
(10,965,l),
(22,863,o),
(95,829,o),
(157,829,cs),
(203,829,o),
(280,843,o),
(314,965,c),
(265,965,l),
(243,942,o),
(203,933,o),
(161,933,cs),
(117,933,o),
(76,942,o),
(60,965,c)
);
}
);
width = 324;
}
);
note = breve.cap;
},
{
glyphname = c;
kernLeft = c;
kernRight = c;
lastChange = "2024-01-06 19:40:06 +0000";
layers = (
{
hints = (
{
horizontal = 1;
place = (488,52);
type = Stem;
},
{
horizontal = 1;
place = (340,200);
type = Stem;
},
{
horizontal = 1;
place = (-10,103);
type = Stem;
},
{
place = (36,168);
type = Stem;
}
);
layerId = m01;
shapes = (
{
closed = 1;
nodes = (
(453,540,o),
(543,483,o),
(543,407,cs),
(543,366,o),
(517,340,o),
(476,340,cs),
(426,340,o),
(414,375,o),
(410,405,cs),
(404,452,o),
(391,488,o),
(337,488,c),
(332,540,l)
);
}
);
width = 571;
}
);
note = c;
unicode = 99;
},
{
glyphname = c_t;
kernLeft = c;
kernRight = c_t;
lastChange = "2024-01-06 19:40:32 +0000";
layers = (
{
hints = (
{
horizontal = 1;
place = (530,-20);
target = down;
type = TopGhost;
},
{
horizontal = 1;
place = (776,53);
type = Stem;
},
{
horizontal = 1;
place = (488,52);
type = Stem;
},
{
horizontal = 1;
place = (340,200);
type = Stem;
},
{
horizontal = 1;
place = (-10,103);
type = Stem;
},
{
horizontal = 1;
place = (-10,72);
type = Stem;
},
{
place = (683,126);
type = Stem;
},
{
place = (654,155);
type = Stem;
},
{
place = (334,105);
type = Stem;
},
{
place = (36,168);
type = Stem;
}
);
layerId = m01;
shapes = (
{
closed = 1;
nodes = (
(820,744,o),
(730,829,o),
(582,829,cs),
(440,829,o),
(334,752,o),
(334,648,cs),
(334,606,o),
(354,563,o),
(392,539,c),
(392,535,l),
(373,538,o),
(353,540,o),
(332,540,c),
(337,488,l),
(391,488,o),
(404,452,o),
(410,405,cs),
(414,375,o),
(426,340,o),
(476,340,cs),
(517,340,o),
(543,366,o),
(543,407,cs),
(543,445,o),
(518,475,o),
(482,502,cs),
(452,524,o),
(439,572,o),
(439,628,cs),
(439,723,o),
(485,776,o),
(568,776,cs),
(642,776,o),
(683,734,o),
(683,658,c),
(820,615,l)
);
},
{
closed = 1;
nodes = (
(898,62,o),
(918,71,o),
(934,90,c),
(957,57,l),
(923,14,o),
(866,-10,o),
(798,-10,c),
(873,62,l)
);
}
);
width = 966;
}
);
note = c_t;
},
{
glyphname = cacute;
kernLeft = c;
kernRight = c;
lastChange = "2024-01-06 19:40:39 +0000";
layers = (
{
hints = (
{
horizontal = 1;
place = (859,-20);
target = down;
type = TopGhost;
},
{
horizontal = 1;
place = (488,52);
type = Stem;
},
{
horizontal = 1;
place = (340,200);
type = Stem;
},
{
horizontal = 1;
place = (-10,103);
type = Stem;
},
{
place = (36,168);
type = Stem;
}
);
layerId = m01;
shapes = (
{
closed = 1;
nodes = (
(295,631,l),
(392,742,ls),
(415,768,o),
(425,794,o),
(425,814,cs),
(425,841,o),
(407,859,o),
(380,859,cs),
(341,859,o),
(317,836,o),
(305,793,cs),
(264,642,l)
);
},
{
ref = c;
}
);
width = 571;
}
);
note = cacute;
unicode = 263;
},
{
glyphname = caron;
layers = (
{
hints = (
{
horizontal = 1;
place = (859,-20);
target = down;
type = TopGhost;
},
{
horizontal = 1;
place = (630,21);
target = up;
type = BottomGhost;
}
);
layerId = m01;
shapes = (
{
closed = 1;
nodes = (
(195,630,o),
(212,643,o),
(230,678,cs),
(316,847,l),
(285,859,l),
(163,743,l),
(41,859,l),
(10,847,l),
(94,678,ls),
(111,644,o),
(132,630,o),
(164,630,cs)
);
}
);
width = 326;
}
);
note = caron;
unicode = 711;
},
{
glyphname = caron.alt;
layers = (
{
hints = (
{
horizontal = 1;
place = (857,-20);
target = down;
type = TopGhost;
},
{
horizontal = 1;
place = (642,21);
target = up;
type = BottomGhost;
},
{
place = (16,105);
type = Stem;
}
);
layerId = m01;
shapes = (
{
closed = 1;
nodes = (
(48,642,l),
(108,765,ls),
(117,784,o),
(121,802,o),
(121,817,cs),
(121,842,o),
(108,857,o),
(83,857,cs),
(44,857,o),
(16,833,o),
(16,783,cs),
(16,642,l)
);
}
);
width = 131;
}
);
note = caron.alt;
},
{
glyphname = caron.cap;
layers = (
{
hints = (
{
horizontal = 1;
place = (960,-20);
target = down;
type = TopGhost;
},
{
horizontal = 1;
place = (821,21);
target = up;
type = BottomGhost;
}
);
layerId = m01;
shapes = (
{
closed = 1;
nodes = (
(206,821,o),
(225,832,o),
(252,854,cs),
(356,938,l),
(340,960,l),
(183,919,l),
(26,960,l),
(10,938,l),
(112,854,ls),
(139,832,o),
(158,821,o),
(184,821,cs)
);
}
);
width = 366;
}
);
note = caron.cap;
},
{
glyphname = ccaron;
kernLeft = c;
kernRight = c;
lastChange = "2024-01-06 19:40:43 +0000";
layers = (
{
hints = (
{
horizontal = 1;
place = (859,-20);
target = down;
type = TopGhost;
},
{
horizontal = 1;
place = (540,90);
type = Stem;
},
{
horizontal = 1;
place = (488,52);
type = Stem;
},
{
horizontal = 1;
place = (93,247);
type = Stem;
},
{
horizontal = 1;
place = (-10,103);
type = Stem;
},
{
place = (36,168);
type = Stem;
}
);
layerId = m01;
shapes = (
{
closed = 1;
nodes = (
(367,630,o),
(384,643,o),
(402,678,cs),
(488,847,l),
(457,859,l),
(335,743,l),
(213,859,l),
(182,847,l),
(266,678,ls),
(283,644,o),
(304,630,o),
(336,630,cs)
);
},
{
ref = c;
}
);
width = 571;
}
);
note = ccaron;
unicode = 269;
},
{
glyphname = ccedilla;
kernLeft = c;
kernRight = c;
lastChange = "2024-01-06 19:40:49 +0000";
layers = (
{
hints = (
{
horizontal = 1;
place = (488,52);
type = Stem;
},
{
horizontal = 1;
place = (340,200);
type = Stem;
},
{
horizontal = 1;
place = (-9,102);
type = Stem;
},
{
horizontal = 1;
place = (-135,77);
type = Stem;
},
{
horizontal = 1;
place = (-257,55);
type = Stem;
},
{
place = (329,105);
type = Stem;
},
{
place = (36,168);
type = Stem;
}
);
layerId = m01;
shapes = (
{
closed = 1;
nodes = (
(204,-233,l),
(225,-248,o),
(263,-257,o),
(302,-257,cs),
(383,-257,o),
(434,-214,o),
(434,-156,cs),
(434,-100,o),
(390,-58,o),
(319,-58,c),
(338,-8,l),
(280,-9,l),
(231,-134,l),
(245,-143,l),
(258,-138,o),
(278,-135,o),
(291,-135,cs),
(314,-135,o),
(329,-147,o),
(329,-165,cs),
(329,-184,o),
(308,-202,o),
(277,-202,cs),
(260,-202,o),
(242,-198,o),
(223,-188,c)
);
},
{
ref = c;
}
);
width = 571;
}
);
note = ccedilla;
unicode = 231;
},
{
glyphname = ccircumflex;
kernLeft = c;
kernRight = c;
lastChange = "2024-01-06 19:40:51 +0000";
layers = (
{
hints = (
{
horizontal = 1;
place = (859,-20);
target = down;
type = TopGhost;
},
{
horizontal = 1;
place = (488,52);
type = Stem;
},
{
horizontal = 1;
place = (340,200);
type = Stem;
},
{
horizontal = 1;
place = (-10,103);
type = Stem;
},
{
place = (36,168);
type = Stem;
}
);
layerId = m01;
shapes = (
{
closed = 1;
nodes = (
(307,859,o),
(286,845,o),
(269,811,cs),
(185,642,l),
(216,630,l),
(338,746,l),
(460,630,l),
(491,642,l),
(405,811,ls),
(387,846,o),
(370,859,o),
(339,859,cs)
);
},
{
ref = c;
}
);
width = 571;
}
);
note = ccircumflex;
unicode = 265;
},
{
glyphname = cdotaccent;
kernLeft = c;
kernRight = c;
lastChange = "2024-01-06 19:40:54 +0000";
layers = (
{
hints = (
{
horizontal = 1;
place = (614,165);
type = Stem;
},
{
horizontal = 1;
place = (488,52);
type = Stem;
},
{
horizontal = 1;
place = (340,200);
type = Stem;
},
{
horizontal = 1;
place = (-10,103);
type = Stem;
},
{
place = (249,175);
type = Stem;
},
{
place = (36,168);
type = Stem;
}
);
layerId = m01;
shapes = (
{
closed = 1;
nodes = (
(249,655,o),
(279,614,o),
(335,614,cs),
(394,614,o),
(424,655,o),
(424,696,cs),
(424,740,o),
(390,779,o),
(335,779,cs),
(281,779,o),
(249,740,o),
(249,696,cs)
);
},
{
ref = c;
}
);
width = 571;
}
);
note = cdotaccent;
unicode = 267;
},
{
glyphname = cedilla;
layers = (
{
hints = (
{
horizontal = 1;
place = (17,-20);
target = down;
type = TopGhost;
},
{
horizontal = 1;
place = (-135,77);
type = Stem;
},
{
horizontal = 1;
place = (-257,55);
type = Stem;
},
{
place = (135,105);
type = Stem;
}
);
layerId = m01;
shapes = (
{
closed = 1;
nodes = (
(10,-233,l),
(31,-248,o),
(69,-257,o),
(108,-257,cs),
(189,-257,o),
(240,-214,o),
(240,-156,cs),
(240,-100,o),
(196,-58,o),
(125,-58,c),
(154,17,l),
(97,17,l),
(37,-134,l),
(51,-143,l),
(64,-138,o),
(84,-135,o),
(97,-135,cs),
(120,-135,o),
(135,-147,o),
(135,-165,cs),
(135,-184,o),
(114,-202,o),
(83,-202,cs),
(66,-202,o),
(48,-198,o),
(29,-188,c)
);
}
);
width = 250;
}
);
note = cedilla;
unicode = 184;
},
{
glyphname = cent;
lastChange = "2024-01-06 19:40:59 +0000";
layers = (
{
hints = (
{
horizontal = 1;
place = (670,-20);
target = down;
type = TopGhost;
},
{
horizontal = 1;
place = (365,175);
type = Stem;
},
{
horizontal = 1;
place = (-130,21);
target = up;
type = BottomGhost;
},
{
place = (273,226);
type = Stem;
},
{
place = (273,42);
type = Stem;
},
{
place = (43,102);
type = Stem;
}
);
layerId = m01;
shapes = (
{
closed = 1;
nodes = (
(315,670,l),
(273,670,l),
(273,538,l),
(273,-9,l),
(273,-130,l),
(315,-130,l),
(315,-8,l),
(315,63,l),
(315,507,l),
(360,502,o),
(386,479,o),
(394,428,cs),
(401,385,o),
(418,365,o),
(453,365,cs),
(482,365,o),
(499,388,o),
(499,422,cs),
(499,485,o),
(420,538,o),
(315,540,c)
);
},
{
closed = 1;
nodes = (
(273,506,l),
(273,68,l)
);
}
);
width = 537;
}
);
note = cent;
unicode = 162;
},
{
glyphname = cent.tnum;
lastChange = "2024-01-06 19:41:02 +0000";
layers = (
{
hints = (
{
horizontal = 1;
place = (670,-20);
target = down;
type = TopGhost;
},
{
horizontal = 1;
place = (365,175);
type = Stem;
},
{
horizontal = 1;
place = (-130,21);
target = up;
type = BottomGhost;
},
{
place = (302,226);
type = Stem;
},
{
place = (302,42);
type = Stem;
},
{
place = (72,102);
type = Stem;
}
);
layerId = m01;
shapes = (
{
closed = 1;
nodes = (
(344,670,l),
(302,670,l),
(302,538,l),
(302,-9,l),
(302,-130,l),
(344,-130,l),
(344,-8,l),
(344,63,l),
(344,507,l),
(389,502,o),
(415,479,o),
(423,428,cs),
(430,385,o),
(447,365,o),
(482,365,cs),
(511,365,o),
(528,388,o),
(528,422,cs),
(528,485,o),
(449,538,o),
(344,540,c)
);
},
{
closed = 1;
nodes = (
(302,506,l),
(302,68,l)
);
}
);
width = 600;
}
);
note = cent.tnum;
},
{
glyphname = circumflex;
layers = (
{
hints = (
{
horizontal = 1;
place = (859,-20);
target = down;
type = TopGhost;
},
{
horizontal = 1;
place = (630,21);
target = up;
type = BottomGhost;
}
);
layerId = m01;
shapes = (
{
closed = 1;
nodes = (
(132,859,o),
(111,845,o),
(94,811,cs),
(10,642,l),
(41,630,l),
(163,746,l),
(285,630,l),
(316,642,l),
(230,811,ls),
(212,846,o),
(195,859,o),
(164,859,cs)
);
}
);
width = 326;
}
);
note = circumflex;
unicode = 710;
},
{
glyphname = circumflex.cap;
layers = (
{
hints = (
{
horizontal = 1;
place = (960,-20);
target = down;
type = TopGhost;
},
{
horizontal = 1;
place = (821,21);
target = up;
type = BottomGhost;
}
);
layerId = m01;
shapes = (
{
closed = 1;
nodes = (
(158,960,o),
(139,949,o),
(112,927,cs),
(10,843,l),
(26,821,l),
(183,862,l),
(340,821,l),
(356,843,l),
(252,927,ls),
(225,949,o),
(206,960,o),
(184,960,cs)
);
}
);
width = 366;
}
);
note = circumflex.cap;
},
{
glyphname = copyright;
lastChange = "2024-01-06 19:41:22 +0000";
layers = (
{
hints = (
{
horizontal = 1;
place = (549,-20);
target = down;
type = TopGhost;
},
{
horizontal = 1;
place = (720,60);
type = Stem;
},
{
horizontal = 1;
place = (545,40);
type = Stem;
},
{
horizontal = 1;
place = (191,39);
type = Stem;
},
{
horizontal = 1;
place = (-10,60);
type = Stem;
},
{
place = (774,66);
type = Stem;
},
{
place = (245,102);
type = Stem;
},
{
place = (46,65);
type = Stem;
}
);
layerId = m01;
shapes = (
{
closed = 1;
nodes = (
(46,168,o),
(224,-10,o),
(443,-10,cs),
(662,-10,o),
(840,168,o),
(840,385,cs),
(840,602,o),
(662,780,o),
(443,780,cs),
(224,780,o),
(46,602,o),
(46,385,cs)
);
},
{
closed = 1;
nodes = (
(111,568,o),
(259,720,o),
(443,720,cs),
(628,720,o),
(774,568,o),
(774,385,cs),
(774,202,o),
(628,50,o),
(443,50,cs),
(259,50,o),
(111,202,o),
(111,385,cs)
);
},
{
closed = 1;
nodes = (
(548,294,o),
(558,317,o),
(564,345,c),
(590,345,l),
(590,192,l),
(577,192,l),
(554,233,l),
(537,277,l)
);
},
{
closed = 1;
nodes = (
(556,549,l),
(577,583,l),
(590,583,l),
(590,446,l),
(562,446,l),
(558,460,o),
(554,472,o),
(542,492,c),
(552,549,l)
);
}
);
width = 886;
}
);
note = copyright;
unicode = 169;
},
{
glyphname = d;
kernLeft = d;
kernRight = d;
lastChange = "2024-01-06 19:41:42 +0000";
layers = (
{
hints = (
{
horizontal = 1;
place = (830,-20);
target = down;
type = TopGhost;
},
{
horizontal = 1;
place = (486,54);
type = Stem;
},
{
horizontal = 1;
place = (-10,72);
type = Stem;
},
{
place = (426,155);
type = Stem;
},
{
place = (37,171);
type = Stem;
}
);
layerId = m01;
shapes = (
{
closed = 1;
nodes = (
(660,73,l),
(660,52,l),
(452,-10,l),
(434,-10,l),
(434,51,l),
(581,98,l)
);
},
{
closed = 1;
nodes = (
(581,830,l),
(559,830,l),
(341,781,l),
(341,758,l),
(426,730,l),
(581,730,l)
);
}
);
width = 674;
}
);
note = d;
unicode = 100;
},
{
glyphname = dcaron;
kernLeft = d;
kernRight = d;
lastChange = "2024-01-06 19:41:50 +0000";
layers = (
{
hints = (
{
horizontal = 1;
place = (857,-20);
target = down;
type = TopGhost;
},
{
horizontal = 1;
place = (830,-20);
target = down;
type = TopGhost;
},
{
horizontal = 1;
place = (486,54);
type = Stem;
},
{
horizontal = 1;
place = (-10,72);
type = Stem;
},
{
place = (641,105);
type = Stem;
},
{
place = (426,155);
type = Stem;
},
{
place = (37,171);
type = Stem;
}
);
layerId = m01;
shapes = (
{
closed = 1;
nodes = (
(673,642,l),
(733,765,ls),
(742,784,o),
(746,802,o),
(746,817,cs),
(746,842,o),
(733,857,o),
(708,857,cs),
(669,857,o),
(641,833,o),
(641,783,cs),
(641,642,l)
);
},
{
ref = d;
}
);
width = 674;
}
);
note = dcaron;
unicode = 271;
},
{
glyphname = dcroat;
kernLeft = d;
kernRight = d;
lastChange = "2024-01-06 19:41:53 +0000";
layers = (
{
hints = (
{
horizontal = 1;
place = (830,-20);
target = down;
type = TopGhost;
},
{
horizontal = 1;
place = (599,85);
type = Stem;
},
{
horizontal = 1;
place = (486,54);
type = Stem;
},
{
horizontal = 1;
place = (-10,72);
type = Stem;
},
{
place = (434,147);
type = Stem;
},
{
place = (37,171);
type = Stem;
}
);
layerId = m01;
shapes = (
{
closed = 1;
nodes = (
(581,599,l),
(660,599,l),
(660,684,l),
(581,684,l),
(426,684,l),
(313,684,l),
(313,599,l),
(426,599,l)
);
},
{
ref = d;
}
);
width = 674;
}
);
note = dcroat;
unicode = 273;
},
{
glyphname = ddotbelow;
kernLeft = d;
kernRight = d;
lastChange = "2024-01-06 19:41:56 +0000";
layers = (
{
hints = (
{
horizontal = 1;
place = (830,-20);
target = down;
type = TopGhost;
},
{
horizontal = 1;
place = (486,54);
type = Stem;
},
{
horizontal = 1;
place = (-10,72);
type = Stem;
},
{
horizontal = 1;
place = (-260,165);
type = Stem;
},
{
place = (426,155);
type = Stem;
},
{
place = (243,175);
type = Stem;
},
{
place = (37,171);
type = Stem;
}
);
layerId = m01;
shapes = (
{
closed = 1;
nodes = (
(243,-219,o),
(273,-260,o),
(329,-260,cs),
(388,-260,o),
(418,-219,o),
(418,-178,cs),
(418,-134,o),
(384,-95,o),
(329,-95,cs),
(275,-95,o),
(243,-134,o),
(243,-178,cs)
);
},
{
ref = d;
}
);
width = 674;
}
);
note = ddotbelow;
unicode = 7693;
},
{
glyphname = dieresis;
layers = (
{
hints = (
{
horizontal = 1;
place = (637,143);
type = Stem;
},
{
place = (228,152);
type = Stem;
},
{
place = (10,152);
type = Stem;
}
);
layerId = m01;
shapes = (
{
closed = 1;
nodes = (
(10,673,o),
(36,637,o),
(85,637,cs),
(136,637,o),
(162,673,o),
(162,708,cs),
(162,746,o),
(132,780,o),
(85,780,cs),
(38,780,o),
(10,746,o),
(10,708,cs)
);
},
{
closed = 1;
nodes = (
(228,673,o),
(254,637,o),
(303,637,cs),
(354,637,o),
(380,673,o),
(380,708,cs),
(380,746,o),
(350,780,o),
(303,780,cs),
(256,780,o),
(228,746,o),
(228,708,cs)
);
}
);
width = 390;
}
);
note = dieresis;
unicode = 168;
},
{
glyphname = dieresis.cap;
layers = (
{
hints = (
{
horizontal = 1;
place = (829,136);
type = Stem;
},
{
place = (217,144);
type = Stem;
},
{
place = (10,144);
type = Stem;
}
);
layerId = m01;
shapes = (
{
closed = 1;
nodes = (
(10,864,o),
(34,829,o),
(81,829,cs),
(129,829,o),
(154,864,o),
(154,896,cs),
(154,932,o),
(126,965,o),
(81,965,cs),
(36,965,o),
(10,932,o),
(10,896,cs)
);
},
{
closed = 1;
nodes = (
(217,864,o),
(242,829,o),
(288,829,cs),
(337,829,o),
(361,864,o),
(361,896,cs),
(361,932,o),
(333,965,o),
(288,965,cs),
(243,965,o),
(217,932,o),
(217,896,cs)
);
}
);
width = 371;
}
);
note = dieresis.cap;
},
{
glyphname = dollar;
lastChange = "2024-01-06 19:42:21 +0000";
layers = (
{
hints = (
{
horizontal = 1;
place = (888,-20);
target = down;
type = TopGhost;
},
{
horizontal = 1;
place = (573,206);
type = Stem;
},
{
horizontal = 1;
place = (-9,211);
type = Stem;
},
{
horizontal = 1;
place = (-102,21);
target = up;
type = BottomGhost;
},
{
place = (395,132);
type = Stem;
},
{
place = (259,60);
type = Stem;
},
{
place = (42,145);
type = Stem;
}
);
layerId = m01;
shapes = (
{
closed = 1;
nodes = (
(319,888,l),
(259,888,l),
(259,50,l),
(215,55,o),
(189,81,o),
(178,129,cs),
(167,178,o),
(143,202,o),
(107,202,cs),
(68,202,o),
(43,177,o),
(43,138,cs),
(43,57,o),
(138,-9,o),
(259,-9,c),
(259,-102,l),
(319,-102,l),
(319,717,l),
(350,708,o),
(371,682,o),
(381,641,cs),
(393,594,o),
(415,573,o),
(452,573,cs),
(488,573,o),
(511,596,o),
(511,632,cs),
(511,711,o),
(427,774,o),
(319,779,c)
);
}
);
width = 565;
}
);
note = dollar;
unicode = 36;
},
{
glyphname = dollar.tnum;
lastChange = "2024-01-06 19:42:35 +0000";
layers = (
{
hints = (
{
horizontal = 1;
place = (888,-20);
target = down;
type = TopGhost;
},
{
horizontal = 1;
place = (573,206);
type = Stem;
},
{
horizontal = 1;
place = (-9,211);
type = Stem;
},
{
horizontal = 1;
place = (-102,21);
target = up;
type = BottomGhost;
},
{
place = (410,132);
type = Stem;
},
{
place = (274,60);
type = Stem;
},
{
place = (57,145);
type = Stem;
}
);
layerId = m01;
shapes = (
{
closed = 1;
nodes = (
(334,888,l),
(274,888,l),
(274,50,l),
(230,55,o),
(204,81,o),
(193,129,cs),
(182,178,o),
(158,202,o),
(122,202,cs),
(83,202,o),
(58,177,o),
(58,138,cs),
(58,57,o),
(153,-9,o),
(274,-9,c),
(274,-102,l),
(334,-102,l),
(334,-3,l),
(334,717,l),
(365,708,o),
(386,682,o),
(396,641,cs),
(408,594,o),
(430,573,o),
(467,573,cs),
(503,573,o),
(526,596,o),
(526,632,cs),
(526,711,o),
(442,774,o),
(334,779,c)
);
}
);
width = 600;
}
);
note = dollar.tnum;
},
{
glyphname = dotaccent;
layers = (
{
hints = (
{
horizontal = 1;
place = (614,165);
type = Stem;
},
{
place = (10,175);
type = Stem;
}
);
layerId = m01;
shapes = (
{
closed = 1;
nodes = (
(10,655,o),
(40,614,o),
(96,614,cs),
(155,614,o),
(185,655,o),
(185,696,cs),
(185,740,o),
(151,779,o),
(96,779,cs),
(42,779,o),
(10,740,o),
(10,696,cs)
);
}
);
width = 195;
}
);
note = dotaccent;
unicode = 729;
},
{
glyphname = dotaccent.cap;
layers = (
{
hints = (
{
horizontal = 1;
place = (830,136);
type = Stem;
},
{
place = (10,144);
type = Stem;
}
);
layerId = m01;
shapes = (
{
closed = 1;
nodes = (
(10,863,o),
(35,830,o),
(81,830,cs),
(129,830,o),
(154,863,o),
(154,898,cs),
(154,933,o),
(126,966,o),
(81,966,cs),
(36,966,o),
(10,933,o),
(10,898,cs)
);
}
);
width = 164;
}
);
note = dotaccent.cap;
},
{
glyphname = dotbelow;
layers = (
{
hints = (
{
horizontal = 1;
place = (-260,165);
type = Stem;
},
{
place = (10,175);
type = Stem;
}
);
layerId = m01;
shapes = (
{
closed = 1;
nodes = (
(10,-219,o),
(40,-260,o),
(96,-260,cs),
(155,-260,o),
(185,-219,o),
(185,-178,cs),
(185,-134,o),
(151,-95,o),
(96,-95,cs),
(42,-95,o),
(10,-134,o),
(10,-178,cs)
);
}
);
width = 195;
}
);
note = dotbelow;
},
{
glyphname = dotlessi;
kernLeft = dotlessi;
kernRight = dotlessi;
lastChange = "2024-01-06 19:42:52 +0000";
layers = (
{
hints = (
{
horizontal = 1;
place = (540,-20);
target = down;
type = TopGhost;
},
{
horizontal = 1;
place = (0,21);
target = up;
type = BottomGhost;
},
{
place = (109,155);
type = Stem;
}
);
layerId = m01;
shapes = (
{
closed = 1;
nodes = (
(243,540,l),
(24,492,l),
(24,468,l),
(109,441,l),
(264,540,l)
);
},
{
closed = 1;
nodes = (
(24,35,l),
(24,0,l),
(344,0,l),
(344,35,l),
(264,55,l),
(109,55,l)
);
}
);
width = 360;
}
);
note = dotlessi;
unicode = 305;
},
{
glyphname = dotlessj;
kernLeft = dotlessj;
kernRight = dotlessj;
lastChange = "2024-01-06 19:43:03 +0000";
layers = (
{
hints = (
{
horizontal = 1;
place = (540,-20);
target = down;
type = TopGhost;
},
{
horizontal = 1;
place = (-260,164);
type = Stem;
},
{
horizontal = 1;
place = (-260,52);
type = Stem;
},
{
place = (96,155);
type = Stem;
}
);
layerId = m01;
shapes = (
{
closed = 1;
nodes = (
(230,540,l),
(11,492,l),
(11,468,l),
(96,441,l),
(251,540,l)
);
},
{
closed = 1;
nodes = (
(-4,-208,o),
(-20,-192,o),
(-43,-144,cs),
(-61,-108,o),
(-78,-96,o),
(-109,-96,cs),
(-150,-96,o),
(-176,-120,o),
(-176,-158,cs),
(-176,-219,o),
(-105,-260,o),
(1,-260,cs),
(107,-260,o),
(23,-216,o),
(24,-208,c)
);
}
);
width = 330;
}
);
note = dotlessj;
unicode = 567;
},
{
glyphname = eacute;
kernLeft = c;
kernRight = ae;
lastChange = "2024-01-06 19:43:07 +0000";
layers = (
{
hints = (
{
horizontal = 1;
place = (859,-20);
target = down;
type = TopGhost;
},
{
horizontal = 1;
place = (489,51);
type = Stem;
},
{
horizontal = 1;
place = (290,51);
type = Stem;
},
{
horizontal = 1;
place = (-10,103);
type = Stem;
},
{
place = (412,162);
type = Stem;
},
{
place = (36,166);
type = Stem;
}
);
layerId = m01;
shapes = (
{
closed = 1;
nodes = (
(295,631,l),
(392,742,ls),
(415,768,o),
(425,794,o),
(425,814,cs),
(425,841,o),
(407,859,o),
(380,859,cs),
(341,859,o),
(317,836,o),
(305,793,cs),
(264,642,l)
);
}
);
width = 604;
}
);
note = eacute;
unicode = 233;
},
{
glyphname = ebreve;
kernLeft = c;
kernRight = ae;
lastChange = "2024-01-06 19:43:09 +0000";
layers = (
{
hints = (
{
horizontal = 1;
place = (641,149);
type = Stem;
},
{
horizontal = 1;
place = (641,104);
type = Stem;
},
{
horizontal = 1;
place = (489,51);
type = Stem;
},
{
horizontal = 1;
place = (290,51);
type = Stem;
},
{
horizontal = 1;
place = (-10,103);
type = Stem;
},
{
place = (412,162);
type = Stem;
},
{
place = (36,166);
type = Stem;
}
);
layerId = m01;
shapes = (
{
closed = 1;
nodes = (
(184,790,l),
(196,679,o),
(269,641,o),
(331,641,cs),
(377,641,o),
(454,657,o),
(488,790,c),
(439,790,l),
(417,758,o),
(377,745,o),
(335,745,cs),
(291,745,o),
(250,758,o),
(234,790,c)
);
}
);
width = 604;
}
);
note = ebreve;
unicode = 277;
},
{
glyphname = ecaron;
kernLeft = c;
kernRight = ae;
lastChange = "2024-01-06 19:43:11 +0000";
layers = (
{
hints = (
{
horizontal = 1;
place = (859,-20);
target = down;
type = TopGhost;
},
{
horizontal = 1;
place = (540,90);
type = Stem;
},
{
horizontal = 1;
place = (489,51);
type = Stem;
},
{
horizontal = 1;
place = (290,51);
type = Stem;
},
{
horizontal = 1;
place = (-10,103);
type = Stem;
},
{
place = (412,162);
type = Stem;
},
{
place = (36,166);
type = Stem;
}
);
layerId = m01;
shapes = (
{
closed = 1;
nodes = (
(361,630,o),
(378,643,o),
(396,678,cs),
(482,847,l),
(451,859,l),
(329,743,l),
(207,859,l),
(176,847,l),
(260,678,ls),
(277,644,o),
(298,630,o),
(330,630,cs)
);
}
);
width = 604;
}
);
note = ecaron;
unicode = 283;
},
{
glyphname = ecircumflex;
kernLeft = c;
kernRight = ae;
lastChange = "2024-01-06 19:43:12 +0000";
layers = (
{
hints = (
{
horizontal = 1;
place = (859,-20);
target = down;
type = TopGhost;
},
{
horizontal = 1;
place = (489,51);
type = Stem;
},
{
horizontal = 1;
place = (290,51);
type = Stem;
},
{
horizontal = 1;
place = (-10,103);
type = Stem;
},
{
place = (412,162);
type = Stem;
},
{
place = (36,166);
type = Stem;
}
);
layerId = m01;
shapes = (
{
closed = 1;
nodes = (
(305,859,o),
(284,845,o),
(267,811,cs),
(183,642,l),
(214,630,l),
(336,746,l),
(458,630,l),
(489,642,l),
(403,811,ls),
(385,846,o),
(368,859,o),
(337,859,cs)
);
}
);
width = 604;
}
);
note = ecircumflex;
unicode = 234;
},
{
glyphname = edieresis;
kernLeft = c;
kernRight = ae;
lastChange = "2024-01-06 19:43:13 +0000";
layers = (
{
hints = (
{
horizontal = 1;
place = (637,143);
type = Stem;
},
{
horizontal = 1;
place = (489,51);
type = Stem;
},
{
horizontal = 1;
place = (290,51);
type = Stem;
},
{
horizontal = 1;
place = (-10,103);
type = Stem;
},
{
place = (412,162);
type = Stem;
},
{
place = (367,152);
type = Stem;
},
{
place = (149,152);
type = Stem;
},
{
place = (36,166);
type = Stem;
}
);
layerId = m01;
shapes = (
{
closed = 1;
nodes = (
(149,673,o),
(175,637,o),
(224,637,cs),
(275,637,o),
(301,673,o),
(301,708,cs),
(301,746,o),
(271,780,o),
(224,780,cs),
(177,780,o),
(149,746,o),
(149,708,cs)
);
},
{
closed = 1;
nodes = (
(367,673,o),
(393,637,o),
(442,637,cs),
(493,637,o),
(519,673,o),
(519,708,cs),
(519,746,o),
(489,780,o),
(442,780,cs),
(395,780,o),
(367,746,o),
(367,708,cs)
);
}
);
width = 604;
}
);
note = edieresis;
unicode = 235;
},
{
glyphname = edotaccent;
kernLeft = c;
kernRight = ae;
lastChange = "2024-01-06 19:43:15 +0000";
layers = (
{
hints = (
{
horizontal = 1;
place = (614,165);
type = Stem;
},
{
horizontal = 1;
place = (489,51);
type = Stem;
},
{
horizontal = 1;
place = (290,51);
type = Stem;
},
{
horizontal = 1;
place = (-10,103);
type = Stem;
},
{
place = (412,162);
type = Stem;
},
{
place = (237,175);
type = Stem;
},
{
place = (36,166);
type = Stem;
}
);
layerId = m01;
shapes = (
{
closed = 1;
nodes = (
(237,655,o),
(267,614,o),
(323,614,cs),
(382,614,o),
(412,655,o),
(412,696,cs),
(412,740,o),
(378,779,o),
(323,779,cs),
(269,779,o),
(237,740,o),
(237,696,cs)
);
}
);
width = 604;
}
);
note = edotaccent;
unicode = 279;
},
{
glyphname = edotbelow;
kernLeft = c;
kernRight = ae;
lastChange = "2024-01-06 19:43:16 +0000";
layers = (
{
hints = (
{
horizontal = 1;
place = (489,51);
type = Stem;
},
{
horizontal = 1;
place = (290,51);
type = Stem;
},
{
horizontal = 1;
place = (-10,103);
type = Stem;
},
{
horizontal = 1;
place = (-260,165);
type = Stem;
},
{
place = (412,162);
type = Stem;
},
{
place = (237,175);
type = Stem;
},
{
place = (36,166);
type = Stem;
}
);
layerId = m01;
shapes = (
{
closed = 1;
nodes = (
(237,-219,o),
(267,-260,o),
(323,-260,cs),
(382,-260,o),
(412,-219,o),
(412,-178,cs),
(412,-134,o),
(378,-95,o),
(323,-95,cs),
(269,-95,o),
(237,-134,o),
(237,-178,cs)
);
}
);
width = 604;
}
);
note = edotbelow;
unicode = 7865;
},
{
glyphname = egrave;
kernLeft = c;
kernRight = ae;
lastChange = "2024-01-06 19:43:18 +0000";
layers = (
{
hints = (
{
horizontal = 1;
place = (859,-20);
target = down;
type = TopGhost;
},
{
horizontal = 1;
place = (489,51);
type = Stem;
},
{
horizontal = 1;
place = (290,51);
type = Stem;
},
{
horizontal = 1;
place = (-10,103);
type = Stem;
},
{
place = (412,162);
type = Stem;
},
{
place = (36,166);
type = Stem;
}
);
layerId = m01;
shapes = (
{
closed = 1;
nodes = (
(401,642,l),
(360,793,ls),
(348,836,o),
(324,859,o),
(285,859,cs),
(258,859,o),
(240,841,o),
(240,814,cs),
(240,794,o),
(250,768,o),
(273,742,cs),
(370,631,l)
);
}
);
width = 604;
}
);
note = egrave;
unicode = 232;
},
{
glyphname = emacron;
kernLeft = c;
kernRight = ae;
lastChange = "2024-01-06 19:43:27 +0000";
layers = (
{
hints = (
{
horizontal = 1;
place = (694,96);
type = Stem;
},
{
horizontal = 1;
place = (489,51);
type = Stem;
},
{
horizontal = 1;
place = (290,51);
type = Stem;
},
{
horizontal = 1;
place = (-10,103);
type = Stem;
},
{
place = (412,162);
type = Stem;
},
{
place = (36,166);
type = Stem;
}
);
layerId = m01;
shapes = (
{
closed = 1;
nodes = (
(487,694,l),
(487,790,l),
(180,790,l),
(180,694,l)
);
}
);
width = 604;
}
);
note = emacron;
unicode = 275;
},
{
glyphname = eng;
kernLeft = eng;
lastChange = "2024-01-06 19:43:45 +0000";
layers = (
{
hints = (
{
horizontal = 1;
place = (450,90);
type = Stem;
},
{
horizontal = 1;
place = (-260,164);
type = Stem;
},
{
horizontal = 1;
place = (-260,52);
type = Stem;
},
{
horizontal = 1;
place = (0,21);
target = up;
type = BottomGhost;
},
{
place = (436,155);
type = Stem;
},
{
place = (102,155);
type = Stem;
}
);
layerId = m01;
shapes = (
{
closed = 1;
nodes = (
(336,-208,o),
(320,-192,o),
(297,-144,cs),
(279,-108,o),
(262,-96,o),
(231,-96,cs),
(190,-96,o),
(164,-120,o),
(164,-158,cs),
(164,-219,o),
(235,-260,o),
(341,-260,c),
(364,-208,l)
);
},
{
closed = 1;
nodes = (
(27,35,l),
(27,0,l),
(327,0,l),
(327,35,l),
(257,55,l),
(205,55,o),
(106,50,o),
(102,55,c)
);
},
{
closed = 1;
nodes = (
(230,540,l),
(26,491,l),
(26,468,l),
(102,440,l),
(252,540,l)
);
}
);
width = 661;
}
);
note = eng;
unicode = 331;
},
{
glyphname = eogonek;
kernLeft = c;
kernRight = ae;
lastChange = "2024-01-06 19:43:51 +0000";
layers = (
{
hints = (
{
horizontal = 1;
place = (489,51);
type = Stem;
},
{
horizontal = 1;
place = (290,51);
type = Stem;
},
{
horizontal = 1;
place = (-10,103);
type = Stem;
},
{
horizontal = 1;
place = (-256,75);
type = Stem;
},
{
place = (412,162);
type = Stem;
},
{
place = (239,113);
type = Stem;
},
{
place = (36,166);
type = Stem;
}
);
layerId = m01;
shapes = (
{
closed = 1;
nodes = (
(456,-160,l),
(434,-175,o),
(419,-181,o),
(400,-181,cs),
(367,-181,o),
(352,-162,o),
(352,-124,cs),
(352,-77,o),
(374,-33,o),
(426,3,c),
(342,-8,l),
(277,-60,o),
(239,-118,o),
(239,-170,cs),
(239,-222,o),
(278,-256,o),
(344,-256,cs),
(391,-256,o),
(433,-239,o),
(471,-202,c)
);
}
);
width = 604;
}
);
note = eogonek;
unicode = 281;
},
{
glyphname = eth;
kernLeft = eth;
lastChange = "2024-01-06 19:43:58 +0000";
layers = (
{
hints = (
{
horizontal = 1;
place = (780,-20);
target = down;
type = TopGhost;
},
{
horizontal = 1;
place = (397,75);
type = Stem;
},
{
horizontal = 1;
place = (-10,60);
type = Stem;
},
{
place = (395,164);
type = Stem;
},
{
place = (36,164);
type = Stem;
}
);
layerId = m01;
shapes = (
{
closed = 1;
nodes = (
(483,713,l),
(439,774,l),
(333,699,l),
(255,644,l),
(156,575,l),
(199,513,l),
(307,589,l),
(396,651,l)
);
}
);
width = 607;
}
);
note = eth;
unicode = 240;
},
{
glyphname = etilde;
kernLeft = c;
kernRight = ae;
lastChange = "2024-01-06 19:44:00 +0000";
layers = (
{
hints = (
{
horizontal = 1;
place = (810,-20);
target = down;
type = TopGhost;
},
{
horizontal = 1;
place = (701,107);
type = Stem;
},
{
horizontal = 1;
place = (701,71);
type = Stem;
},
{
horizontal = 1;
place = (662,110);
type = Stem;
},
{
horizontal = 1;
place = (489,51);
type = Stem;
},
{
horizontal = 1;
place = (290,51);
type = Stem;
},
{
horizontal = 1;
place = (-10,103);
type = Stem;
},
{
place = (412,162);
type = Stem;
},
{
place = (36,166);
type = Stem;
}
);
layerId = m01;
shapes = (
{
closed = 1;
nodes = (
(199,663,l),
(203,686,o),
(225,701,o),
(260,701,cs),
(310,701,o),
(329,662,o),
(385,662,cs),
(453,662,o),
(487,718,o),
(487,810,c),
(448,810,l),
(442,786,o),
(420,772,o),
(388,772,cs),
(342,772,o),
(319,808,o),
(267,808,cs),
(205,808,o),
(160,757,o),
(160,663,c)
);
}
);
width = 604;
}
);
note = etilde;
unicode = 7869;
},
{
glyphname = f;
kernLeft = f;
kernRight = f;
lastChange = "2024-01-06 19:44:27 +0000";
layers = (
{
hints = (
{
horizontal = 1;
place = (779,51);
type = Stem;
},
{
horizontal = 1;
place = (666,164);
type = Stem;
},
{
horizontal = 1;
place = (483,47);
type = Stem;
},
{
horizontal = 1;
place = (0,21);
target = up;
type = BottomGhost;
},
{
place = (116,155);
type = Stem;
}
);
layerId = m01;
shapes = (
{
closed = 1;
nodes = (
(31,35,l),
(31,0,l),
(394,0,l),
(394,35,l),
(271,55,l),
(116,55,l)
);
},
{
closed = 1;
nodes = (
(28,530,l),
(14,483,l),
(392,483,l),
(406,530,l)
);
},
{
closed = 1;
nodes = (
(473,830,o),
(543,791,o),
(543,732,cs),
(543,693,o),
(515,666,o),
(474,666,cs),
(439,666,o),
(414,688,o),
(404,727,cs),
(394,765,o),
(380,779,o),
(349,779,c),
(368,830,l)
);
}
);
width = 422;
}
);
note = f;
unicode = 102;
},
{
glyphname = f_b;
kernLeft = f;
kernRight = b;
lastChange = "2024-01-06 19:44:53 +0000";
layers = (
{
hints = (
{
horizontal = 1;
place = (530,-20);
target = down;
type = TopGhost;
},
{
horizontal = 1;
place = (776,53);
type = Stem;
},
{
horizontal = 1;
place = (483,57);
type = Stem;
},
{
horizontal = 1;
place = (462,78);
type = Stem;
},
{
horizontal = 1;
place = (0,44);
type = Stem;
},
{
horizontal = 1;
place = (-10,21);
target = up;
type = BottomGhost;
},
{
place = (869,169);
type = Stem;
},
{
place = (496,155);
type = Stem;
},
{
place = (116,155);
type = Stem;
}
);
layerId = m01;
shapes = (
{
closed = 1;
nodes = (
(31,35,l),
(31,0,l),
(374,0,l),
(374,35,l),
(271,55,l),
(116,55,l)
);
},
{
closed = 1;
nodes = (
(28,530,l),
(14,483,l),
(408,483,l),
(430,530,l)
);
},
{
closed = 1;
nodes = (
(525,0,l),
(496,0,l),
(496,36,l),
(611,36,l)
);
}
);
width = 1075;
}
);
note = f_b;
},
{
glyphname = f_f;
kernLeft = f;
kernRight = f;
lastChange = "2024-01-06 19:45:41 +0000";
layers = (
{
hints = (
{
horizontal = 1;
place = (779,51);
type = Stem;
},
{
horizontal = 1;
place = (727,53);
type = Stem;
},
{
horizontal = 1;
place = (666,164);
type = Stem;
},
{
horizontal = 1;
place = (483,47);
type = Stem;
},
{
horizontal = 1;
place = (0,21);
target = up;
type = BottomGhost;
},
{
place = (496,155);
type = Stem;
},
{
place = (116,155);
type = Stem;
}
);
layerId = m01;
shapes = (
{
closed = 1;
nodes = (
(853,830,o),
(923,791,o),
(923,732,cs),
(923,693,o),
(895,666,o),
(854,666,cs),
(819,666,o),
(794,688,o),
(784,727,cs),
(774,765,o),
(760,779,o),
(729,779,c),
(748,830,l)
);
},
{
closed = 1;
nodes = (
(772,483,l),
(786,530,l),
(28,530,l),
(14,483,l)
);
},
{
closed = 1;
nodes = (
(31,35,l),
(31,0,l),
(374,0,l),
(374,35,l),
(271,55,l),
(116,55,l)
);
},
{
closed = 1;
nodes = (
(774,35,l),
(774,0,l),
(411,0,l),
(411,35,l),
(496,55,l),
(651,55,l)
);
}
);
width = 802;
}
);
note = f_f;
unicode = 64256;
},
{
glyphname = f_f_b;
kernLeft = f;
kernRight = b;
lastChange = "2024-01-06 19:46:12 +0000";
layers = (
{
hints = (
{
horizontal = 1;
place = (530,-20);
target = down;
type = TopGhost;
},
{
horizontal = 1;
place = (776,53);
type = Stem;
},
{
horizontal = 1;
place = (727,53);
type = Stem;
},
{
horizontal = 1;
place = (483,57);
type = Stem;
},
{
horizontal = 1;
place = (462,78);
type = Stem;
},
{
horizontal = 1;
place = (0,44);
type = Stem;
},
{
horizontal = 1;
place = (-10,21);
target = up;
type = BottomGhost;
},
{
place = (1249,169);
type = Stem;
},
{
place = (876,155);
type = Stem;
},
{
place = (496,155);
type = Stem;
},
{
place = (116,155);
type = Stem;
}
);
layerId = m01;
shapes = (
{
closed = 1;
nodes = (
(31,35,l),
(31,0,l),
(374,0,l),
(374,35,l),
(271,55,l),
(116,55,l)
);
},
{
closed = 1;
nodes = (
(754,35,l),
(754,0,l),
(411,0,l),
(411,35,l),
(496,55,l),
(651,55,l)
);
},
{
closed = 1;
nodes = (
(876,0,l),
(905,0,l),
(991,36,l),
(876,36,l)
);
}
);
width = 1455;
}
);
note = f_f_b;
},
{
glyphname = f_f_h;
kernLeft = f;
kernRight = f_f_h;
lastChange = "2024-01-06 19:47:28 +0000";
layers = (
{
hints = (
{
horizontal = 1;
place = (540,-20);
target = down;
type = TopGhost;
},
{
horizontal = 1;
place = (776,53);
type = Stem;
},
{
horizontal = 1;
place = (727,53);
type = Stem;
},
{
horizontal = 1;
place = (483,47);
type = Stem;
},
{
horizontal = 1;
place = (454,76);
type = Stem;
},
{
horizontal = 1;
place = (0,21);
target = up;
type = BottomGhost;
},
{
place = (1214,155);
type = Stem;
},
{
place = (875,155);
type = Stem;
},
{
place = (495,155);
type = Stem;
},
{
place = (116,155);
type = Stem;
}
);
layerId = m01;
shapes = (
{
closed = 1;
nodes = (
(1100,35,l),
(1100,0,l),
(800,0,l),
(800,35,l),
(875,55,l),
(1030,55,l)
);
},
{
closed = 1;
nodes = (
(410,35,l),
(410,0,l),
(753,0,l),
(753,35,l),
(650,55,l),
(495,55,l)
);
},
{
closed = 1;
nodes = (
(374,35,l),
(374,0,l),
(31,0,l),
(31,35,l),
(117,55,l),
(271,55,l)
);
},
{
closed = 1;
nodes = (
(1444,35,l),
(1444,0,l),
(1144,0,l),
(1144,35,l),
(1214,55,l),
(1369,55,l)
);
},
{
closed = 1;
nodes = (
(805,483,l),
(819,530,l),
(28,530,l),
(14,483,l)
);
}
);
width = 1462;
}
);
note = f_f_h;
},
{
glyphname = f_f_i;
kernLeft = f;
kernRight = dotlessi;
lastChange = "2024-01-06 19:48:35 +0000";
layers = (
{
hints = (
{
horizontal = 1;
place = (550,-20);
target = down;
type = TopGhost;
},
{
horizontal = 1;
place = (776,53);
type = Stem;
},
{
horizontal = 1;
place = (727,53);
type = Stem;
},
{
horizontal = 1;
place = (632,197);
type = Stem;
},
{
horizontal = 1;
place = (483,47);
type = Stem;
},
{
horizontal = 1;
place = (0,21);
target = up;
type = BottomGhost;
},
{
place = (877,155);
type = Stem;
},
{
place = (497,155);
type = Stem;
},
{
place = (116,155);
type = Stem;
}
);
layerId = m01;
shapes = (
{
closed = 1;
nodes = (
(792,35,l),
(792,0,l),
(1112,0,l),
(1112,35,l),
(1032,55,l),
(980,55,o),
(882,51,o),
(877,55,c)
);
},
{
closed = 1;
nodes = (
(412,35,l),
(412,0,l),
(755,0,l),
(755,35,l),
(652,55,l),
(497,55,l)
);
},
{
closed = 1;
nodes = (
(946,829,o),
(1039,780,o),
(1039,707,cs),
(1039,663,o),
(1008,632,o),
(963,632,cs),
(920,632,o),
(888,657,o),
(870,706,cs),
(847,766,o),
(835,776,o),
(787,776,c),
(808,829,l)
);
},
{
closed = 1;
nodes = (
(1032,550,l),
(1009,550,l),
(792,530,l),
(497,530,l),
(271,530,l),
(28,530,l),
(14,483,l),
(271,483,l),
(497,483,l),
(792,483,l),
(877,441,l),
(1032,441,l)
);
},
{
closed = 1;
nodes = (
(31,35,l),
(31,0,l),
(374,0,l),
(374,35,l),
(271,55,l),
(116,55,l)
);
}
);
width = 1128;
}
);
note = f_f_i;
unicode = 64259;
},
{
glyphname = f_f_j;
kernLeft = f;
kernRight = dotlessj;
lastChange = "2024-01-06 19:50:01 +0000";
layers = (
{
hints = (
{
horizontal = 1;
place = (550,-20);
target = down;
type = TopGhost;
},
{
horizontal = 1;
place = (776,53);
type = Stem;
},
{
horizontal = 1;
place = (727,53);
type = Stem;
},
{
horizontal = 1;
place = (632,197);
type = Stem;
},
{
horizontal = 1;
place = (483,47);
type = Stem;
},
{
horizontal = 1;
place = (-260,164);
type = Stem;
},
{
horizontal = 1;
place = (-260,52);
type = Stem;
},
{
horizontal = 1;
place = (0,21);
target = up;
type = BottomGhost;
},
{
place = (877,155);
type = Stem;
},
{
place = (497,155);
type = Stem;
},
{
place = (116,155);
type = Stem;
}
);
layerId = m01;
shapes = (
{
closed = 1;
nodes = (
(755,35,l),
(755,0,l),
(412,0,l),
(412,35,l),
(497,55,l),
(652,55,l)
);
},
{
closed = 1;
nodes = (
(31,35,l),
(31,0,l),
(374,0,l),
(374,35,l),
(271,55,l),
(116,55,l)
);
},
{
closed = 1;
nodes = (
(777,-208,o),
(761,-192,o),
(738,-144,cs),
(720,-108,o),
(703,-96,o),
(672,-96,cs),
(631,-96,o),
(605,-120,o),
(605,-158,cs),
(605,-219,o),
(676,-260,o),
(782,-260,c),
(805,-208,l)
);
},
{
closed = 1;
nodes = (
(946,829,o),
(1039,780,o),
(1039,707,cs),
(1039,663,o),
(1008,632,o),
(963,632,cs),
(920,632,o),
(888,657,o),
(870,706,cs),
(847,766,o),
(835,776,o),
(787,776,c),
(808,829,l)
);
},
{
closed = 1;
nodes = (
(1032,550,l),
(1011,550,l),
(792,530,l),
(28,530,l),
(14,483,l),
(792,483,l),
(877,441,l),
(1032,442,l)
);
}
);
width = 1111;
}
);
note = f_f_j;
},
{
glyphname = f_f_k;
kernLeft = f;
kernRight = f_f_k;
lastChange = "2024-01-06 19:50:58 +0000";
layers = (
{
hints = (
{
horizontal = 1;
place = (776,53);
type = Stem;
},
{
horizontal = 1;
place = (727,53);
type = Stem;
},
{
horizontal = 1;
place = (483,47);
type = Stem;
},
{
horizontal = 1;
place = (0,21);
target = up;
type = BottomGhost;
},
{
place = (877,155);
type = Stem;
},
{
place = (497,155);
type = Stem;
},
{
place = (116,155);
type = Stem;
}
);
layerId = m01;
shapes = (
{
closed = 1;
nodes = (
(1211,452,o),
(1220,463,o),
(1220,471,cs),
(1220,483,o),
(1202,488,o),
(1134,495,c),
(1134,530,l),
(1409,530,l),
(1409,495,l),
(1320,482,o),
(1306,471,o),
(1273,438,c),
(1195,435,l)
);
},
{
closed = 1;
nodes = (
(1459,0,l),
(1459,35,l),
(1377,55,l),
(1227,0,l)
);
},
{
closed = 1;
nodes = (
(792,35,l),
(792,0,l),
(1119,0,l),
(1119,35,l),
(1032,55,l),
(877,55,l)
);
},
{
closed = 1;
nodes = (
(412,35,l),
(412,0,l),
(755,0,l),
(755,35,l),
(652,55,l),
(497,55,l)
);
},
{
closed = 1;
nodes = (
(31,35,l),
(31,0,l),
(374,0,l),
(374,35,l),
(271,55,l),
(116,55,l)
);
},
{
closed = 1;
nodes = (
(808,483,l),
(820,530,l),
(652,530,l),
(271,530,l),
(28,530,l),
(14,483,l),
(271,483,l),
(652,483,l)
);
}
);
width = 1445;
}
);
note = f_f_k;
},
{
glyphname = f_f_l;
kernLeft = f;
kernRight = f_f_l;
lastChange = "2024-01-06 19:51:50 +0000";
layers = (
{
hints = (
{
horizontal = 1;
place = (776,53);
type = Stem;
},
{
horizontal = 1;
place = (727,53);
type = Stem;
},
{
horizontal = 1;
place = (483,47);
type = Stem;
},
{
horizontal = 1;
place = (0,21);
target = up;
type = BottomGhost;
},
{
place = (876,155);
type = Stem;
},
{
place = (496,155);
type = Stem;
},
{
place = (116,155);
type = Stem;
}
);
layerId = m01;
shapes = (
{
closed = 1;
nodes = (
(1111,35,l),
(1111,0,l),
(791,0,l),
(791,35,l),
(876,55,l),
(1031,55,l)
);
},
{
closed = 1;
nodes = (
(411,35,l),
(411,0,l),
(754,0,l),
(754,35,l),
(651,55,l),
(496,55,l)
);
},
{
closed = 1;
nodes = (
(31,35,l),
(31,0,l),
(374,0,l),
(374,35,l),
(271,55,l),
(116,55,l)
);
},
{
closed = 1;
nodes = (
(651,530,l),
(116,530,l),
(28,530,l),
(14,483,l),
(116,483,l),
(651,483,l),
(876,483,l),
(876,530,l)
);
}
);
width = 1130;
}
);
note = f_f_l;
unicode = 64260;
},
{
glyphname = f_f_t;
kernLeft = f;
kernRight = c_t;
lastChange = "2024-01-06 19:52:58 +0000";
layers = (
{
hints = (
{
horizontal = 1;
place = (779,51);
type = Stem;
},
{
horizontal = 1;
place = (727,53);
type = Stem;
},
{
horizontal = 1;
place = (666,164);
type = Stem;
},
{
horizontal = 1;
place = (483,47);
type = Stem;
},
{
horizontal = 1;
place = (0,62);
type = Stem;
},
{
horizontal = 1;
place = (-10,21);
target = up;
type = BottomGhost;
},
{
place = (877,155);
type = Stem;
},
{
place = (497,155);
type = Stem;
},
{
place = (116,155);
type = Stem;
}
);
layerId = m01;
shapes = (
{
closed = 1;
nodes = (
(775,35,l),
(775,0,l),
(412,0,l),
(412,35,l),
(497,55,l),
(652,55,l)
);
},
{
closed = 1;
nodes = (
(374,35,l),
(374,0,l),
(31,0,l),
(31,35,l),
(116,55,l),
(271,55,l)
);
},
{
closed = 1;
nodes = (
(652,483,l),
(1032,483,l),
(1172,483,l),
(1187,530,l),
(826,530,l),
(497,530,l),
(271,530,l),
(28,530,l),
(14,483,l),
(116,483,l)
);
},
{
closed = 0;
nodes = (
(1042,90,l)
);
},
{
closed = 1;
nodes = (
(940,0,o),
(979,-10,o),
(1022,-10,cs),
(1086,-10,o),
(1145,13,o),
(1180,57,c),
(1157,90,l),
(1139,69,o),
(1118,62,o),
(1097,62,cs),
(1071,62,o),
(1053,72,o),
(1042,90,c),
(915,18,l)
);
},
{
closed = 1;
nodes = (
(854,830,o),
(924,791,o),
(924,731,cs),
(924,693,o),
(896,666,o),
(855,666,cs),
(813,666,o),
(795,694,o),
(785,727,cs),
(775,760,o),
(767,779,o),
(730,779,c),
(752,830,l)
);
}
);
width = 1187;
}
);
note = f_f_t;
},
{
glyphname = f_h;
kernLeft = f;
kernRight = f_f_h;
lastChange = "2024-01-06 19:53:34 +0000";
layers = (
{
hints = (
{
horizontal = 1;
place = (540,-20);
target = down;
type = TopGhost;
},
{
horizontal = 1;
place = (776,53);
type = Stem;
},
{
horizontal = 1;
place = (483,47);
type = Stem;
},
{
horizontal = 1;
place = (454,76);
type = Stem;
},
{
horizontal = 1;
place = (0,21);
target = up;
type = BottomGhost;
},
{
place = (835,155);
type = Stem;
},
{
place = (496,155);
type = Stem;
},
{
place = (116,155);
type = Stem;
}
);
layerId = m01;
shapes = (
{
closed = 1;
nodes = (
(31,35,l),
(31,0,l),
(374,0,l),
(374,35,l),
(271,55,l),
(116,55,l)
);
},
{
closed = 1;
nodes = (
(721,35,l),
(721,0,l),
(421,0,l),
(421,35,l),
(496,55,l),
(651,55,l)
);
},
{
closed = 1;
nodes = (
(1065,35,l),
(1065,0,l),
(765,0,l),
(765,35,l),
(835,55,l),
(990,55,l)
);
},
{
closed = 1;
nodes = (
(28,530,l),
(14,483,l),
(116,483,l),
(435,483,l),
(451,530,l),
(271,530,l)
);
}
);
width = 1083;
}
);
note = f_h;
},
{
glyphname = f_i;
kernLeft = f;
kernRight = dotlessi;
lastChange = "2024-01-06 19:54:26 +0000";
layers = (
{
hints = (
{
horizontal = 1;
place = (550,-20);
target = down;
type = TopGhost;
},
{
horizontal = 1;
place = (776,53);
type = Stem;
},
{
horizontal = 1;
place = (632,197);
type = Stem;
},
{
horizontal = 1;
place = (483,47);
type = Stem;
},
{
horizontal = 1;
place = (0,21);
target = up;
type = BottomGhost;
},
{
place = (496,155);
type = Stem;
},
{
place = (116,155);
type = Stem;
}
);
layerId = m01;
shapes = (
{
closed = 1;
nodes = (
(411,35,l),
(411,0,l),
(731,0,l),
(731,35,l),
(651,55,l),
(496,55,l)
);
},
{
closed = 1;
nodes = (
(31,35,l),
(31,0,l),
(374,0,l),
(374,35,l),
(271,55,l),
(116,55,l)
);
},
{
closed = 1;
nodes = (
(651,550,l),
(630,550,l),
(411,530,l),
(271,530,l),
(28,530,l),
(14,483,l),
(271,483,l),
(411,483,l),
(496,441,l),
(651,442,l)
);
},
{
closed = 1;
nodes = (
(566,829,o),
(658,780,o),
(658,706,cs),
(658,662,o),
(626,632,o),
(580,632,cs),
(539,632,o),
(507,657,o),
(489,706,cs),
(472,753,o),
(445,776,o),
(398,776,c),
(428,829,l)
);
}
);
width = 747;
}
);
note = f_i;
unicode = 64257;
},
{
glyphname = f_j;
kernLeft = f;
kernRight = dotlessj;
lastChange = "2024-01-06 19:56:43 +0000";
layers = (
{
hints = (
{
horizontal = 1;
place = (550,-20);
target = down;
type = TopGhost;
},
{
horizontal = 1;
place = (776,53);
type = Stem;
},
{
horizontal = 1;
place = (632,197);
type = Stem;
},
{
horizontal = 1;
place = (483,47);
type = Stem;
},
{
horizontal = 1;
place = (-260,164);
type = Stem;
},
{
horizontal = 1;
place = (-260,52);
type = Stem;
},
{
horizontal = 1;
place = (0,21);
target = up;
type = BottomGhost;
},
{
place = (496,155);
type = Stem;
},
{
place = (116,155);
type = Stem;
}
);
layerId = m01;
shapes = (
{
closed = 1;
nodes = (
(31,35,l),
(31,0,l),
(374,0,l),
(374,35,l),
(271,55,l),
(116,55,l)
);
},
{
closed = 1;
nodes = (
(651,550,l),
(630,550,l),
(411,530,l),
(271,530,l),
(28,530,l),
(14,483,l),
(271,483,l),
(411,483,l),
(496,441,l),
(651,441,l)
);
},
{
closed = 1;
nodes = (
(565,829,o),
(658,780,o),
(658,707,cs),
(658,663,o),
(627,632,o),
(582,632,cs),
(539,632,o),
(507,657,o),
(489,706,cs),
(466,766,o),
(454,776,o),
(406,776,c),
(427,829,l)
);
},
{
closed = 1;
nodes = (
(396,-208,o),
(380,-192,o),
(357,-144,cs),
(339,-108,o),
(322,-96,o),
(291,-96,cs),
(250,-96,o),
(224,-120,o),
(224,-158,cs),
(224,-219,o),
(295,-260,o),
(401,-260,c),
(424,-208,l)
);
}
);
width = 730;
}
);
note = f_j;
},
{
glyphname = f_k;
kernLeft = f;
kernRight = f_f_k;
lastChange = "2024-01-06 19:57:32 +0000";
layers = (
{
hints = (
{
horizontal = 1;
place = (776,53);
type = Stem;
},
{
horizontal = 1;
place = (483,47);
type = Stem;
},
{
horizontal = 1;
place = (0,21);
target = up;
type = BottomGhost;
},
{
place = (496,155);
type = Stem;
},
{
place = (116,155);
type = Stem;
}
);
layerId = m01;
shapes = (
{
closed = 1;
nodes = (
(31,35,l),
(31,0,l),
(374,0,l),
(374,35,l),
(271,55,l),
(116,55,l)
);
},
{
closed = 1;
nodes = (
(28,530,l),
(14,483,l),
(271,483,l),
(448,483,l),
(458,530,l),
(271,530,l)
);
},
{
closed = 1;
nodes = (
(738,35,l),
(738,0,l),
(411,0,l),
(411,35,l),
(496,55,l),
(651,55,l)
);
},
{
closed = 1;
nodes = (
(1078,35,l),
(1078,0,l),
(846,0,l),
(996,55,l)
);
},
{
closed = 1;
nodes = (
(830,452,o),
(839,463,o),
(839,471,cs),
(839,483,o),
(821,488,o),
(753,495,c),
(753,530,l),
(1028,530,l),
(1028,495,l),
(939,482,o),
(925,471,o),
(892,438,c),
(814,435,l)
);
}
);
width = 1064;
}
);
note = f_k;
},
{
glyphname = f_l;
kernLeft = f;
kernRight = f_f_l;
lastChange = "2024-01-06 20:05:38 +0000";
layers = (
{
hints = (
{
horizontal = 1;
place = (776,53);
type = Stem;
},
{
horizontal = 1;
place = (483,47);
type = Stem;
},
{
horizontal = 1;
place = (0,21);
target = up;
type = BottomGhost;
},
{
place = (496,155);
type = Stem;
},
{
place = (116,155);
type = Stem;
}
);
layerId = m01;
shapes = (
{
closed = 1;
nodes = (
(31,35,l),
(31,0,l),
(374,0,l),
(374,35,l),
(271,55,l),
(116,55,l)
);
},
{
closed = 1;
nodes = (
(731,35,l),
(731,0,l),
(411,0,l),
(411,35,l),
(496,55,l),
(651,55,l)
);
},
{
closed = 1;
nodes = (
(28,530,l),
(14,483,l),
(496,483,l),
(496,530,l)
);
}
);
width = 750;
}
);
note = f_l;
unicode = 64258;
},
{
glyphname = f_t;
kernLeft = f;
kernRight = c_t;
lastChange = "2024-01-07 22:32:12 +0000";
layers = (
{
hints = (
{
horizontal = 1;
place = (779,51);
type = Stem;
},
{
horizontal = 1;
place = (666,164);
type = Stem;
},
{
horizontal = 1;
place = (483,47);
type = Stem;
},
{
horizontal = 1;
place = (0,62);
type = Stem;
},
{
horizontal = 1;
place = (-10,21);
target = up;
type = BottomGhost;
},
{
place = (496,155);
type = Stem;
},
{
place = (116,155);
type = Stem;
}
);
layerId = m01;
shapes = (
{
closed = 1;
nodes = (
(31,35,l),
(31,0,l),
(394,0,l),
(394,35,l),
(271,55,l),
(116,55,l)
);
},
{
closed = 1;
nodes = (
(791,483,l),
(806,530,l),
(445,530,l),
(271,530,l),
(28,530,l),
(14,483,l),
(271,483,l),
(496,483,l)
);
},
{
closed = 1;
nodes = (
(472,830,o),
(543,791,o),
(543,731,cs),
(543,693,o),
(515,666,o),
(474,666,cs),
(425,666,o),
(411,705,o),
(404,727,cs),
(394,760,o),
(357,788,o),
(349,779,c),
(373,830,l)
);
},
{
closed = 1;
nodes = (
(672,72,o),
(690,62,o),
(716,62,cs),
(737,62,o),
(758,69,o),
(776,90,c),
(799,57,l),
(764,13,o),
(705,-10,o),
(641,-10,cs),
(598,-10,o),
(559,0,o),
(534,18,c),
(661,90,l)
);
}
);
width = 806;
}
);
note = f_t;
},
{
glyphname = five;
lastChange = "2024-01-07 22:32:20 +0000";
layers = (
{
hints = (
{
horizontal = 1;
place = (807,-20);
target = down;
type = TopGhost;
},
{
horizontal = 1;
place = (620,137);
type = Stem;
},
{
horizontal = 1;
place = (357,143);
type = Stem;
},
{
horizontal = 1;
place = (-10,204);
type = Stem;
},
{
horizontal = 1;
place = (-10,64);
type = Stem;
},
{
place = (382,134);
type = Stem;
}
);
layerId = m01;
shapes = (
{
closed = 1;
nodes = (
(254,54,l),
(143,54,o),
(188,194,o),
(98,194,cs),
(56,194,o),
(27,163,o),
(27,120,cs),
(27,45,o),
(111,-10,o),
(225,-10,c)
);
}
);
width = 558;
}
);
note = five;
unicode = 53;
},
{
glyphname = five.denominator;
lastChange = "2024-01-07 22:32:25 +0000";
layers = (
{
hints = (
{
horizontal = 1;
place = (528,-20);
target = down;
type = TopGhost;
},
{
horizontal = 1;
place = (398,96);
type = Stem;
},
{
horizontal = 1;
place = (225,104);
type = Stem;
},
{
horizontal = 1;
place = (-7,136);
type = Stem;
},
{
horizontal = 1;
place = (-7,45);
type = Stem;
},
{
place = (287,116);
type = Stem;
}
);
layerId = m01;
shapes = (
{
closed = 1;
nodes = (
(196,38,l),
(110,38,o),
(146,129,o),
(75,129,cs),
(40,129,o),
(14,108,o),
(14,79,cs),
(14,30,o),
(81,-7,o),
(173,-7,c)
);
}
);
width = 428;
}
);
note = five.denominator;
},
{
glyphname = five.numerator;
lastChange = "2024-01-07 22:32:28 +0000";
layers = (
{
hints = (
{
horizontal = 1;
place = (802,-20);
target = down;
type = TopGhost;
},
{
horizontal = 1;
place = (672,96);
type = Stem;
},
{
horizontal = 1;
place = (499,104);
type = Stem;
},
{
horizontal = 1;
place = (267,136);
type = Stem;
},
{
horizontal = 1;
place = (267,45);
type = Stem;
},
{
place = (287,116);
type = Stem;
}
);
layerId = m01;
shapes = (
{
closed = 1;
nodes = (
(196,312,l),
(110,312,o),
(146,403,o),
(75,403,cs),
(40,403,o),
(14,382,o),
(14,353,cs),
(14,304,o),
(81,267,o),
(173,267,c)
);
}
);
width = 428;
}
);
note = five.numerator;
},
{
glyphname = five.oldstyle;
lastChange = "2024-01-07 22:32:31 +0000";
layers = (
{
hints = (
{
horizontal = 1;
place = (564,-20);
target = down;
type = TopGhost;
},
{
horizontal = 1;
place = (400,120);
type = Stem;
},
{
horizontal = 1;
place = (-211,117);
type = Stem;
},
{
horizontal = 1;
place = (-211,60);
type = Stem;
},
{
place = (286,154);
type = Stem;
}
);
layerId = m01;
shapes = (
{
closed = 1;
nodes = (
(173,-151,l),
(109,-151,o),
(95,-94,o),
(52,-94,cs),
(27,-94,o),
(8,-113,o),
(8,-140,cs),
(8,-184,o),
(60,-211,o),
(143,-211,c)
);
}
);
width = 472;
}
);
note = five.oldstyle;
},
{
glyphname = five.tnum;
lastChange = "2024-01-07 22:32:35 +0000";
layers = (
{
hints = (
{
horizontal = 1;
place = (807,-20);
target = down;
type = TopGhost;
},
{
horizontal = 1;
place = (620,137);
type = Stem;
},
{
horizontal = 1;
place = (357,143);
type = Stem;
},
{
horizontal = 1;
place = (-10,204);
type = Stem;
},
{
horizontal = 1;
place = (-10,64);
type = Stem;
},
{
place = (406,134);
type = Stem;
}
);
layerId = m01;
shapes = (
{
closed = 1;
nodes = (
(278,54,l),
(167,54,o),
(212,194,o),
(122,194,cs),
(80,194,o),
(51,163,o),
(51,120,cs),
(51,45,o),
(135,-10,o),
(249,-10,c)
);
}
);
width = 600;
}
);
note = five.tnum;
},
{
glyphname = fiveeighths;
lastChange = "2024-01-07 22:32:41 +0000";
layers = (
{
hints = (
{
horizontal = 1;
place = (802,-20);
target = down;
type = TopGhost;
},
{
horizontal = 1;
place = (770,-20);
target = down;
type = TopGhost;
},
{
horizontal = 1;
place = (672,96);
type = Stem;
},
{
horizontal = 1;
place = (499,104);
type = Stem;
},
{
horizontal = 1;
place = (468,41);
type = Stem;
},
{
horizontal = 1;
place = (267,136);
type = Stem;
},
{
horizontal = 1;
place = (267,45);
type = Stem;
},
{
horizontal = 1;
place = (-7,42);
type = Stem;
},
{
horizontal = 1;
place = (0,21);
target = up;
type = BottomGhost;
},
{
place = (921,119);
type = Stem;
},
{
place = (905,108);
type = Stem;
},
{
place = (641,111);
type = Stem;
},
{
place = (617,121);
type = Stem;
},
{
place = (306,116);
type = Stem;
}
);
layerId = m01;
shapes = (
{
closed = 1;
nodes = (
(1040,57,o),
(1040,147,cs),
(1040,205,o)
);
},
{
closed = 1;
nodes = (
(215,312,l),
(129,312,o),
(165,403,o),
(94,403,cs),
(59,403,o),
(33,382,o),
(33,353,cs),
(33,304,o),
(100,267,o),
(192,267,c)
);
}
);
width = 1079;
}
);
note = fiveeighths;
unicode = 8541;
},
{
glyphname = fiveinferior;
lastChange = "2024-01-07 22:32:49 +0000";
layers = (
{
hints = (
{
horizontal = 1;
place = (374,-20);
target = down;
type = TopGhost;
},
{
horizontal = 1;
place = (244,96);
type = Stem;
},
{
horizontal = 1;
place = (71,103);
type = Stem;
},
{
horizontal = 1;
place = (-161,136);
type = Stem;
},
{
horizontal = 1;
place = (-161,45);
type = Stem;
},
{
place = (287,116);
type = Stem;
}
);
layerId = m01;
shapes = (
{
closed = 1;
nodes = (
(196,-116,l),
(110,-116,o),
(146,-25,o),
(75,-25,cs),
(40,-25,o),
(14,-46,o),
(14,-75,cs),
(14,-124,o),
(81,-161,o),
(173,-161,c)
);
}
);
width = 428;
}
);
note = fiveinferior;
unicode = 8325;
},
{
glyphname = fivesuperior;
lastChange = "2024-01-07 22:32:52 +0000";
layers = (
{
hints = (
{
horizontal = 1;
place = (947,-20);
target = down;
type = TopGhost;
},
{
horizontal = 1;
place = (817,96);
type = Stem;
},
{
horizontal = 1;
place = (644,103);
type = Stem;
},
{
horizontal = 1;
place = (412,136);
type = Stem;
},
{
horizontal = 1;
place = (412,45);
type = Stem;
},
{
place = (287,116);
type = Stem;
}
);
layerId = m01;
shapes = (
{
closed = 1;
nodes = (
(196,457,l),
(110,457,o),
(146,548,o),
(75,548,cs),
(40,548,o),
(14,527,o),
(14,498,cs),
(14,449,o),
(81,412,o),
(173,412,c)
);
}
);
width = 428;
}
);
note = fivesuperior;
unicode = 8309;
},
{
glyphname = florin;
lastChange = "2024-01-07 22:33:21 +0000";
layers = (
{
hints = (
{
horizontal = 1;
place = (729,51);
type = Stem;
},
{
horizontal = 1;
place = (616,164);
type = Stem;
},
{
horizontal = 1;
place = (433,47);
type = Stem;
},
{
horizontal = 1;
place = (-191,164);
type = Stem;
},
{
horizontal = 1;
place = (-191,52);
type = Stem;
}
);
layerId = m01;
shapes = (
{
closed = 1;
nodes = (
(215,480,l),
(204,433,l),
(582,433,l),
(593,480,l)
);
},
{
closed = 1;
nodes = (
(699,780,o),
(755,746,o),
(755,690,cs),
(755,647,o),
(725,616,o),
(684,616,cs),
(650,616,o),
(627,637,o),
(622,677,cs),
(617,717,o),
(604,729,o),
(572,729,c),
(605,780,l)
);
},
{
closed = 1;
nodes = (
(107,-139,o),
(97,-130,o),
(77,-75,cs),
(65,-43,o),
(47,-27,o),
(20,-27,cs),
(-24,-27,o),
(-54,-56,o),
(-54,-98,cs),
(-54,-156,o),
(4,-191,o),
(101,-191,c),
(131,-139,l)
);
}
);
width = 770;
}
);
note = florin;
unicode = 402;
},
{
glyphname = four;
lastChange = "2024-01-07 22:33:24 +0000";
layers = (
{
hints = (
{
horizontal = 1;
place = (780,-20);
target = down;
type = TopGhost;
},
{
horizontal = 1;
place = (192,98);
type = Stem;
},
{
horizontal = 1;
place = (0,21);
target = up;
type = BottomGhost;
},
{
place = (307,155);
type = Stem;
}
);
layerId = m01;
shapes = (
{
closed = 1;
nodes = (
(307,60,l),
(187,37,l),
(187,0,l),
(551,0,l),
(551,37,l),
(462,60,l)
);
}
);
width = 599;
}
);
note = four;
unicode = 52;
},
{
glyphname = four.denominator;
lastChange = "2024-01-07 22:33:25 +0000";
layers = (
{
hints = (
{
horizontal = 1;
place = (509,-20);
target = down;
type = TopGhost;
},
{
horizontal = 1;
place = (123,66);
type = Stem;
},
{
horizontal = 1;
place = (0,189);
type = Stem;
},
{
place = (225,137);
type = Stem;
}
);
layerId = m01;
shapes = (
{
closed = 1;
nodes = (
(225,42,l),
(132,26,l),
(132,0,l),
(431,0,l),
(431,26,l),
(362,42,l)
);
}
);
width = 461;
}
);
note = four.denominator;
},
{
glyphname = four.numerator;
lastChange = "2024-01-07 22:33:27 +0000";
layers = (
{
hints = (
{
horizontal = 1;
place = (783,-20);
target = down;
type = TopGhost;
},
{
horizontal = 1;
place = (397,66);
type = Stem;
},
{
horizontal = 1;
place = (274,189);
type = Stem;
},
{
place = (224,137);
type = Stem;
}
);
layerId = m01;
shapes = (
{
closed = 1;
nodes = (
(224,316,l),
(131,300,l),
(131,274,l),
(430,274,l),
(430,300,l),
(361,316,l)
);
}
);
width = 459;
}
);
note = four.numerator;
},
{
glyphname = four.tnum;
lastChange = "2024-01-07 22:33:30 +0000";
layers = (
{
hints = (
{
horizontal = 1;
place = (780,-20);
target = down;
type = TopGhost;
},
{
horizontal = 1;
place = (192,98);
type = Stem;
},
{
horizontal = 1;
place = (0,21);
target = up;
type = BottomGhost;
},
{
place = (327,155);
type = Stem;
}
);
layerId = m01;
shapes = (
{
closed = 1;
nodes = (
(327,60,l),
(207,37,l),
(207,0,l),
(571,0,l),
(571,37,l),
(482,60,l)
);
}
);
width = 600;
}
);
note = four.tnum;
},
{
glyphname = fourinferior;
lastChange = "2024-01-07 22:33:32 +0000";
layers = (
{
hints = (
{
horizontal = 1;
place = (354,-20);
target = down;
type = TopGhost;
},
{
horizontal = 1;
place = (-32,66);
type = Stem;
},
{
horizontal = 1;
place = (-155,189);
type = Stem;
},
{
place = (225,137);
type = Stem;
}
);
layerId = m01;
shapes = (
{
closed = 1;
nodes = (
(225,-113,l),
(132,-129,l),
(132,-155,l),
(431,-155,l),
(431,-129,l),
(362,-113,l)
);
}
);
width = 461;
}
);
note = fourinferior;
unicode = 8324;
},
{
glyphname = foursuperior;
lastChange = "2024-01-07 22:33:34 +0000";
layers = (
{
hints = (
{
horizontal = 1;
place = (928,-20);
target = down;
type = TopGhost;
},
{
horizontal = 1;
place = (773,-20);
target = down;
type = TopGhost;
},
{
horizontal = 1;
place = (542,66);
type = Stem;
},
{
horizontal = 1;
place = (419,189);
type = Stem;
},
{
place = (224,137);
type = Stem;
}
);
layerId = m01;
shapes = (
{
closed = 1;
nodes = (
(224,461,l),
(131,445,l),
(131,419,l),
(430,419,l),
(430,445,l),
(361,461,l)
);
}
);
width = 460;
}
);
note = foursuperior;
unicode = 8308;
},
{
glyphname = g;
kernLeft = g;
kernRight = g;
lastChange = "2024-01-07 22:33:40 +0000";
layers = (
{
hints = (
{
horizontal = 1;
place = (525,91);
type = Stem;
},
{
horizontal = 1;
place = (499,41);
type = Stem;
},
{
horizontal = 1;
place = (-259,51);
type = Stem;
},
{
place = (437,114);
type = Stem;
},
{
place = (353,158);
type = Stem;
},
{
place = (54,159);
type = Stem;
},
{
place = (54,120);
type = Stem;
},
{
place = (-3,119);
type = Stem;
}
);
layerId = m01;
shapes = (
{
closed = 1;
nodes = (
(443,490,l),
(451,509,o),
(465,525,o),
(486,525,cs),
(512,525,o),
(517,499,o),
(551,499,cs),
(587,499,o),
(607,528,o),
(607,557,cs),
(607,593,o),
(576,616,o),
(535,616,cs),
(472,616,o),
(432,561,o),
(409,511,c)
);
}
);
width = 584;
}
);
note = g;
unicode = 103;
},
{
glyphname = gbreve;
kernLeft = g;
kernRight = g;
lastChange = "2024-01-07 22:33:43 +0000";
layers = (
{
hints = (
{
horizontal = 1;
place = (641,149);
type = Stem;
},
{
horizontal = 1;
place = (641,104);
type = Stem;
},
{
horizontal = 1;
place = (525,91);
type = Stem;
},
{
horizontal = 1;
place = (499,41);
type = Stem;
},
{
horizontal = 1;
place = (-259,51);
type = Stem;
},
{
place = (437,114);
type = Stem;
},
{
place = (353,158);
type = Stem;
},
{
place = (54,159);
type = Stem;
},
{
place = (54,120);
type = Stem;
},
{
place = (-3,119);
type = Stem;
}
);
layerId = m01;
shapes = (
{
closed = 1;
nodes = (
(139,790,l),
(151,679,o),
(224,641,o),
(286,641,cs),
(332,641,o),
(409,657,o),
(443,790,c),
(394,790,l),
(372,758,o),
(332,745,o),
(290,745,cs),
(246,745,o),
(205,758,o),
(189,790,c)
);
},
{
ref = g;
}
);
width = 584;
}
);
note = gbreve;
unicode = 287;
},
{
glyphname = gcircumflex;
kernLeft = g;
kernRight = g;
lastChange = "2024-01-07 22:33:46 +0000";
layers = (
{
hints = (
{
horizontal = 1;
place = (859,-20);
target = down;
type = TopGhost;
},
{
horizontal = 1;
place = (525,91);
type = Stem;
},
{
horizontal = 1;
place = (499,41);
type = Stem;
},
{
horizontal = 1;
place = (-259,51);
type = Stem;
},
{
place = (437,114);
type = Stem;
},
{
place = (353,158);
type = Stem;
},
{
place = (54,159);
type = Stem;
},
{
place = (54,120);
type = Stem;
},
{
place = (-3,119);
type = Stem;
}
);
layerId = m01;
shapes = (
{
closed = 1;
nodes = (
(261,859,o),
(240,845,o),
(223,811,cs),
(139,642,l),
(170,630,l),
(292,746,l),
(414,630,l),
(445,642,l),
(359,811,ls),
(341,846,o),
(324,859,o),
(293,859,cs)
);
},
{
ref = g;
}
);
width = 584;
}
);
note = gcircumflex;
unicode = 285;
},
{
glyphname = gcommaaccent;
kernLeft = g;
kernRight = g;
lastChange = "2024-01-07 22:33:51 +0000";
layers = (
{
hints = (
{
horizontal = 1;
place = (860,-20);
target = down;
type = TopGhost;
},
{
horizontal = 1;
place = (540,111);
type = Stem;
},
{
horizontal = 1;
place = (525,91);
type = Stem;
},
{
horizontal = 1;
place = (499,41);
type = Stem;
},
{
horizontal = 1;
place = (-259,51);
type = Stem;
},
{
place = (437,114);
type = Stem;
},
{
place = (353,158);
type = Stem;
},
{
place = (227,135);
type = Stem;
},
{
place = (227,88);
type = Stem;
},
{
place = (54,159);
type = Stem;
},
{
place = (54,120);
type = Stem;
},
{
place = (-3,119);
type = Stem;
}
);
layerId = m01;
shapes = (
{
closed = 1;
nodes = (
(326,860,l),
(263,832,o),
(227,785,o),
(227,729,cs),
(227,681,o),
(253,651,o),
(295,651,cs),
(334,651,o),
(362,674,o),
(362,704,cs),
(362,747,o),
(315,748,o),
(315,777,cs),
(315,792,o),
(329,816,o),
(349,835,c)
);
},
{
ref = g;
}
);
width = 584;
}
);
note = gcommaaccent;
unicode = 291;
},
{
glyphname = gdotaccent;
kernLeft = g;
kernRight = g;
lastChange = "2024-01-07 22:33:56 +0000";
layers = (
{
hints = (
{
horizontal = 1;
place = (614,165);
type = Stem;
},
{
horizontal = 1;
place = (525,91);
type = Stem;
},
{
horizontal = 1;
place = (499,41);
type = Stem;
},
{
horizontal = 1;
place = (-259,51);
type = Stem;
},
{
place = (437,114);
type = Stem;
},
{
place = (353,158);
type = Stem;
},
{
place = (212,175);
type = Stem;
},
{
place = (54,159);
type = Stem;
},
{
place = (54,120);
type = Stem;
},
{
place = (-3,119);
type = Stem;
}
);
layerId = m01;
shapes = (
{
closed = 1;
nodes = (
);
},
{
closed = 1;
nodes = (
(212,655,o),
(242,614,o),
(298,614,cs),
(357,614,o),
(387,655,o),
(387,696,cs),
(387,740,o),
(353,779,o),
(298,779,cs),
(244,779,o),
(212,740,o),
(212,696,cs)
);
},
{
ref = g;
}
);
width = 584;
}
);
note = gdotaccent;
unicode = 289;
},
{
glyphname = germandbls;
kernLeft = f;
lastChange = "2024-01-07 22:34:16 +0000";
layers = (
{
hints = (
{
horizontal = 1;
place = (779,51);
type = Stem;
},
{
horizontal = 1;
place = (463,47);
type = Stem;
},
{
horizontal = 1;
place = (0,40);
type = Stem;
},
{
horizontal = 1;
place = (-10,21);
target = up;
type = BottomGhost;
},
{
place = (595,135);
type = Stem;
},
{
place = (468,137);
type = Stem;
},
{
place = (468,21);
type = Stem;
},
{
place = (372,52);
type = Stem;
},
{
place = (113,155);
type = Stem;
}
);
layerId = m01;
shapes = (
{
closed = 1;
nodes = (
(463,40,o),
(429,88,o),
(424,174,c),
(381,174,l),
(387,11,l),
(422,-2,o),
(476,-10,o),
(524,-10,c),
(520,40,l)
);
},
{
closed = 1;
nodes = (
(341,35,l),
(341,0,l),
(28,0,l),
(28,35,l),
(113,55,l),
(268,55,l)
);
},
{
closed = 1;
nodes = (
(37,510,l),
(23,463,l),
(113,463,l),
(113,510,l)
);
}
);
width = 756;
}
);
note = germandbls;
unicode = 223;
},
{
glyphname = grave;
layers = (
{
hints = (
{
horizontal = 1;
place = (859,-20);
target = down;
type = TopGhost;
},
{
horizontal = 1;
place = (631,21);
target = up;
type = BottomGhost;
}
);
layerId = m01;
shapes = (
{
closed = 1;
nodes = (
(171,642,l),
(130,793,ls),
(118,836,o),
(94,859,o),
(55,859,cs),
(28,859,o),
(10,841,o),
(10,814,cs),
(10,794,o),
(20,768,o),
(43,742,cs),
(140,631,l)
);
}
);
width = 181;
}
);
note = grave;
unicode = 96;
},
{
glyphname = grave.cap;
layers = (
{
hints = (
{
horizontal = 1;
place = (963,-20);
target = down;
type = TopGhost;
},
{
horizontal = 1;
place = (817,21);
target = up;
type = BottomGhost;
}
);
layerId = m01;
shapes = (
{
closed = 1;
nodes = (
(251,845,l),
(126,939,ls),
(103,956,o),
(82,963,o),
(65,963,cs),
(31,963,o),
(10,937,o),
(10,909,cs),
(10,884,o),
(27,857,o),
(69,849,cs),
(234,817,l)
);
}
);
width = 261;
}
);
note = grave.cap;
},
{
glyphname = h;
kernLeft = h;
kernRight = f_f_h;
lastChange = "2024-01-07 22:34:44 +0000";
layers = (
{
hints = (
{
horizontal = 1;
place = (830,-20);
target = down;
type = TopGhost;
},
{
horizontal = 1;
place = (454,86);
type = Stem;
},
{
horizontal = 1;
place = (0,21);
target = up;
type = BottomGhost;
},
{
place = (433,155);
type = Stem;
},
{
place = (94,155);
type = Stem;
}
);
layerId = m01;
shapes = (
{
closed = 1;
nodes = (
(663,35,l),
(663,0,l),
(363,0,l),
(363,35,l),
(433,55,l),
(588,55,l)
);
},
{
closed = 1;
nodes = (
(19,35,l),
(19,0,l),
(319,0,l),
(319,35,l),
(249,55,l),
(94,55,l)
);
},
{
closed = 1;
nodes = (
(227,830,l),
(18,781,l),
(18,758,l),
(94,730,l),
(146,763,o),
(250,840,o),
(249,830,c)
);
}
);
width = 681;
}
);
note = h;
unicode = 104;
},
{
glyphname = hbar;
kernLeft = h;
kernRight = f_f_h;
lastChange = "2024-01-07 22:34:48 +0000";
layers = (
{
hints = (
{
horizontal = 1;
place = (830,-20);
target = down;
type = TopGhost;
},
{
horizontal = 1;
place = (599,85);
type = Stem;
},
{
horizontal = 1;
place = (454,86);
type = Stem;
},
{
horizontal = 1;
place = (0,21);
target = up;
type = BottomGhost;
},
{
place = (433,155);
type = Stem;
},
{
place = (94,155);
type = Stem;
}
);
layerId = m01;
shapes = (
{
closed = 1;
nodes = (
(249,599,l),
(382,599,l),
(382,684,l),
(249,684,l),
(94,684,l),
(35,684,l),
(35,599,l),
(94,599,l)
);
},
{
ref = h;
}
);
width = 681;
}
);
note = hbar;
unicode = 295;
},
{
glyphname = hcircumflex;
kernLeft = h;
kernRight = f_f_h;
lastChange = "2024-01-07 22:34:51 +0000";
layers = (
{
hints = (
{
horizontal = 1;
place = (859,-20);
target = down;
type = TopGhost;
},
{
horizontal = 1;
place = (830,-20);
target = down;
type = TopGhost;
},
{
horizontal = 1;
place = (454,86);
type = Stem;
},
{
horizontal = 1;
place = (0,21);
target = up;
type = BottomGhost;
},
{
place = (433,155);
type = Stem;
},
{
place = (94,155);
type = Stem;
}
);
layerId = m01;
shapes = (
{
closed = 1;
nodes = (
(400,859,o),
(379,845,o),
(362,811,cs),
(278,642,l),
(309,630,l),
(431,746,l),
(553,630,l),
(584,642,l),
(498,811,ls),
(480,846,o),
(463,859,o),
(432,859,cs)
);
},
{
ref = h;
}
);
width = 681;
}
);
note = hcircumflex;
unicode = 293;
},
{
glyphname = hdotbelow;
kernLeft = h;
kernRight = f_f_h;
lastChange = "2024-01-07 22:34:53 +0000";
layers = (
{
hints = (
{
horizontal = 1;
place = (830,-20);
target = down;
type = TopGhost;
},
{
horizontal = 1;
place = (454,86);
type = Stem;
},
{
horizontal = 1;
place = (-260,165);
type = Stem;
},
{
horizontal = 1;
place = (0,21);
target = up;
type = BottomGhost;
},
{
place = (433,155);
type = Stem;
},
{
place = (252,175);
type = Stem;
},
{
place = (94,155);
type = Stem;
}
);
layerId = m01;
shapes = (
{
closed = 1;
nodes = (
(252,-219,o),
(282,-260,o),
(338,-260,cs),
(397,-260,o),
(427,-219,o),
(427,-178,cs),
(427,-134,o),
(393,-95,o),
(338,-95,cs),
(284,-95,o),
(252,-134,o),
(252,-178,cs)
);
},
{
ref = h;
}
);
width = 681;
}
);
note = hdotbelow;
unicode = 7717;
},
{
glyphname = hungarumlaut;
layers = (
{
hints = (
{
horizontal = 1;
place = (859,-20);
target = down;
type = TopGhost;
},
{
horizontal = 1;
place = (631,21);
target = up;
type = BottomGhost;
}
);
layerId = m01;
shapes = (
{
closed = 1;
nodes = (
(215,631,l),
(312,742,ls),
(335,768,o),
(345,794,o),
(345,814,cs),
(345,841,o),
(327,859,o),
(300,859,cs),
(261,859,o),
(237,836,o),
(225,793,cs),
(184,642,l)
);
},
{
closed = 1;
nodes = (
(41,631,l),
(138,742,ls),
(161,768,o),
(171,794,o),
(171,814,cs),
(171,841,o),
(153,859,o),
(126,859,cs),
(87,859,o),
(63,836,o),
(51,793,cs),
(10,642,l)
);
}
);
width = 355;
}
);
note = hungarumlaut;
unicode = 733;
},
{
glyphname = hungarumlaut.cap;
layers = (
{
hints = (
{
horizontal = 1;
place = (965,-20);
target = down;
type = TopGhost;
},
{
horizontal = 1;
place = (816,21);
target = up;
type = BottomGhost;
}
);
layerId = m01;
shapes = (
{
closed = 1;
nodes = (
(31,816,l),
(167,851,ls),
(203,860,o),
(216,888,o),
(216,911,cs),
(216,939,o),
(194,965,o),
(161,965,cs),
(142,965,o),
(120,955,o),
(96,930,cs),
(10,841,l)
);
},
{
closed = 1;
nodes = (
(237,816,l),
(373,851,ls),
(409,860,o),
(422,888,o),
(422,911,cs),
(422,939,o),
(400,965,o),
(367,965,cs),
(348,965,o),
(326,955,o),
(302,930,cs),
(216,841,l)
);
}
);
width = 432;
}
);
note = hungarumlaut.cap;
},
{
glyphname = i;
kernLeft = dotlessi;
kernRight = dotlessi;
lastChange = "2024-01-07 22:35:12 +0000";
layers = (
{
hints = (
{
horizontal = 1;
place = (540,-20);
target = down;
type = TopGhost;
},
{
horizontal = 1;
place = (615,165);
type = Stem;
},
{
horizontal = 1;
place = (0,21);
target = up;
type = BottomGhost;
},
{
place = (109,155);
type = Stem;
}
);
layerId = m01;
shapes = (
{
closed = 1;
nodes = (
(99,656,o),
(129,615,o),
(185,615,cs),
(244,615,o),
(274,656,o),
(274,697,cs),
(274,741,o),
(240,780,o),
(185,780,cs),
(131,780,o),
(99,741,o),
(99,697,cs)
);
},
{
closed = 1;
nodes = (
(24,35,l),
(24,0,l),
(344,0,l),
(344,35,l),
(264,55,l),
(109,55,l)
);
},
{
closed = 1;
nodes = (
(243,540,l),
(24,492,l),
(24,468,l),
(109,441,l),
(264,540,l)
);
}
);
width = 360;
}
);
note = i;
unicode = 105;
},
{
glyphname = iacute;
kernLeft = dotlessi;
kernRight = dotlessi;
lastChange = "2024-01-07 22:35:23 +0000";
layers = (
{
hints = (
{
horizontal = 1;
place = (859,-20);
target = down;
type = TopGhost;
},
{
horizontal = 1;
place = (540,-20);
target = down;
type = TopGhost;
},
{
horizontal = 1;
place = (0,21);
target = up;
type = BottomGhost;
},
{
place = (109,155);
type = Stem;
}
);
layerId = m01;
shapes = (
{
closed = 1;
nodes = (
(140,631,l),
(237,742,ls),
(260,768,o),
(270,794,o),
(270,814,cs),
(270,841,o),
(252,859,o),
(225,859,cs),
(186,859,o),
(162,836,o),
(150,793,cs),
(109,642,l)
);
},
{
ref = dotlessi;
}
);
width = 360;
}
);
note = iacute;
unicode = 237;
},
{
glyphname = ibreve;
kernLeft = dotlessi;
kernRight = dotlessi;
lastChange = "2024-01-07 22:35:26 +0000";
layers = (
{
hints = (
{
horizontal = 1;
place = (540,-20);
target = down;
type = TopGhost;
},
{
horizontal = 1;
place = (641,149);
type = Stem;
},
{
horizontal = 1;
place = (641,104);
type = Stem;
},
{
horizontal = 1;
place = (0,21);
target = up;
type = BottomGhost;
},
{
place = (109,155);
type = Stem;
}
);
layerId = m01;
shapes = (
{
closed = 1;
nodes = (
(34,790,l),
(46,679,o),
(119,641,o),
(181,641,cs),
(227,641,o),
(304,657,o),
(338,790,c),
(289,790,l),
(267,758,o),
(227,745,o),
(185,745,cs),
(141,745,o),
(100,758,o),
(84,790,c)
);
},
{
ref = dotlessi;
}
);
width = 360;
}
);
note = ibreve;
unicode = 301;
},
{
glyphname = icircumflex;
kernLeft = dotlessi;
kernRight = dotlessi;
lastChange = "2024-01-07 22:35:28 +0000";
layers = (
{
hints = (
{
horizontal = 1;
place = (859,-20);
target = down;
type = TopGhost;
},
{
horizontal = 1;
place = (540,-20);
target = down;
type = TopGhost;
},
{
horizontal = 1;
place = (0,21);
target = up;
type = BottomGhost;
},
{
place = (109,155);
type = Stem;
}
);
layerId = m01;
shapes = (
{
closed = 1;
nodes = (
(158,859,o),
(137,845,o),
(120,811,cs),
(36,642,l),
(67,630,l),
(189,746,l),
(311,630,l),
(342,642,l),
(256,811,ls),
(238,846,o),
(221,859,o),
(190,859,cs)
);
},
{
ref = dotlessi;
}
);
width = 360;
}
);
note = icircumflex;
unicode = 238;
},
{
glyphname = idieresis;
kernLeft = dotlessi;
kernRight = dotlessi;
lastChange = "2024-01-07 22:35:30 +0000";
layers = (
{
hints = (
{
horizontal = 1;
place = (540,-20);
target = down;
type = TopGhost;
},
{
horizontal = 1;
place = (637,143);
type = Stem;
},
{
horizontal = 1;
place = (0,21);
target = up;
type = BottomGhost;
},
{
place = (219,152);
type = Stem;
},
{
place = (109,155);
type = Stem;
},
{
place = (1,152);
type = Stem;
}
);
layerId = m01;
shapes = (
{
closed = 1;
nodes = (
(1,673,o),
(27,637,o),
(76,637,cs),
(127,637,o),
(153,673,o),
(153,708,cs),
(153,746,o),
(123,780,o),
(76,780,cs),
(29,780,o),
(1,746,o),
(1,708,cs)
);
},
{
closed = 1;
nodes = (
(219,673,o),
(245,637,o),
(294,637,cs),
(345,637,o),
(371,673,o),
(371,708,cs),
(371,746,o),
(341,780,o),
(294,780,cs),
(247,780,o),
(219,746,o),
(219,708,cs)
);
},
{
ref = dotlessi;
}
);
width = 360;
}
);
note = idieresis;
unicode = 239;
},
{
glyphname = idotbelow;
kernLeft = dotlessi;
kernRight = dotlessi;
lastChange = "2024-01-07 22:35:32 +0000";
layers = (
{
hints = (
{
horizontal = 1;
place = (540,-20);
target = down;
type = TopGhost;
},
{
horizontal = 1;
place = (615,165);
type = Stem;
},
{
horizontal = 1;
place = (-260,165);
type = Stem;
},
{
horizontal = 1;
place = (0,21);
target = up;
type = BottomGhost;
},
{
place = (109,155);
type = Stem;
}
);
layerId = m01;
shapes = (
{
closed = 1;
nodes = (
(99,656,o),
(129,615,o),
(185,615,cs),
(244,615,o),
(274,656,o),
(274,697,cs),
(274,741,o),
(240,780,o),
(185,780,cs),
(131,780,o),
(99,741,o),
(99,697,cs)
);
},
{
closed = 1;
nodes = (
(264,540,l),
(243,540,l)
);
},
{
closed = 1;
nodes = (
(100,-219,o),
(130,-260,o),
(186,-260,cs),
(245,-260,o),
(275,-219,o),
(275,-178,cs),
(275,-134,o),
(241,-95,o),
(186,-95,cs),
(132,-95,o),
(100,-134,o),
(100,-178,cs)
);
},
{
ref = dotlessi;
}
);
width = 360;
}
);
note = idotbelow;
unicode = 7883;
},
{
glyphname = igrave;
kernLeft = dotlessi;
kernRight = dotlessi;
lastChange = "2024-01-07 22:35:34 +0000";
layers = (
{
hints = (
{
horizontal = 1;
place = (859,-20);
target = down;
type = TopGhost;
},
{
horizontal = 1;
place = (540,-20);
target = down;
type = TopGhost;
},
{
horizontal = 1;
place = (0,21);
target = up;
type = BottomGhost;
},
{
place = (109,155);
type = Stem;
}
);
layerId = m01;
shapes = (
{
closed = 1;
nodes = (
(261,642,l),
(220,793,ls),
(208,836,o),
(184,859,o),
(145,859,cs),
(118,859,o),
(100,841,o),
(100,814,cs),
(100,794,o),
(110,768,o),
(133,742,cs),
(230,631,l)
);
},
{
ref = dotlessi;
}
);
width = 360;
}
);
note = igrave;
unicode = 236;
},
